<svg width="300" height="196" viewBox="0 0 300 196" fill="none" xmlns="http://www.w3.org/2000/svg">
<path d="M15.2097 52.5595H13.0972V50.447H12.2522V52.5595H10.1396V53.4046H12.2522V55.5171H13.0972V53.4046H15.2097V52.5595Z" fill="#193040"/>
<path d="M264.91 114.245H262.797V112.133H261.952V114.245H259.84V115.09H261.952V117.203H262.797V115.09H264.91V114.245Z" fill="#193040"/>
<path d="M180.409 9.67544C178.782 9.67544 177.451 8.34455 177.451 6.71791C177.451 5.09127 178.782 3.76038 180.409 3.76038C182.035 3.76038 183.366 5.09127 183.366 6.71791C183.366 8.34455 182.035 9.67544 180.409 9.67544ZM180.409 4.60539C179.247 4.60539 178.296 5.55602 178.296 6.71791C178.296 7.8798 179.247 8.83043 180.409 8.83043C181.571 8.83043 182.521 7.8798 182.521 6.71791C182.521 5.55602 181.571 4.60539 180.409 4.60539Z" fill="#193040"/>
<path d="M268.924 132.835C267.298 132.835 265.967 131.505 265.967 129.878C265.967 128.251 267.298 126.92 268.924 126.92C270.551 126.92 271.882 128.251 271.882 129.878C271.882 131.505 270.551 132.835 268.924 132.835ZM268.924 127.765C267.762 127.765 266.812 128.716 266.812 129.878C266.812 131.04 267.762 131.99 268.924 131.99C270.086 131.99 271.037 131.04 271.037 129.878C271.037 128.716 270.086 127.765 268.924 127.765Z" fill="#193040"/>
<path d="M37.9198 8.13322H37.0747C37.0747 7.98534 37.0536 4.4997 33.2722 4.45745C28.688 4.4152 28.2021 0.126782 28.2021 0.0845319L29.0472 0C29.0683 0.147877 29.4908 3.57019 33.2933 3.61244C37.8986 3.67581 37.9198 8.09097 37.9198 8.13322Z" fill="#193040"/>
<path d="M255.319 43.6449C255.213 43.6449 255.129 43.6449 255.129 43.6449L255.192 42.7999C255.34 42.7999 258.784 43.0322 259.523 39.2931C260.41 34.7511 264.762 35.5539 264.804 35.5751L264.635 36.3989C264.487 36.3778 261.065 35.7652 260.326 39.4621C259.565 43.3914 256.143 43.6449 255.319 43.6449Z" fill="#193040"/>
<path d="M129.667 195.493C129.667 195.493 128.273 189.177 131.78 183.029C131.78 183.029 133.702 177.051 130.554 171.622C127.386 166.171 130.554 160.024 134.251 159.158C137.948 158.27 142.321 161.27 143.378 165.474C144.434 169.678 143.547 172.678 149.884 175.826C156.222 178.973 155.947 195.493 155.947 195.493H129.667Z" fill="#F8FCFE"/>
<path d="M156.327 195.916H129.329L129.266 195.578C129.202 195.324 127.871 189.05 131.399 182.86C131.547 182.353 133.089 176.818 130.195 171.833C128.611 169.108 128.399 165.918 129.625 163.066C130.575 160.848 132.308 159.179 134.146 158.756C138.096 157.827 142.68 160.974 143.779 165.39C143.99 166.213 144.117 166.995 144.243 167.734C144.772 170.798 145.152 173.016 150.053 175.466C156.538 178.698 156.348 194.838 156.348 195.514L156.327 195.916ZM130.005 195.071H155.482C155.461 192.514 155.123 178.931 149.651 176.206C144.37 173.565 143.905 170.924 143.398 167.861C143.272 167.122 143.145 166.382 142.934 165.58C141.941 161.587 137.821 158.735 134.315 159.559C132.73 159.939 131.23 161.397 130.364 163.383C129.244 165.981 129.435 168.896 130.892 171.389C134.103 176.924 132.244 182.902 132.16 183.135L132.117 183.219C129.181 188.374 129.794 193.697 130.005 195.071Z" fill="#193040"/>
<path d="M142.976 195.747C137.737 184.318 133.85 159.284 133.808 159.031L134.653 158.904C134.695 159.158 138.561 184.085 143.758 195.408L142.976 195.747Z" fill="#193040"/>
<path d="M115.767 175.72C117.284 175.72 118.513 174.49 118.513 172.974C118.513 171.457 117.284 170.227 115.767 170.227C114.25 170.227 113.021 171.457 113.021 172.974C113.021 174.49 114.25 175.72 115.767 175.72Z" fill="#193040"/>
<path d="M129.646 195.81C120.921 192.599 116.02 179.374 115.809 178.825L116.801 178.466C116.844 178.593 121.745 191.796 130.005 194.838L129.646 195.81Z" fill="#193040"/>
<path d="M141.148 161.873L136.657 173.907L137.449 174.202L141.939 162.169L141.148 161.873Z" fill="#193040"/>
<path d="M143.476 167.609L138.287 180.733L139.073 181.043L144.262 167.919L143.476 167.609Z" fill="#193040"/>
<path d="M111.499 173.713C111.499 173.713 115.766 171.495 119.991 172.826C119.991 172.826 121.153 179.036 116.823 179.501C111.922 180.029 111.499 173.713 111.499 173.713Z" fill="#2595DF"/>
<path d="M104.824 173.523C106.201 173.523 107.317 172.407 107.317 171.03C107.317 169.653 106.201 168.537 104.824 168.537C103.447 168.537 102.331 169.653 102.331 171.03C102.331 172.407 103.447 173.523 104.824 173.523Z" fill="#193040"/>
<path d="M124.575 191.796C124.575 191.796 122.125 188.289 122.463 185.48C122.822 182.67 124.575 181.783 125.272 181.973C125.969 182.142 127.195 182.501 126.667 185.142C126.139 187.761 124.575 191.796 124.575 191.796Z" fill="#193040"/>
<path d="M130.642 185.646L130.142 186.327L143.166 195.894L143.666 195.213L130.642 185.646Z" fill="#193040"/>
<path d="M129.743 189.584L129.25 190.27L136.938 195.789L137.43 195.103L129.743 189.584Z" fill="#193040"/>
<path d="M166.446 168.706C166.446 168.706 164.693 165.009 166.446 160.277C168.199 155.545 169.425 140.779 158.904 141.497C148.363 142.194 147.666 156.242 148.722 163.446C149.778 170.65 148.194 175.551 146.44 179.607C144.687 183.642 139.068 186.621 139.934 195.578H175.572C175.572 195.578 177.326 181.36 166.446 168.706Z" fill="#F8FCFE"/>
<path d="M175.952 196H139.554L139.511 195.62C138.877 189.155 141.603 185.649 143.8 182.839C144.708 181.677 145.553 180.579 146.06 179.438C147.835 175.34 149.356 170.586 148.32 163.509C147.497 157.806 147.856 149.482 151.679 144.771C153.496 142.532 155.926 141.286 158.904 141.074C161.883 140.884 164.207 141.856 165.791 143.969C169.15 148.468 168.136 157.045 166.89 160.425C165.326 164.65 166.657 168.03 166.847 168.474C172.509 175.065 174.706 182.078 175.551 186.789C176.48 191.923 176.058 195.451 176.037 195.599L175.952 196ZM140.314 195.155H175.192C175.361 192.852 175.783 180.219 166.129 168.981L166.087 168.939L166.066 168.896C165.981 168.748 164.249 164.988 166.045 160.15C167.249 156.918 168.22 148.722 165.073 144.476C163.678 142.595 161.608 141.75 158.925 141.919C156.2 142.11 153.961 143.229 152.313 145.299C148.68 149.799 148.32 157.848 149.144 163.383C150.222 170.671 148.574 175.762 146.842 179.776C146.292 181.022 145.426 182.163 144.476 183.367C142.3 186.135 139.849 189.261 140.314 195.155Z" fill="#193040"/>
<path d="M107.929 180.473C107.929 180.473 102.457 180.917 101.57 179.607C100.704 178.297 103.07 177.135 106.197 179.121C106.64 179.396 107.929 180.473 107.929 180.473Z" fill="#193040"/>
<path d="M109.64 183.261C109.64 183.261 104.38 184.825 103.239 183.726C102.119 182.628 104.19 181.001 107.654 182.29C108.161 182.459 109.64 183.261 109.64 183.261Z" fill="#193040"/>
<path d="M121.259 195.916C111.288 188.205 104.866 176.903 104.803 176.797L105.732 176.269C105.796 176.375 112.112 187.508 121.914 195.071L121.259 195.916Z" fill="#193040"/>
<path d="M158.397 195.556C154.848 176.459 155.038 162.728 155.82 154.573C156.665 145.701 158.355 141.434 158.418 141.243L159.2 141.56C159.179 141.603 157.489 145.933 156.665 154.721C155.883 162.812 155.714 176.438 159.242 195.409L158.397 195.556Z" fill="#193040"/>
<path d="M149.89 149.335L149.253 149.89L155.708 157.295L156.345 156.74L149.89 149.335Z" fill="#193040"/>
<path d="M148.892 154.308L148.257 154.866L155.465 163.072L156.1 162.514L148.892 154.308Z" fill="#193040"/>
<path d="M100.937 171.706C100.937 171.706 104.57 169.594 108.668 170.903C108.668 170.903 109.725 176.544 105.795 176.966C101.317 177.452 100.937 171.706 100.937 171.706Z" fill="#2595DF"/>
<path d="M167.444 170.139L156.665 183.807L157.329 184.33L168.107 170.662L167.444 170.139Z" fill="#193040"/>
<path d="M169.685 173.271L157.353 188.537L158.01 189.068L170.342 173.802L169.685 173.271Z" fill="#193040"/>
<path d="M282.647 169.377C283.702 168.494 283.842 166.921 282.958 165.866C282.075 164.81 280.503 164.67 279.447 165.554C278.391 166.437 278.251 168.009 279.135 169.065C280.019 170.121 281.591 170.261 282.647 169.377Z" fill="#193040"/>
<path d="M284.705 176.649C284.705 176.649 289.184 173.46 289.015 171.896C288.846 170.333 286.268 170.967 285.149 174.474C285.001 175.002 284.705 176.649 284.705 176.649Z" fill="#193040"/>
<path d="M285.19 179.882C285.19 179.882 290.239 177.706 290.387 176.142C290.535 174.579 287.894 174.664 286.078 177.875C285.824 178.318 285.19 179.882 285.19 179.882Z" fill="#193040"/>
<path d="M283.205 195.007L282.191 194.69C286.311 181.91 283.121 172.192 283.1 172.086L284.093 171.748C284.241 172.15 287.43 181.888 283.205 195.007Z" fill="#193040"/>
<path d="M284.452 165.453C284.452 165.453 280.311 166.15 278.009 169.805C278.009 169.805 280.818 174.811 284.114 172.614C287.832 170.1 284.452 165.453 284.452 165.453Z" fill="#2595DF"/>
<path d="M263.115 194.733C263.115 194.733 262.059 190.001 264.7 185.395C264.7 185.395 266.157 180.917 263.77 176.84C261.404 172.762 263.77 168.157 266.537 167.502C269.305 166.847 272.6 169.087 273.382 172.234C274.164 175.403 273.678 179.839 278.41 182.205C283.142 184.571 282.783 194.733 282.783 194.733H263.115Z" fill="#F8FCFE"/>
<path d="M283.205 195.155H262.777L262.714 194.817C262.671 194.627 261.657 189.895 264.319 185.205C264.446 184.761 265.544 180.705 263.432 177.03C262.228 174.959 262.08 172.53 263.009 170.354C263.728 168.664 265.059 167.397 266.474 167.059C269.474 166.34 272.981 168.749 273.826 172.107C273.995 172.783 274.1 173.523 274.227 174.283C274.649 177.114 275.093 180.029 278.642 181.804C283.564 184.276 283.269 194.289 283.247 194.711L283.205 195.155ZM263.474 194.31H282.381C282.381 192.43 282.149 184.55 278.22 182.586C274.29 180.621 273.783 177.325 273.361 174.431C273.255 173.692 273.15 172.974 272.981 172.34C272.241 169.403 269.22 167.291 266.643 167.904C265.481 168.178 264.383 169.256 263.77 170.713C262.946 172.636 263.094 174.79 264.15 176.628C266.58 180.832 265.164 185.332 265.101 185.522L265.059 185.607C262.946 189.325 263.305 193.169 263.474 194.31Z" fill="#193040"/>
<path d="M273.002 194.965C269.073 186.388 266.157 167.608 266.115 167.418L266.96 167.291C266.981 167.481 269.897 186.156 273.763 194.627L273.002 194.965Z" fill="#193040"/>
<path d="M271.641 169.494L268.273 178.519L269.065 178.815L272.433 169.789L271.641 169.494Z" fill="#193040"/>
<path d="M273.348 173.859L269.463 183.682L270.249 183.992L274.134 174.17L273.348 173.859Z" fill="#193040"/>
<path d="M263.909 187.282L263.409 187.963L273.164 195.129L273.665 194.448L263.909 187.282Z" fill="#193040"/>
<path d="M263.301 190.267L262.808 190.953L268.573 195.093L269.066 194.407L263.301 190.267Z" fill="#193040"/>
<path d="M172.593 43.5602C172.593 21.3365 153.897 3.16876 131.863 2.00687V1.94348C131.504 1.94348 131.166 1.9435 130.807 1.96463C130.448 1.96463 130.11 1.94348 129.751 1.94348V2.00687C107.738 3.16876 89.0215 21.3153 89.0215 43.5602C89.0215 54.3975 93.479 64.263 100.577 71.6779C114.161 87.3317 114.71 109.598 114.71 109.598H129.751H131.863H146.905C146.905 109.598 147.454 87.3317 161.037 71.6779C168.136 64.263 172.593 54.3975 172.593 43.5602Z" fill="#2595DF"/>
<path d="M145.701 107.105H115.767V130.786H119.02V134.251C119.02 137.906 121.977 140.884 125.653 140.884H136.152C139.807 140.884 142.786 137.927 142.786 134.251V130.786H145.701V107.105Z" fill="#F8FCFE"/>
<path d="M136.152 141.286H125.653C121.766 141.286 118.597 138.117 118.597 134.23V131.188H115.344V106.661H146.123V131.188H143.208V134.23C143.187 138.117 140.039 141.286 136.152 141.286ZM116.189 130.343H119.442V134.23C119.442 137.652 122.231 140.441 125.653 140.441H136.152C139.574 140.441 142.363 137.652 142.363 134.23V130.343H145.278V107.506H116.189V130.343Z" fill="#193040"/>
<path d="M113.146 108.901C113.146 107.38 114.393 106.133 115.914 106.133H146.186C147.707 106.133 148.954 107.38 148.954 108.901C148.954 110.422 147.707 111.668 146.186 111.668H115.914C114.372 111.647 113.146 110.422 113.146 108.901Z" fill="#F8FCFE"/>
<path d="M146.165 112.069H115.893C114.14 112.069 112.703 110.633 112.703 108.88C112.703 107.126 114.14 105.69 115.893 105.69H146.165C147.919 105.69 149.355 107.126 149.355 108.88C149.355 110.633 147.919 112.069 146.165 112.069ZM115.893 106.556C114.604 106.556 113.548 107.612 113.548 108.901C113.548 110.189 114.604 111.246 115.893 111.246H146.165C147.454 111.246 148.51 110.189 148.51 108.901C148.51 107.612 147.454 106.556 146.165 106.556H115.893Z" fill="#193040"/>
<path d="M113.146 119.104C113.146 117.583 114.393 116.337 115.914 116.337H146.186C147.707 116.337 148.954 117.583 148.954 119.104C148.954 120.625 147.707 121.872 146.186 121.872H115.914C114.372 121.872 113.146 120.646 113.146 119.104Z" fill="#F8FCFE"/>
<path d="M146.165 122.294H115.893C114.14 122.294 112.703 120.858 112.703 119.104C112.703 117.351 114.14 115.914 115.893 115.914H146.165C147.919 115.914 149.355 117.351 149.355 119.104C149.355 120.879 147.919 122.294 146.165 122.294ZM115.893 116.78C114.604 116.78 113.548 117.837 113.548 119.125C113.548 120.414 114.604 121.47 115.893 121.47H146.165C147.454 121.47 148.51 120.414 148.51 119.125C148.51 117.837 147.454 116.78 146.165 116.78H115.893Z" fill="#193040"/>
<path d="M113.146 129.223C113.146 127.702 114.393 126.456 115.914 126.456H146.186C147.707 126.456 148.954 127.702 148.954 129.223C148.954 130.744 147.707 131.99 146.186 131.99H115.914C114.372 131.99 113.146 130.744 113.146 129.223Z" fill="#F8FCFE"/>
<path d="M146.165 132.413H115.893C114.14 132.413 112.703 130.976 112.703 129.223C112.703 127.47 114.14 126.033 115.893 126.033H146.165C147.919 126.033 149.355 127.47 149.355 129.223C149.355 130.976 147.919 132.413 146.165 132.413ZM115.893 126.878C114.604 126.878 113.548 127.934 113.548 129.223C113.548 130.512 114.604 131.568 115.893 131.568H146.165C147.454 131.568 148.51 130.512 148.51 129.223C148.51 127.934 147.454 126.878 146.165 126.878H115.893Z" fill="#193040"/>
<path d="M147.242 36.3776C146.82 36.3776 146.397 36.4199 145.975 36.4832V28.1599H113.759V60.3759H122.378C122.315 59.9745 122.272 59.552 122.272 59.1084C122.272 54.7566 125.8 51.2076 130.173 51.2076C134.546 51.2076 138.074 54.7355 138.074 59.1084C138.074 59.5309 138.032 59.9534 137.968 60.3759H145.975V52.0526C146.376 52.116 146.799 52.1582 147.242 52.1582C151.594 52.1582 155.143 48.6303 155.143 44.2573C155.143 39.8844 151.594 36.3776 147.242 36.3776Z" fill="#F8FCFE"/>
<path d="M39.3135 131.991L41.3626 140.441H50.1719L48.1227 131.991H39.3135Z" fill="#F8FCFE"/>
<path d="M50.6998 140.863H41.0244L38.7852 131.568H48.4605L50.6998 140.863ZM41.7005 140.018H49.6435L47.8057 132.413H39.8625L41.7005 140.018Z" fill="#193040"/>
<path d="M49.7076 137.673C49.7076 137.673 44.9122 141.307 40.8984 137.673L28.9626 143.884C28.4345 144.159 28.6246 144.961 29.2161 144.961H50.2991C50.954 144.961 51.4399 144.328 51.2709 143.694L49.7076 137.673Z" fill="#193040"/>
<path d="M63.502 154.594L63.9667 163.045H72.7759L72.3112 154.594H63.502Z" fill="#F8FCFE"/>
<path d="M73.2199 163.467H63.5656L63.0586 154.172H72.7128L73.2199 163.467ZM64.3683 162.622H72.3326L71.9312 155.017H63.967L64.3683 162.622Z" fill="#193040"/>
<path d="M72.9869 160.531C72.9869 160.531 68.1915 164.164 64.1777 160.531L52.2419 166.742C51.7138 167.016 51.9039 167.819 52.4954 167.819H73.5784C74.2333 167.819 74.7192 167.185 74.5501 166.551L72.9869 160.531Z" fill="#193040"/>
<path d="M84.7754 45.8631L92.2326 48.7995L98.7814 42.2507L99.6898 38.4059L102.394 36.5891C102.394 36.5891 102.626 37.7087 101.95 38.6171C101.95 38.6171 101.95 39.5255 103.302 38.8495C104.654 38.1735 107.591 35.9131 107.591 35.9131C107.591 35.9131 108.499 36.8215 107.358 37.7299C107.358 37.7299 108.034 38.1735 107.591 39.3143C107.591 39.3143 108.034 39.9903 107.147 40.8987C107.147 40.8987 108.055 41.5746 107.147 42.7154C107.147 42.7154 106.027 44.0674 101.95 45.2082L96.4577 55.5596C95.8661 56.6581 94.6197 57.2074 93.4156 56.9116L85.4514 54.9258L84.7754 45.8631Z" fill="#F8FCFE"/>
<path d="M94.0915 57.4185C93.838 57.4185 93.5845 57.3974 93.331 57.334L85.071 55.2637L84.3105 45.2503L92.148 48.3346L98.4222 42.0605L99.3306 38.1734L102.711 35.913L102.837 36.5257C102.837 36.5679 103.07 37.6875 102.436 38.7015C102.499 38.7226 102.711 38.7015 103.133 38.4903C104.443 37.8354 107.337 35.6172 107.358 35.5961L107.654 35.3638L107.907 35.6173C107.95 35.6595 108.414 36.1454 108.372 36.8002C108.351 37.1382 108.224 37.4551 107.971 37.7509C108.161 38.0678 108.309 38.5537 108.076 39.293C108.182 39.5888 108.267 40.2014 107.738 40.8986C107.844 41.0676 107.95 41.2788 107.992 41.5534C108.055 42.0182 107.886 42.5041 107.506 42.9689C107.443 43.0322 106.281 44.4054 102.267 45.5461L96.8589 55.7496C96.2885 56.7848 95.2323 57.4185 94.0915 57.4185ZM85.8526 54.5666L93.5211 56.489C94.5351 56.7425 95.5914 56.2777 96.0773 55.3482L101.654 44.8278L101.823 44.7856C105.668 43.7082 106.809 42.4407 106.809 42.4407C107.041 42.1661 107.126 41.8914 107.105 41.6591C107.062 41.4055 106.872 41.2365 106.872 41.2365L106.492 40.9408L106.83 40.6028C107.443 39.9902 107.253 39.5888 107.231 39.5465L107.105 39.3564L107.189 39.1663C107.485 38.4058 107.147 38.11 107.105 38.0889L106.619 37.772L107.084 37.4129C107.337 37.2017 107.485 36.9904 107.485 36.7792C107.485 36.6946 107.485 36.6101 107.443 36.5468C106.598 37.1805 104.548 38.7015 103.45 39.2508C102.774 39.5888 102.267 39.631 101.908 39.3987C101.591 39.2085 101.485 38.8706 101.485 38.6382V38.4903L101.57 38.3846C101.802 38.0678 101.908 37.6875 101.95 37.3918L100.028 38.6804L99.1404 42.483L92.2958 49.3275L85.1978 46.539L85.8526 54.5666Z" fill="#193040"/>
<path d="M59.1289 41.6802L60.7133 27.6741L63.9244 20.1536L75.7122 20.5127C75.7122 20.5127 76.5995 38.2579 68.8465 34.3286L68.762 42.8209L59.1289 41.6802Z" fill="#F8FCFE"/>
<path d="M69.1844 43.2857L58.6641 42.0605L60.2907 27.5685L63.6496 19.7311L76.1135 20.1113L76.1346 20.4916C76.1557 20.9774 76.6839 32.2372 72.7123 34.7933C71.7195 35.4271 70.5576 35.4905 69.2478 34.9835L69.1844 43.2857ZM59.5936 41.3211L68.3394 42.3562L68.4239 33.6526L69.0366 33.9695C70.3252 34.6244 71.3815 34.6666 72.2687 34.0962C75.4375 32.026 75.3741 22.9421 75.3108 20.9352L64.1989 20.5972L61.1146 27.8009L59.5936 41.3211Z" fill="#193040"/>
<path d="M71.0646 25.9208C70.2407 25.9842 69.1211 26.5335 68.8888 28.9207C68.8888 28.9207 69.4803 30.5473 64.2835 30.9276C59.1289 31.2867 59.1711 26.8081 59.15 25.8575C59.1289 24.928 58.2628 13.5203 68.5719 14.5132C68.5719 14.5132 76.0502 15.8019 76.2615 20.5973C76.2615 20.5973 73.7898 22.9422 73.7053 24.3154L73.1561 27.9066L72.0364 28.2446L71.973 26.7448C71.9519 26.2589 71.5505 25.8786 71.0646 25.9208Z" fill="#193040"/>
<path d="M21.5049 146.567C21.5049 147.433 22.2231 148.151 23.0893 148.151H52.9181C53.7842 148.151 54.5025 147.433 54.5025 146.567C54.5025 145.701 53.7842 144.983 52.9181 144.983H23.0893C22.202 144.983 21.5049 145.68 21.5049 146.567Z" fill="#193040"/>
<path d="M53.8262 168.939C53.8262 169.805 54.5444 170.523 55.4106 170.523H66.2689C67.1351 170.523 67.8533 169.805 67.8533 168.939C67.8533 168.072 67.1351 167.354 66.2689 167.354H55.4106C54.5233 167.354 53.8262 168.072 53.8262 168.939Z" fill="#193040"/>
<path d="M64.6641 189.05C64.6641 189.916 65.3823 190.634 66.2485 190.634H77.1068C77.9729 190.634 78.6912 189.916 78.6912 189.05C78.6912 188.184 77.9729 187.465 77.1068 187.465H66.2485C65.3823 187.465 64.6641 188.184 64.6641 189.05Z" fill="#193040"/>
<path d="M56.7207 98.4013L57.2066 118.914L61.9175 156.728H73.7899L72.5224 118.66L76.4728 84.7755L57.946 82.832L56.7207 98.4013Z" fill="#F8FCFE"/>
<path d="M74.2127 157.151H61.5376L56.7632 118.914L56.2773 98.3802V98.3591L57.5449 82.3673L76.9378 84.3953L72.9452 118.682L74.2127 157.151ZM62.298 156.306H73.3465L72.1002 118.639V118.618L76.0084 85.1558L58.3265 83.3179L57.1224 98.4225L57.6082 118.893L62.298 156.306Z" fill="#193040"/>
<path d="M42.3977 56.1511L38.5529 66.7771L28.8353 89.6135L23.1948 91.1979L22.0752 95.4863C22.0752 95.4863 23.7863 95.0427 24.1666 93.7963H29.8915L31.2647 96.9017C31.2647 96.9017 32.7012 95.0216 32.4688 92.7612L46.2636 69.7135L50.1084 60.6719L42.3977 56.1511Z" fill="#F8FCFE"/>
<path d="M31.1594 97.7256L29.5961 94.2187H24.4415C23.85 95.444 22.2234 95.8665 22.16 95.8877L21.4629 96.0566L22.836 90.8387L28.5187 89.2543L38.1518 66.6292L42.1656 55.5385L50.6158 60.5029L46.6019 69.9459L32.8916 92.8878C33.0606 95.2116 31.6453 97.0918 31.603 97.1763L31.1594 97.7256ZM23.8501 93.3737H30.1454L31.3073 96.0144C31.6875 95.3173 32.1523 94.1343 32.0255 92.8245L32.0044 92.6766L45.8414 69.5234L49.5172 60.8409L42.5881 56.7637L38.9123 66.9249L29.1525 89.9515L23.5332 91.5147L22.667 94.768C23.0896 94.5356 23.5754 94.1765 23.7444 93.6484L23.8501 93.3737Z" fill="#193040"/>
<path d="M53.9959 81.3531L30.6524 94.5987C28.2864 95.9507 27.1668 98.7815 27.9907 101.38L36.0394 133.363L49.8764 133.617L43.391 105.584C43.391 105.584 76.4942 101.887 76.4942 83.8459L53.9959 81.3531Z" fill="#F8FCFE"/>
<path d="M50.4048 134.04L35.7016 133.786L27.5895 101.507C26.7234 98.7393 27.9275 95.6761 30.4625 94.2396L53.9327 80.9095L54.0594 80.9307L76.917 83.4446V83.8248C76.917 88.071 75.1213 91.8736 71.6145 95.148C68.826 97.7464 64.9601 99.9856 60.1013 101.866C52.982 104.591 45.7995 105.689 43.9193 105.943L50.4048 134.04ZM36.3565 132.941L49.3274 133.173L42.8631 105.204L43.3278 105.14C43.4123 105.14 51.6512 104.19 59.7844 101.063C67.0937 98.2534 75.7973 93.0566 76.0508 84.2051L54.0806 81.7968L30.8428 94.979C28.6458 96.2254 27.6106 98.866 28.3711 101.274V101.295L36.3565 132.941Z" fill="#193040"/>
<path d="M40.1377 56.3833C40.1377 56.3833 44.6585 61.1365 50.0877 62.2561L46.9189 84.6278C46.9189 84.6278 59.2772 91.0498 64.5585 89.1486C70.1989 87.1205 77.8885 88.0289 77.8885 88.0289L78.1209 55.0313L86.7189 58.2001L87.3949 46.4545L70.22 38.0889H56.6576L50.4257 39.8423C48.7779 40.307 47.4259 41.4478 46.6654 42.9899L40.1377 56.3833Z" fill="#2595DF"/>
<path d="M12.9072 195.155H16.076L34.3705 104.866H31.2228L12.9072 195.155Z" fill="#F8FCFE"/>
<path d="M16.4138 195.577H12.3789L30.8635 104.443H34.8984L16.4138 195.577ZM13.414 194.732H15.7167L33.8633 105.288H31.5606L13.414 194.732Z" fill="#193040"/>
<path d="M71.6776 194.923H77.3181L29.1736 92.4229H23.5332L71.6776 194.923Z" fill="#F8FCFE"/>
<path d="M77.9937 195.345H71.4026L71.297 195.113L22.8779 92.0004H29.469L29.5746 92.2328L77.9937 195.345ZM71.9307 194.5H76.6417L28.8986 92.8454H24.1877L71.9307 194.5Z" fill="#193040"/>
<path d="M201.725 182.628L202.147 190.634H210.492L210.069 182.628H201.725Z" fill="#F8FCFE"/>
<path d="M210.935 191.057H201.746L201.281 182.205H210.471L210.935 191.057ZM202.549 190.212H210.048L209.668 183.05H202.168L202.549 190.212Z" fill="#193040"/>
<path d="M210.703 188.247C210.703 188.247 206.161 191.69 202.359 188.247L191.057 194.141C190.55 194.394 190.74 195.155 191.31 195.155H211.274C211.907 195.155 212.372 194.564 212.203 193.951L210.703 188.247Z" fill="#193040"/>
<path d="M242.434 172.995L247.081 179.522L254.137 175.065L249.489 168.537L242.434 172.995Z" fill="#F8FCFE"/>
<path d="M246.975 180.114L241.842 172.889L249.595 167.967L254.728 175.192L246.975 180.114ZM243.046 173.121L247.208 178.952L253.545 174.938L249.384 169.108L243.046 173.121Z" fill="#193040"/>
<path d="M253.038 172.931C253.038 172.931 251.053 178.276 245.983 177.41L239.603 188.437C239.328 188.923 239.877 189.451 240.363 189.155L257.221 178.466C257.749 178.128 257.813 177.389 257.369 176.945L253.038 172.931Z" fill="#193040"/>
<path d="M205.19 62.9744C207.387 60.5027 204.873 56.4044 205.127 53.13C205.909 42.842 216.302 42.7152 216.302 42.7152C225.365 43.7081 225.745 51.6723 225.893 55.3481C226.147 62.5518 229.041 63.9672 231.111 66.3755C233.181 68.8049 235.04 75.1847 230.752 78.4169C221.076 85.684 205.148 83.6137 202.106 76.7269C200.247 72.5441 201.43 67.2205 205.19 62.9744Z" fill="#193040"/>
<path d="M220.189 68.4036L218.14 59.0662C218.14 59.0662 222.386 53.9328 218.288 53.6371C218.288 53.6371 210.218 53.0666 209.88 47.2572C209.88 47.2572 201.472 61.1365 211.634 62.0026L210.577 68.3824L220.189 68.4036Z" fill="#F8FCFE"/>
<path d="M220.717 68.8261L210.07 68.8049L211.147 62.3829C209.014 62.1082 207.556 61.221 206.796 59.7211C204.556 55.3481 209.331 47.3839 209.521 47.0459L210.218 45.884L210.302 47.2361C210.619 52.623 218.246 53.2145 218.33 53.2145C219.386 53.299 220.083 53.6793 220.358 54.3553C221.034 55.9185 219.175 58.4536 218.605 59.1718L220.717 68.8261ZM211.063 67.9599L219.661 67.9811L217.696 58.9606L217.823 58.7916C218.71 57.7142 219.978 55.6439 219.576 54.6933C219.429 54.3342 218.985 54.1229 218.267 54.0595C218.182 54.0595 211 53.4891 209.648 48.5247C208.443 50.8062 205.951 56.2354 207.535 59.3197C208.211 60.6295 209.605 61.39 211.676 61.5801L212.14 61.6223L211.063 67.9599Z" fill="#193040"/>
<path d="M197.374 79.5789L192.536 87.2051L184.466 77.0438L180.77 79.3465L189.663 94.1764C191.1 96.5636 194.438 96.9227 196.339 94.8736L207.662 82.6843L197.374 79.5789Z" fill="#F8FCFE"/>
<path d="M193.276 96.6269C193.107 96.6269 192.938 96.6269 192.79 96.6058C191.332 96.4579 190.065 95.6551 189.304 94.3876L180.199 79.1986L184.572 76.4734L192.515 86.4656L197.226 79.0718L208.444 82.473L196.656 95.1481C195.769 96.0988 194.543 96.6269 193.276 96.6269ZM181.34 79.4732L190.022 93.944C190.635 94.9791 191.67 95.634 192.874 95.7607C194.057 95.8875 195.219 95.4438 196.022 94.5777L206.88 82.8955L197.564 80.0647L192.579 87.9022L184.361 77.5719L181.34 79.4732Z" fill="#193040"/>
<path d="M217.168 127.829L211.591 143.229L212.225 184.656H199.824L197.458 140.462L202.486 104.591L218.773 100.725L217.168 127.829Z" fill="#193040"/>
<path d="M205.93 100.746L215.563 138.645L241.462 176.121L251.307 170.122L229.674 134.8C229.674 134.8 228.597 111.9 223.886 100.324L205.93 100.746Z" fill="#193040"/>
<path d="M210.999 65.4883L203.521 69.2697C202.591 69.7345 201.831 70.4738 201.324 71.3611L196 80.7196L203.626 83.487L199.127 112.217C199.127 112.217 204.894 113.823 211.59 112.914C215.351 112.386 228.195 109.598 228.195 109.598C228.195 109.598 229.948 72.1639 220.252 65.4883C220.231 65.4883 212.393 70.5795 210.999 65.4883Z" fill="#F8FCFE"/>
<path d="M207.281 113.633C202.634 113.633 199.19 112.682 199 112.64L198.641 112.534L203.141 83.7616L195.388 80.9308L200.965 71.1287C201.514 70.1569 202.338 69.3753 203.331 68.8683L211.274 64.8545L211.401 65.3615C211.654 66.2699 212.119 66.8403 212.837 67.1149C215.372 68.0866 219.956 65.1502 219.999 65.108L220.231 64.9601L220.463 65.1291C230.244 71.8681 228.66 108.077 228.597 109.619L228.576 109.936L228.259 109.999C228.132 110.02 215.351 112.809 211.633 113.316C210.112 113.548 208.633 113.633 207.281 113.633ZM199.592 111.922C200.944 112.238 205.929 113.274 211.527 112.513C214.907 112.048 225.766 109.703 227.773 109.281C227.899 105.626 228.892 72.5652 220.231 66.0164C219.196 66.6501 215.14 68.9317 212.563 67.9388C211.718 67.6219 211.126 67.0093 210.767 66.1009L203.732 69.6711C202.887 70.0936 202.19 70.7696 201.704 71.5935L196.613 80.5083L204.091 83.2335L199.592 111.922Z" fill="#193040"/>
<path d="M203.986 70.4105C203.542 70.4105 203.12 70.4527 202.697 70.5161V62.0872H170.059V94.7468H178.804C178.741 94.3243 178.699 93.9018 178.699 93.4582C178.699 89.043 182.29 85.4517 186.705 85.4517C191.12 85.4517 194.712 89.043 194.712 93.4582C194.712 93.9018 194.67 94.3243 194.606 94.7468H202.718V86.3178C203.141 86.3812 203.563 86.4234 204.007 86.4234C208.422 86.4234 212.013 82.8321 212.013 78.4169C211.992 74.0018 208.401 70.4105 203.986 70.4105Z" fill="#2595DF"/>
<path d="M215.626 81.4165L223.464 85.3458L217.38 96.8168C216.472 98.528 214.232 98.9927 212.711 97.7886L196.001 84.4374L192.769 83.7403L188.143 81.4376C188.143 81.4376 187.678 80.2757 188.607 80.2757C188.607 80.2757 187.678 78.8815 188.607 78.6703C188.607 78.6703 188.143 77.5083 189.537 77.0647C189.537 77.0647 188.354 75.6704 189.769 75.6704C190.002 75.6704 193.001 77.5084 193.001 77.5084L195.536 78.6703L194.142 76.3676C194.142 76.3676 192.748 75.9028 192.98 74.7621L195.515 75.4592C195.515 75.4592 197.586 77.5295 198.747 79.3885L199.212 80.5504L211.908 88.6202L215.626 81.4165Z" fill="#F8FCFE"/>
<path d="M214.633 98.8872C213.852 98.8872 213.07 98.6125 212.436 98.1055L195.811 84.8177L192.621 84.1417L187.804 81.7335L187.741 81.5856C187.677 81.4588 187.424 80.7406 187.762 80.2547C187.804 80.1913 187.889 80.1068 187.973 80.0435C187.804 79.6843 187.677 79.2196 187.825 78.8182C187.867 78.6914 187.952 78.5647 188.1 78.4379C188.079 78.2055 188.079 77.8886 188.227 77.5718C188.353 77.2971 188.565 77.0437 188.86 76.8747C188.67 76.5578 188.522 76.1141 188.691 75.755C188.797 75.5226 189.072 75.248 189.726 75.248C189.853 75.248 190.086 75.248 193.149 77.1493L194.437 77.7408L193.825 76.7267C193.212 76.4732 192.325 75.7972 192.536 74.6776L192.621 74.234L195.705 75.079L195.789 75.1635C195.874 75.248 197.923 77.2971 199.085 79.1561L199.127 79.2195L199.529 80.2547L211.718 88.0077L215.394 80.8885L223.992 85.198L217.696 97.0493C217.21 97.9788 216.323 98.6337 215.309 98.8449C215.098 98.866 214.866 98.8872 214.633 98.8872ZM192.916 83.3179L196.191 84.015L196.275 84.0783L212.985 97.4295C213.619 97.9365 214.422 98.1266 215.204 97.9576C215.985 97.7886 216.64 97.3027 217.02 96.5845L222.914 85.4937L215.837 81.9447L212.119 89.1484L198.916 80.7405L198.409 79.4942C197.416 77.9098 195.726 76.1564 195.325 75.755L193.487 75.248C193.698 75.6916 194.29 75.9029 194.311 75.9029L194.459 75.9451L196.613 79.5576L192.79 77.8253C191.501 77.0437 190.043 76.1775 189.726 76.0507C189.6 76.0507 189.536 76.0719 189.515 76.093C189.515 76.2197 189.684 76.5366 189.874 76.7479L190.276 77.2338L189.684 77.4239C189.346 77.5295 189.135 77.6985 189.029 77.9098C188.903 78.1844 189.008 78.4802 189.008 78.4802L189.198 78.9238L188.734 79.0505C188.712 79.0505 188.67 79.0717 188.649 79.0928C188.586 79.2407 188.776 79.7054 188.987 80.0223L189.431 80.6772H188.649C188.543 80.6772 188.522 80.6983 188.522 80.6983C188.48 80.7406 188.501 80.9307 188.543 81.0997L192.916 83.3179Z" fill="#193040"/>
<path d="M299.133 194.944H0V195.789H299.133V194.944Z" fill="#193040"/>
</svg>
