<svg width="322" height="196" viewBox="0 0 322 196" fill="none" xmlns="http://www.w3.org/2000/svg">
<path d="M15.6705 35.7704H13.3993V33.4993H12.4909V35.7704H10.2197V36.6789H12.4909V38.95H13.3993V36.6789H15.6705V35.7704Z" fill="#193040"/>
<path d="M214.169 28.7299C212.42 28.7299 210.989 27.2991 210.989 25.5503C210.989 23.8016 212.42 22.3707 214.169 22.3707C215.918 22.3707 217.348 23.8016 217.348 25.5503C217.348 27.2991 215.918 28.7299 214.169 28.7299ZM214.169 23.2792C212.92 23.2792 211.898 24.3012 211.898 25.5503C211.898 26.7995 212.92 27.8215 214.169 27.8215C215.418 27.8215 216.44 26.7995 216.44 25.5503C216.44 24.3012 215.418 23.2792 214.169 23.2792Z" fill="#193040"/>
<path d="M23.8476 21.6894C22.0988 21.6894 20.668 20.2586 20.668 18.5098C20.668 16.761 22.0988 15.3302 23.8476 15.3302C25.5964 15.3302 27.0272 16.761 27.0272 18.5098C27.0272 20.2586 25.5964 21.6894 23.8476 21.6894ZM23.8476 16.2387C22.5984 16.2387 21.5764 17.2607 21.5764 18.5098C21.5764 19.7589 22.5984 20.781 23.8476 20.781C25.0967 20.781 26.1187 19.7589 26.1187 18.5098C26.1187 17.2607 25.0967 16.2387 23.8476 16.2387Z" fill="#193040"/>
<path d="M2.88439 142.265C2.63457 142.265 2.4983 142.242 2.47559 142.242L2.58914 141.333C2.74812 141.356 6.42738 141.719 7.38126 137.745C8.53955 132.907 13.1727 133.952 13.2181 133.975L13.0137 134.861L13.1273 134.429L13.0137 134.861C12.8547 134.815 9.19818 134.02 8.26701 137.972C7.33584 141.901 4.04268 142.265 2.88439 142.265Z" fill="#193040"/>
<path d="M278.147 46.4221C277.897 46.4221 277.761 46.3994 277.738 46.3994L277.852 45.4909C278.011 45.5137 281.69 45.8771 282.644 41.9026C283.802 37.065 288.435 38.1097 288.481 38.1325L288.276 39.0182L288.39 38.5867L288.276 39.0182C288.117 38.9728 284.461 38.1779 283.53 42.1297C282.599 46.0588 279.305 46.4221 278.147 46.4221Z" fill="#193040"/>
<path d="M280.966 168.875C281.339 167.288 280.354 165.698 278.767 165.326C277.179 164.953 275.59 165.937 275.217 167.525C274.844 169.112 275.829 170.701 277.416 171.074C279.004 171.447 280.593 170.462 280.966 168.875Z" fill="#193040"/>
<path d="M287.004 195.5C278.647 190.004 276.784 174.946 276.693 174.31L277.829 174.174C277.852 174.333 279.714 189.345 287.618 194.546L287.004 195.5Z" fill="#193040"/>
<path d="M273.423 167.929C273.423 167.929 278.42 166.657 282.531 169.11C282.531 169.11 282.213 175.9 277.58 175.31C272.31 174.651 273.423 167.929 273.423 167.929Z" fill="#2595DF"/>
<path d="M282.667 190.05C282.667 190.05 280.963 185.78 282.008 182.918C283.053 180.056 285.119 179.58 285.801 179.943C286.482 180.306 287.686 180.965 286.505 183.599C285.301 186.234 282.667 190.05 282.667 190.05Z" fill="#193040"/>
<path d="M294.363 172.653C294.363 172.653 295.84 169.564 294.363 165.567C292.887 161.569 291.865 149.214 300.7 149.805C309.535 150.395 310.125 162.183 309.239 168.224C308.354 174.265 309.671 178.398 311.147 181.782C312.623 185.166 317.347 187.687 316.598 195.205H286.664C286.71 195.205 285.233 183.259 294.363 172.653Z" fill="#F8FCFE"/>
<path d="M317.052 195.659H286.324L286.278 195.251C286.255 195.137 284.893 183.032 294 172.403C294.182 171.994 295.249 169.2 293.955 165.726C292.864 162.773 292.001 155.664 294.886 151.803C296.226 149.986 298.202 149.169 300.745 149.328C303.266 149.487 305.333 150.554 306.877 152.462C310.102 156.437 310.42 163.477 309.716 168.269C308.853 174.174 310.102 178.149 311.601 181.578C312.01 182.532 312.737 183.441 313.487 184.417C315.326 186.802 317.643 189.754 317.098 195.228L317.052 195.659ZM287.118 194.751H316.212C316.575 189.913 314.531 187.301 312.76 185.008C311.965 183.986 311.215 183.032 310.761 181.987C309.285 178.603 307.922 174.333 308.808 168.178C309.489 163.545 309.194 156.823 306.173 153.075C304.788 151.372 302.948 150.418 300.677 150.282C298.451 150.146 296.748 150.85 295.613 152.394C292.978 155.914 293.796 162.75 294.795 165.453C296.317 169.564 294.84 172.743 294.772 172.88L294.75 172.925L294.704 172.971C286.755 182.214 286.982 192.616 287.118 194.751Z" fill="#193040"/>
<path d="M300.791 149.737C300.791 149.737 306.537 164.181 300.791 195.137V149.737Z" fill="#F8FCFE"/>
<path d="M301.223 195.205L300.337 195.046C305.992 164.567 300.428 150.032 300.36 149.896L301.2 149.555C301.268 149.714 302.676 153.302 303.38 160.774C304.062 167.633 304.221 179.171 301.223 195.205Z" fill="#193040"/>
<path d="M308.197 156.317L302.779 162.531L303.464 163.128L308.881 156.914L308.197 156.317Z" fill="#193040"/>
<path d="M309.083 160.428L303.026 167.32L303.709 167.92L309.765 161.027L309.083 160.428Z" fill="#193040"/>
<path d="M293.599 173.841L292.886 174.404L301.944 185.888L302.657 185.326L293.599 173.841Z" fill="#193040"/>
<path d="M291.733 176.503L291.026 177.074L301.37 189.886L302.077 189.315L291.733 176.503Z" fill="#193040"/>
<path d="M92.7764 1.79431H167.27L176.241 102.701H101.747L92.7764 1.79431Z" fill="#F8FCFE"/>
<path d="M176.74 103.156H101.338L92.2764 1.33997H167.678L176.74 103.156ZM102.156 102.247H175.741L166.838 2.24842H93.253L102.156 102.247Z" fill="#193040"/>
<path d="M158.185 15.2167H106.403L109.606 67.2259H162.75L158.185 15.2167ZM108.902 52.418H116.873L117.464 59.4586H109.333L108.902 52.418ZM159.253 30.0472H152.212L151.576 22.3481H158.594L159.253 30.0472ZM130.523 37.4739H137.7L138.381 44.4464H131.091L130.523 37.4739ZM130.864 44.4464H123.982L123.301 37.4739H130.273L130.864 44.4464ZM130.5 37.2468L129.932 30.2743H136.973L137.677 37.2468H130.5ZM137.904 37.4739H145.217L145.808 44.4464H138.608L137.904 37.4739ZM138.404 44.6735L139.153 52.1909H131.727L131.091 44.6735H138.404ZM138.631 44.6735H145.83L146.466 52.1909H139.358L138.631 44.6735ZM146.058 44.6735H153.166L153.779 52.1909H146.693L146.058 44.6735ZM146.035 44.4464L145.444 37.4739H152.576L153.144 44.4464H146.035ZM145.422 37.2468L144.831 30.2743H151.985L152.553 37.2468H145.422ZM145.194 37.2468H137.881L137.177 30.2743H144.581L145.194 37.2468ZM137.177 30.0472L136.405 22.3481H143.923L144.581 30.0472H137.177ZM136.95 30.0472H129.91L129.274 22.3481H136.201L136.95 30.0472ZM129.66 30.0472H122.574L121.824 22.3481H129.001L129.66 30.0472ZM129.683 30.2743L130.25 37.2468H123.255L122.574 30.2743H129.683ZM123.051 37.2468H115.829L115.238 30.2743H122.369L123.051 37.2468ZM123.074 37.4739L123.755 44.4464H116.442L115.851 37.4739H123.074ZM123.778 44.6735L124.504 52.1909H117.1L116.464 44.6735H123.778ZM124.005 44.6735H130.886L131.522 52.1909H124.731L124.005 44.6735ZM131.522 52.418L132.113 59.4586H125.436L124.754 52.418H131.522ZM131.749 52.418H139.153L139.857 59.4586H132.34L131.749 52.418ZM139.403 52.418H146.489L147.102 59.4586H140.107L139.403 52.418ZM146.716 52.418H153.802L154.393 59.4586H147.329L146.716 52.418ZM154.052 52.418H161.229L161.842 59.4586H154.642L154.052 52.418ZM154.029 52.1909L153.416 44.6735H160.547L161.206 52.1909H154.029ZM153.393 44.4464L152.826 37.4739H159.912L160.525 44.4464H153.393ZM152.803 37.2468L152.235 30.2743H159.276L159.889 37.2468H152.803ZM151.963 30.0472H144.808L144.15 22.3481H151.327L151.963 30.0472ZM144.127 22.1437L143.559 15.4438H150.759L151.304 22.1437H144.127ZM143.9 22.1437H136.382L135.724 15.4438H143.332L143.9 22.1437ZM136.155 22.1437H129.228L128.683 15.4438H135.497L136.155 22.1437ZM129.001 22.1437H121.802L121.166 15.4438H128.433L129.001 22.1437ZM121.597 22.1437H114.579L114.012 15.4438H120.939L121.597 22.1437ZM121.62 22.3708L122.369 30.07H115.261L114.625 22.3708H121.62ZM115.011 30.0472H107.539L107.062 22.3481H114.375L115.011 30.0472ZM115.034 30.2743L115.624 37.2468H107.993L107.562 30.2743H115.034ZM115.624 37.4739L116.215 44.4464H108.425L107.993 37.4739H115.624ZM116.237 44.6735L116.873 52.1909H108.902L108.447 44.6735H116.237ZM117.1 52.418H124.504L125.186 59.4586H117.668L117.1 52.418ZM125.208 59.6857L125.912 66.9988H118.327L117.714 59.6857H125.208ZM125.436 59.6857H132.113L132.726 66.9988H126.14L125.436 59.6857ZM132.363 59.6857H139.903L140.63 66.9988H132.976L132.363 59.6857ZM140.13 59.6857H147.125L147.761 66.9988H140.857L140.13 59.6857ZM147.352 59.6857H154.415L155.029 66.9988H147.988L147.352 59.6857ZM154.642 59.6857H161.842L162.478 66.9988H155.233L154.642 59.6857ZM158.549 22.1437H151.531L150.986 15.4438H157.958L158.549 22.1437ZM113.785 15.4438L114.352 22.1437H107.039L106.63 15.4438H113.785ZM109.356 59.6857H117.487L118.1 66.9988H109.81L109.356 59.6857Z" fill="#193040"/>
<path d="M110.536 103.337H106.812L92.7305 194.978H96.5233L110.536 103.337Z" fill="#193040"/>
<path d="M145.285 103.337H141.561L127.479 194.978H131.272L145.285 103.337Z" fill="#193040"/>
<path d="M162.228 103.337H165.952L180.033 194.978H176.241L162.228 103.337Z" fill="white"/>
<path d="M180.556 195.432H175.854L161.705 102.883H166.338L180.556 195.432ZM176.627 194.524H179.488L165.566 103.792H162.773L176.627 194.524Z" fill="#193040"/>
<path d="M123.392 103.337H127.116L141.197 194.978H137.405L123.392 103.337Z" fill="white"/>
<path d="M141.72 195.432H137.018L122.869 102.883H127.502L141.72 195.432ZM137.791 194.524H140.652L126.73 103.792H123.937L137.791 194.524Z" fill="#193040"/>
<path d="M171.812 104.927L171.358 100.612H106.403L106.858 104.927H171.812Z" fill="#193040"/>
<path d="M110.31 54.4848L109.765 54.076L116.919 45.0823H122.846L129.751 38.178L137.382 42.902L145.081 27.9806L153.234 30.6832L158.549 18.7142L159.185 18.9868L153.598 31.5462L145.399 28.7981L137.654 43.8559L129.842 39.041L123.119 45.7636H117.237L110.31 54.4848Z" fill="#193040"/>
<path d="M130.363 72.6768H111.513V73.8123H130.363V72.6768Z" fill="#2595DF"/>
<path d="M130.817 76.6512H111.967V77.7868H130.817V76.6512Z" fill="#2595DF"/>
<path d="M131.272 80.2852H112.422V81.4207H131.272V80.2852Z" fill="#2595DF"/>
<path d="M131.499 84.373H112.648V85.5086H131.499V84.373Z" fill="#2595DF"/>
<path d="M131.953 88.007H113.103V89.1425H131.953V88.007Z" fill="#2595DF"/>
<path d="M162.932 72.6768H134.225V73.8123H162.932V72.6768Z" fill="#2595DF"/>
<path d="M163.613 76.6512H134.679V77.7868H163.613V76.6512Z" fill="#2595DF"/>
<path d="M164.294 80.2852H135.133V81.4207H164.294V80.2852Z" fill="#2595DF"/>
<path d="M164.658 84.373H135.724V85.5086H164.658V84.373Z" fill="#2595DF"/>
<path d="M165.339 88.007H135.95V89.1425H165.339V88.007Z" fill="#2595DF"/>
<path d="M145.012 5.67787L144.558 0H116.396L116.85 5.67787H145.012Z" fill="#193040"/>
<path d="M145.466 29.8655C146.282 29.8655 146.943 29.2045 146.943 28.3892C146.943 27.5739 146.282 26.913 145.466 26.913C144.651 26.913 143.99 27.5739 143.99 28.3892C143.99 29.2045 144.651 29.8655 145.466 29.8655Z" fill="#2595DF"/>
<path d="M137.745 45.0824C138.56 45.0824 139.221 44.4214 139.221 43.6061C139.221 42.7908 138.56 42.1299 137.745 42.1299C136.929 42.1299 136.269 42.7908 136.269 43.6061C136.269 44.4214 136.929 45.0824 137.745 45.0824Z" fill="#2595DF"/>
<path d="M122.982 47.1263C123.797 47.1263 124.458 46.4654 124.458 45.6501C124.458 44.8348 123.797 44.1738 122.982 44.1738C122.167 44.1738 121.506 44.8348 121.506 45.6501C121.506 46.4654 122.167 47.1263 122.982 47.1263Z" fill="#2595DF"/>
<path d="M129.796 40.3128C130.611 40.3128 131.272 39.6519 131.272 38.8366C131.272 38.0213 130.611 37.3604 129.796 37.3604C128.98 37.3604 128.319 38.0213 128.319 38.8366C128.319 39.6519 128.98 40.3128 129.796 40.3128Z" fill="#2595DF"/>
<path d="M117.077 47.1263C117.892 47.1263 118.553 46.4654 118.553 45.6501C118.553 44.8348 117.892 44.1738 117.077 44.1738C116.262 44.1738 115.601 44.8348 115.601 45.6501C115.601 46.4654 116.262 47.1263 117.077 47.1263Z" fill="#2595DF"/>
<path d="M153.416 32.3639C154.231 32.3639 154.892 31.7029 154.892 30.8876C154.892 30.0723 154.231 29.4114 153.416 29.4114C152.6 29.4114 151.939 30.0723 151.939 30.8876C151.939 31.7029 152.6 32.3639 153.416 32.3639Z" fill="#2595DF"/>
<path d="M86.2791 166.006C86.8418 164.637 86.1882 163.071 84.8192 162.509C83.4503 161.946 81.8844 162.6 81.3217 163.968C80.7589 165.337 81.4124 166.903 82.7814 167.466C84.1503 168.029 85.7163 167.375 86.2791 166.006Z" fill="#193040"/>
<path d="M83.0565 175.605C83.0565 175.605 77.4241 173.811 77.1061 172.153C76.7654 170.495 79.6044 170.313 81.8982 173.561C82.2162 174.015 83.0565 175.605 83.0565 175.605Z" fill="#193040"/>
<path d="M83.6012 179.08C83.6012 179.08 77.7189 178.49 77.0603 176.923C76.4016 175.355 79.127 174.606 82.0341 177.286C82.4656 177.672 83.6012 179.08 83.6012 179.08Z" fill="#193040"/>
<path d="M93.4582 196C87.0081 191.253 84.0783 184.599 82.7611 179.852C81.3302 174.719 81.4211 170.745 81.4211 170.586L82.5566 170.609C82.5566 170.768 82.2841 186.393 94.1168 195.092L93.4582 196Z" fill="#193040"/>
<path d="M79.6948 164.045C79.6948 164.045 84.169 163.432 87.712 166.407C87.712 166.407 86.4628 172.448 82.3747 171.267C77.7189 169.905 79.6948 164.045 79.6948 164.045Z" fill="#2595DF"/>
<path d="M141.651 194.887C141.651 194.887 143.15 188.096 139.38 181.487C139.38 181.487 137.313 175.06 140.697 169.223C144.081 163.386 140.697 156.755 136.723 155.823C132.748 154.87 128.047 158.095 126.911 162.614C125.776 167.134 126.73 170.359 119.916 173.743C113.125 177.149 113.398 194.887 113.398 194.887H141.651Z" fill="#F8FCFE"/>
<path d="M142.015 195.341H112.967V194.887C112.944 194.16 112.762 176.809 119.735 173.334C125.004 170.699 125.413 168.315 125.98 165.022C126.117 164.227 126.253 163.386 126.48 162.501C127.661 157.754 132.612 154.37 136.836 155.369C138.812 155.846 140.675 157.618 141.697 160.002C143.014 163.068 142.787 166.498 141.083 169.428C137.972 174.788 139.63 180.738 139.789 181.283C143.582 187.96 142.151 194.683 142.083 194.955L142.015 195.341ZM113.875 194.433H141.265C141.492 192.979 142.151 187.233 138.994 181.715L138.949 181.624C138.858 181.351 136.859 174.947 140.311 168.996C141.878 166.316 142.083 163.182 140.879 160.388C139.971 158.254 138.335 156.686 136.632 156.278C132.862 155.369 128.433 158.458 127.366 162.75C127.161 163.613 127.002 164.431 126.866 165.203C126.298 168.496 125.821 171.335 120.143 174.174C114.261 177.081 113.898 191.685 113.875 194.433Z" fill="#193040"/>
<path d="M127.343 195.16L126.525 194.774C132.09 182.6 136.269 155.801 136.314 155.528L137.222 155.664C137.132 155.96 132.953 182.896 127.343 195.16Z" fill="#193040"/>
<path d="M156.574 173.629C158.204 173.629 159.526 172.307 159.526 170.677C159.526 169.046 158.204 167.724 156.574 167.724C154.943 167.724 153.621 169.046 153.621 170.677C153.621 172.307 154.943 173.629 156.574 173.629Z" fill="#193040"/>
<path d="M141.652 195.228L141.266 194.16C150.169 190.89 155.415 176.718 155.46 176.559L156.528 176.945C156.301 177.558 151.032 191.776 141.652 195.228Z" fill="#193040"/>
<path d="M129.305 158.645L128.454 158.963L133.28 171.9L134.131 171.583L129.305 158.645Z" fill="#193040"/>
<path d="M126.874 164.956L126.029 165.291L131.611 179.398L132.456 179.064L126.874 164.956Z" fill="#193040"/>
<path d="M161.161 171.472C161.161 171.472 156.574 169.087 152.031 170.518C152.031 170.518 150.782 177.195 155.438 177.695C160.707 178.262 161.161 171.472 161.161 171.472Z" fill="#2595DF"/>
<path d="M168.361 171.267C169.841 171.267 171.041 170.067 171.041 168.587C171.041 167.107 169.841 165.907 168.361 165.907C166.881 165.907 165.681 167.107 165.681 168.587C165.681 170.067 166.881 171.267 168.361 171.267Z" fill="#193040"/>
<path d="M147.125 190.913C147.125 190.913 149.759 187.143 149.396 184.122C149.01 181.101 147.125 180.147 146.375 180.352C145.626 180.533 144.309 180.92 144.876 183.758C145.444 186.597 147.125 190.913 147.125 190.913Z" fill="#193040"/>
<path d="M140.541 184.347L126.537 194.631L127.075 195.363L141.078 185.079L140.541 184.347Z" fill="#193040"/>
<path d="M141.58 188.614L133.314 194.548L133.844 195.286L142.11 189.352L141.58 188.614Z" fill="#193040"/>
<path d="M102.088 166.089C102.088 166.089 103.973 162.115 102.088 157.027C100.203 151.94 98.8861 136.064 110.196 136.837C121.529 137.586 122.279 152.689 121.143 160.434C120.008 168.178 121.711 173.448 123.596 177.808C125.481 182.146 131.522 185.348 130.591 194.978H92.277C92.277 194.978 90.392 179.693 102.088 166.089Z" fill="#F8FCFE"/>
<path d="M131.022 195.432H91.8906L91.8452 195.024C91.8225 194.865 91.3682 191.072 92.3675 185.553C93.276 180.465 95.638 172.925 101.725 165.862C101.929 165.385 103.36 161.751 101.679 157.209C100.339 153.575 99.2491 144.331 102.86 139.517C104.564 137.245 107.039 136.201 110.264 136.405C113.466 136.61 116.078 137.95 118.031 140.38C122.12 145.444 122.528 154.393 121.643 160.525C120.53 168.11 122.142 173.243 124.073 177.649C124.618 178.876 125.526 180.057 126.503 181.306C128.865 184.326 131.795 188.096 131.113 195.046L131.022 195.432ZM92.7082 194.524H130.205C130.704 188.187 128.07 184.826 125.753 181.828C124.754 180.534 123.8 179.307 123.21 177.967C121.347 173.652 119.576 168.201 120.734 160.343C121.597 154.393 121.234 145.74 117.327 140.902C115.533 138.699 113.149 137.473 110.219 137.268C107.334 137.087 105.109 137.995 103.61 140.016C100.203 144.581 101.27 153.371 102.565 156.868C104.495 162.092 102.633 166.112 102.542 166.271L102.52 166.316L102.474 166.362C92.0496 178.467 92.5038 192.048 92.7082 194.524Z" fill="#193040"/>
<path d="M164.999 178.739C164.999 178.739 170.881 179.216 171.835 177.808C172.766 176.4 170.223 175.151 166.861 177.286C166.384 177.581 164.999 178.739 164.999 178.739Z" fill="#193040"/>
<path d="M163.183 181.737C163.183 181.737 168.838 183.418 170.064 182.237C171.268 181.056 169.042 179.307 165.318 180.693C164.772 180.874 163.183 181.737 163.183 181.737Z" fill="#193040"/>
<path d="M150.441 195.796L149.737 194.887C160.275 186.757 167.293 174.333 167.361 174.22L168.361 174.765C168.315 174.901 161.184 187.506 150.441 195.796Z" fill="#193040"/>
<path d="M110.764 194.955L109.878 194.796C113.671 174.401 113.466 159.753 112.649 151.054C111.74 141.629 109.923 136.95 109.923 136.905L110.764 136.564C110.832 136.746 112.649 141.356 113.557 150.895C114.375 159.684 114.579 174.447 110.764 194.955Z" fill="#193040"/>
<path d="M119.892 145.281L112.952 153.242L113.637 153.839L120.576 145.878L119.892 145.281Z" fill="#193040"/>
<path d="M172.517 169.314C172.517 169.314 168.61 167.043 164.204 168.451C164.204 168.451 163.069 174.515 167.293 174.969C172.108 175.492 172.517 169.314 172.517 169.314Z" fill="#2595DF"/>
<path d="M121.026 150.573L113.275 159.393L113.958 159.993L121.709 151.173L121.026 150.573Z" fill="#193040"/>
<path d="M100.969 167.574L100.256 168.137L111.846 182.829L112.559 182.267L100.969 167.574Z" fill="#193040"/>
<path d="M98.6278 171.1L97.9209 171.671L111.175 188.088L111.882 187.517L98.6278 171.1Z" fill="#193040"/>
<path d="M266.315 150.804H260.183V190.549H266.315V150.804Z" fill="#F8FCFE"/>
<path d="M266.769 191.004H259.729V150.35H266.769V191.004ZM260.637 190.095H265.861V151.258H260.637V190.095Z" fill="#193040"/>
<path d="M271.083 144.672H255.64V153.075H271.083V144.672Z" fill="#193040"/>
<path d="M274.604 188.392H251.893V195.205H274.604V188.392Z" fill="#193040"/>
<path d="M239.242 147.171H284.279C286.255 147.171 287.981 145.808 288.435 143.9L301.812 88.6204C302.471 85.9405 300.427 83.3513 297.679 83.3513H266.087C264.202 83.3513 262.522 84.6004 261.999 86.4174L247.464 136.042H234.973V142.901C234.973 145.263 236.88 147.171 239.242 147.171Z" fill="#F8FCFE"/>
<path d="M284.302 147.625H239.265C236.653 147.625 234.541 145.513 234.541 142.901V135.588H247.146L261.59 86.281C262.181 84.2824 264.043 82.897 266.11 82.897H297.702C299.155 82.897 300.518 83.5556 301.404 84.6912C302.289 85.8267 302.63 87.303 302.289 88.7111L288.912 143.991C288.367 146.126 286.482 147.625 284.302 147.625ZM235.427 136.496V142.901C235.427 145.013 237.153 146.716 239.242 146.716H284.279C286.051 146.716 287.572 145.513 288.004 143.786L301.381 88.5068C301.653 87.3712 301.404 86.1901 300.677 85.2589C299.95 84.3278 298.86 83.8054 297.679 83.8054H266.087C264.407 83.8054 262.908 84.941 262.431 86.5308L247.782 136.496H235.427Z" fill="#193040"/>
<path d="M242.717 72.7448C242.717 72.7448 255.141 71.2232 249.69 62.502C249.69 62.502 252.302 55.3024 244.466 55.5295C244.466 55.5295 243.376 50.0788 239.243 53.5763C239.243 53.5763 233.36 50.7374 232.702 55.7566C232.702 55.7566 232.043 58.5956 235.541 60.3217L242.717 72.7448Z" fill="#193040"/>
<path d="M245.783 83.2603L242.944 71.2232C242.944 71.2232 248.168 67.9528 244.466 65.7725C244.466 65.7725 243.149 65.7724 242.513 66.6355C242.513 66.6355 243.376 61.6162 239.901 61.4118C236.403 61.1847 234.882 59.0044 234.882 59.0044C234.882 59.0044 227.046 71.4276 231.18 73.6079C235.313 75.7882 235.54 74.6981 235.54 74.6981L234.45 83.6918L245.783 83.2603Z" fill="#F8FCFE"/>
<path d="M233.928 84.1915L234.996 75.4475C234.155 75.493 232.838 75.016 230.976 74.0394C230.317 73.6987 229.886 73.1309 229.658 72.336C228.568 68.248 234.246 59.1861 234.496 58.8L234.859 58.2322L235.245 58.8C235.314 58.8908 236.699 60.7986 239.924 61.003C240.878 61.0712 241.627 61.4345 242.15 62.1159C242.967 63.1606 243.081 64.6596 243.058 65.6816C243.739 65.3636 244.421 65.3409 244.466 65.3409H244.58L244.693 65.409C245.715 65.9995 246.238 66.749 246.238 67.6347C246.26 69.3608 244.239 70.9279 243.444 71.4503L246.329 83.7145L233.928 84.1915ZM235.155 74.4936C235.155 74.4936 235.109 74.5163 235.086 74.6299L235.972 74.7662L234.95 83.2375L245.193 82.8514L242.422 71.0414L242.695 70.8598C243.444 70.4055 245.352 68.9065 245.329 67.6347C245.329 67.1123 244.989 66.6809 244.33 66.2494C244.035 66.2721 243.263 66.3857 242.854 66.9307L241.718 68.4296L242.036 66.5673C242.036 66.5446 242.468 63.9782 241.423 62.6382C241.037 62.1612 240.537 61.9114 239.856 61.866C237.221 61.707 235.654 60.4807 234.927 59.7766C233.746 61.7525 229.658 68.8839 230.521 72.0862C230.658 72.6312 230.953 72.9946 231.385 73.2217C234.519 74.8797 235.155 74.4936 235.155 74.4936Z" fill="#193040"/>
<path d="M211.83 182.146L210.922 190.64H219.779L220.688 182.146H211.83Z" fill="#F8FCFE"/>
<path d="M220.188 191.094H210.422L211.421 181.692H221.187L220.188 191.094ZM211.421 190.186H219.37L220.188 182.6H212.239L211.421 190.186Z" fill="#193040"/>
<path d="M220.006 187.869C220.006 187.869 215.191 191.526 211.149 187.869L199.157 194.115C198.635 194.388 198.816 195.182 199.429 195.182H220.619C221.278 195.182 221.778 194.546 221.596 193.911L220.006 187.869Z" fill="#193040"/>
<path d="M191.753 141.879L186.007 148.192L193.138 153.439L198.884 147.125L191.753 141.879Z" fill="#F8FCFE"/>
<path d="M193.183 154.052L185.325 148.26L191.707 141.288L199.565 147.08L193.183 154.052ZM186.688 148.124L193.092 152.825L198.225 147.193L191.821 142.492L186.688 148.124Z" fill="#193040"/>
<path d="M194.955 151.326C194.955 151.326 188.914 151.417 187.824 146.08L174.47 144.013C173.879 143.923 173.561 144.672 174.038 145.035L191.094 157.572C191.639 157.958 192.389 157.754 192.639 157.118L194.955 151.326Z" fill="#193040"/>
<path d="M207.401 183.123C207.628 182.668 218.689 123.505 218.689 123.505L262.681 137.836L231.339 139.221L223.299 183.191L207.401 183.123Z" fill="#193040"/>
<path d="M264.498 105.381C264.498 105.381 276.989 123.096 273.809 130.591C270.63 138.086 264.952 138.313 260.182 137.404L219.415 128.206L201.019 155.687L190.345 142.742L214.078 111.968H244.966L244.284 106.971L264.498 105.381Z" fill="#193040"/>
<path d="M255.912 78.8087L267.45 97.4321L259.728 100.157L269.04 114.011C269.04 114.011 230.43 114.239 230.203 114.011C229.999 113.807 227.092 92.6627 228.886 83.2601C229.204 81.5568 230.43 80.1714 232.065 79.6036L234.995 78.5816C234.995 78.5816 232.701 82.6696 237.017 82.6696C240.06 82.6696 242.013 80.6256 244.057 79.2629C246.169 77.8548 251.961 77.0371 253.55 77.287C254.504 77.4232 255.367 77.9683 255.912 78.8087Z" fill="#F8FCFE"/>
<path d="M240.378 114.557C238.879 114.557 237.539 114.557 236.381 114.557C230.113 114.534 230.09 114.511 229.908 114.329C229.795 114.216 229.704 114.125 229.227 110.491C229.045 108.97 228.659 105.858 228.364 102.111C227.887 96.2057 227.501 88.1432 228.455 83.1693C228.795 81.3297 230.135 79.7853 231.93 79.1721L235.995 77.7639L235.404 78.8087C235.132 79.2856 234.564 80.671 235.041 81.4886C235.336 81.9883 235.995 82.2154 237.04 82.2154C239.311 82.2154 240.946 80.989 242.536 79.808C242.967 79.49 243.399 79.172 243.83 78.8768C246.033 77.4005 251.916 76.5603 253.642 76.8101C254.755 76.9691 255.731 77.6049 256.322 78.5361L268.154 97.6365L260.455 100.362L269.903 114.443H269.063C268.972 114.443 259.297 114.511 249.735 114.534C246.124 114.557 242.99 114.557 240.378 114.557ZM230.567 113.603C233.474 113.739 257.684 113.625 268.2 113.58L259.024 99.9531L266.769 97.2277L255.527 79.0813C255.073 78.3545 254.323 77.8775 253.483 77.7639C251.893 77.5368 246.238 78.3771 244.307 79.6717C243.899 79.9442 243.49 80.2622 243.058 80.5801C241.423 81.7839 239.583 83.1693 237.017 83.1693C235.632 83.1693 234.7 82.7605 234.223 81.9883C233.747 81.1707 233.928 80.1487 234.155 79.3992L232.202 80.0806C230.726 80.6029 229.613 81.8748 229.34 83.3965C227.66 92.0268 230.045 110.991 230.567 113.603Z" fill="#193040"/>
<path d="M265.883 94.8884L273.083 105.699C274.173 107.312 272.992 109.492 271.061 109.492H250.167C250.167 109.492 247.668 108.356 248.123 105.858C248.123 105.858 245.852 106.539 244.716 106.312C243.58 106.085 241.536 105.177 241.991 103.814C242.354 102.724 245.397 101.543 245.397 101.543L247.714 100.771C248.509 100.68 249.304 101.066 249.712 101.77L252.438 106.085L262.658 105.177L259.024 99.0447L265.883 94.8884Z" fill="#F8FCFE"/>
<path d="M271.062 109.924H250.076L249.985 109.878C249.122 109.492 247.624 108.288 247.624 106.449C246.829 106.653 245.489 106.903 244.626 106.744C243.808 106.585 242.286 106.04 241.696 105.018C241.446 104.586 241.401 104.109 241.56 103.655C241.968 102.406 244.694 101.316 245.239 101.112L247.669 100.317C248.646 100.203 249.599 100.68 250.122 101.543L252.688 105.608L261.909 104.791L258.411 98.8857L266.02 94.2981L273.469 105.449C274.06 106.358 274.128 107.471 273.605 108.425C273.106 109.356 272.152 109.924 271.062 109.924ZM250.281 109.015H271.062C271.811 109.015 272.447 108.629 272.81 107.97C273.151 107.312 273.128 106.562 272.72 105.926L265.747 95.479L259.661 99.1583L263.431 105.518L252.211 106.517L249.327 101.975C249.009 101.429 248.418 101.134 247.805 101.18L245.557 101.929C244.376 102.383 242.627 103.292 242.423 103.905C242.354 104.132 242.377 104.314 242.491 104.518C242.831 105.131 243.944 105.631 244.807 105.813C245.648 105.972 247.396 105.54 247.987 105.359L248.691 105.154L248.555 105.881C248.237 107.811 249.895 108.811 250.281 109.015Z" fill="#193040"/>
<path d="M198.589 86.1445H228.477C229.227 86.1445 229.885 86.5988 230.135 87.3028L238.402 109.923H204.766L196.931 88.5066C196.499 87.3483 197.363 86.1445 198.589 86.1445Z" fill="#193040"/>
<path d="M254.05 107.607H233.428V109.923H254.05V107.607Z" fill="#193040"/>
<path d="M196.635 86.1445H226.524C227.273 86.1445 227.932 86.5988 228.182 87.3028L236.449 109.923H202.813L194.978 88.5066C194.569 87.3483 195.409 86.1445 196.635 86.1445Z" fill="#2595DF"/>
<path d="M215.588 100.559C216.628 100.06 216.939 98.5456 216.282 97.1773C215.625 95.8091 214.249 95.1048 213.209 95.6042C212.169 96.1037 211.858 97.6177 212.515 98.986C213.171 100.354 214.547 101.059 215.588 100.559Z" fill="#193040"/>
<path d="M228.704 113.217H222.595V194.751H228.704V113.217Z" fill="#F8FCFE"/>
<path d="M229.158 195.205H222.141V112.763H229.158V195.205ZM223.049 194.297H228.25V113.671H223.049V194.297Z" fill="#193040"/>
<path d="M286.755 109.469H165.021V115.374H286.755V109.469Z" fill="#F8FCFE"/>
<path d="M287.209 115.829H164.567V109.015H287.209V115.829ZM165.476 114.92H286.301V109.924H165.476V114.92Z" fill="#193040"/>
<path d="M236.904 195.205H214.192C214.192 191.435 217.236 188.392 221.006 188.392H230.09C233.838 188.392 236.904 191.435 236.904 195.205Z" fill="#193040"/>
<path d="M25.4142 182.146L22.4617 190.64L14.4219 188.959L16.5568 182.146H25.4142Z" fill="#F8FCFE"/>
<path d="M22.7574 191.162L13.8545 189.3L16.2392 181.692H26.0733L22.7574 191.162ZM15.0128 188.619L22.1669 190.118L24.7787 182.6H16.8978L15.0128 188.619Z" fill="#193040"/>
<path d="M14.2857 187.869C14.2857 187.869 19.1005 191.526 23.1432 187.869L35.1348 194.115C35.6572 194.387 35.4755 195.182 34.8623 195.182H13.6725C13.0138 195.182 12.5142 194.546 12.6959 193.91L14.2857 187.869Z" fill="#193040"/>
<path d="M61.7521 182.146L58.7996 190.64L50.7598 188.959L52.8946 182.146H61.7521Z" fill="#F8FCFE"/>
<path d="M59.0953 191.162L50.1924 189.3L52.5771 181.692H62.4112L59.0953 191.162ZM51.3507 188.619L58.5048 190.118L61.1166 182.6H53.2357L51.3507 188.619Z" fill="#193040"/>
<path d="M50.6236 187.869C50.6236 187.869 55.4384 191.526 59.4811 187.869L71.4727 194.115C71.9951 194.387 71.8134 195.182 71.2002 195.182H50.0104C49.3517 195.182 48.8521 194.546 49.0338 193.91L50.6236 187.869Z" fill="#193040"/>
<path d="M51.4867 22.9385C51.4867 22.9385 44.9004 31.5688 50.5782 39.2907C50.5782 39.2907 51.9409 40.4263 58.3001 41.1077C58.3001 41.1077 67.6119 42.2432 70.7915 39.9721C70.7915 39.9721 73.0626 38.8365 71.6999 34.9756C70.3372 31.1146 67.839 22.2571 61.7069 20.2131C55.5748 18.1691 51.4867 22.9385 51.4867 22.9385Z" fill="#193040"/>
<path d="M52.3952 47.467L54.2121 36.5655C54.2121 36.5655 49.8969 34.5214 52.8494 31.7961C52.8494 31.7961 54.4392 31.7961 54.8934 32.9316C54.8934 32.9316 62.1611 27.9351 60.3442 22.9386C60.3442 22.9386 71.927 39.0637 61.0255 38.6095L61.4797 47.9212L52.3952 47.467Z" fill="#F8FCFE"/>
<path d="M61.9566 48.3981L51.8727 47.8984L53.7124 36.8153C53.0537 36.4519 51.6002 35.4753 51.3958 34.0672C51.2595 33.1587 51.6456 32.2957 52.5541 31.4553L52.6904 31.3418H52.872C52.9402 31.3418 54.3256 31.3645 55.0524 32.273C56.5059 31.1601 61.3889 27.0494 59.9353 23.0976L58.7997 20.0088L60.7302 22.6887C61.0255 23.0975 67.9979 32.8862 65.704 37.1559C65.0227 38.4278 63.6146 39.0864 61.5251 39.0864L61.9566 48.3981ZM52.9175 47.0354L61.0028 47.4442L60.5485 38.1325L61.0482 38.1552C63.0241 38.2461 64.3186 37.7464 64.8864 36.7017C66.2945 34.0899 63.2512 28.253 61.0936 24.8463C60.8892 29.2977 55.4157 33.1133 55.1659 33.295L54.689 33.6129L54.4846 33.0906C54.2347 32.4547 53.3944 32.2957 53.031 32.2502C52.4632 32.818 52.2134 33.3858 52.3043 33.9309C52.4632 34.9983 53.8941 35.9068 54.4164 36.1567L54.7344 36.2928L52.9175 47.0354Z" fill="#193040"/>
<path d="M82.1014 53.826L89.369 57.4598L107.084 44.0601L108.447 39.2907L117.077 33.6128C117.077 33.6128 116.396 36.5653 113.443 39.0635C113.443 39.0635 116.396 43.1516 111.172 45.4228L109.355 46.5583L92.8439 64.6594C91.4585 66.1811 89.2328 66.658 87.3477 65.795L79.376 62.2292L82.1014 53.826Z" fill="white"/>
<path d="M89.3013 66.6809C88.5745 66.6809 87.8478 66.5219 87.1437 66.2266L78.8086 62.4792L81.8292 53.1903L89.324 56.9377L106.698 43.8104L108.061 39.0182L117.781 32.6136L117.532 33.7265C117.509 33.84 116.828 36.6562 114.034 39.1545C114.397 39.7904 115.011 41.1758 114.602 42.6521C114.238 43.992 113.148 45.0595 111.4 45.8317L109.673 46.9219L93.2077 64.9775C92.1629 66.0904 90.7548 66.6809 89.3013 66.6809ZM79.9442 61.9795L87.5298 65.3863C89.2332 66.1585 91.2545 65.7496 92.5036 64.3415L109.06 46.1951L110.991 44.9914C112.512 44.3328 113.421 43.447 113.716 42.4023C114.148 40.8352 113.08 39.3362 113.08 39.3135L112.83 38.9729L113.148 38.7003C114.784 37.3149 115.692 35.7705 116.169 34.7258L108.833 39.5634L107.47 44.3101L107.357 44.4009L89.4149 57.9597L82.3743 54.4394L79.9442 61.9795Z" fill="#193040"/>
<path d="M33.4992 64.2736L15.33 91.5273L8.97084 95.8425L3.29297 103.337C3.29297 103.337 6.69969 102.656 11.0149 98.5679C11.0149 98.5679 9.65218 101.975 11.242 103.337C11.242 103.337 13.7402 99.7034 15.33 97.2052L40.7669 69.9514L33.4992 64.2736Z" fill="#F8FCFE"/>
<path d="M2.20312 104.019L8.65318 95.5018L8.72132 95.4563L15.0124 91.1866L33.4087 63.5922L41.4485 69.8833L41.1079 70.2466L15.6937 97.4777C14.1266 99.9533 11.6511 103.542 11.6284 103.587L11.3331 103.996L10.947 103.678C9.8796 102.769 9.92502 101.157 10.1521 99.9533C6.35932 103.156 3.52039 103.769 3.38412 103.791L2.20312 104.019ZM12.1962 96.819L11.424 98.7269C11.1287 99.4763 10.5837 101.452 11.1969 102.565C11.9463 101.475 13.7178 98.863 14.9443 96.9326L14.9897 96.8645L40.0859 69.9741L33.5904 64.9094L15.6483 91.8225L9.26639 96.1377L4.51969 102.383C5.85967 101.816 8.10811 100.612 10.6745 98.1817L12.1962 96.819Z" fill="#193040"/>
<path d="M57.1189 91.073L59.39 142.855L51.2139 185.098H66.8848L76.6734 143.832C77.1049 141.992 77.2639 140.084 77.1277 138.199L73.9253 92.2313L57.1189 91.073Z" fill="#F8FCFE"/>
<path d="M67.2483 185.553H50.6689L58.9359 142.832L56.6421 90.5961L74.357 91.7998L77.582 138.177C77.7183 140.107 77.5593 142.06 77.1051 143.945L67.2483 185.553ZM51.7591 184.644H66.5215L76.2193 143.718C76.6509 141.924 76.7871 140.062 76.6736 138.222L73.494 92.6401L57.5959 91.5727L59.8444 142.901V142.946L51.7591 184.644Z" fill="#193040"/>
<path d="M45.3092 89.256L35.7704 132.635L15.3301 183.281L29.4112 183.509L53.3718 139.766C53.8942 138.812 54.3484 137.813 54.7345 136.768L71.4274 90.8458L45.3092 89.256Z" fill="#F8FCFE"/>
<path d="M29.6842 183.963L14.6719 183.713L35.3393 132.499L44.9463 88.7791L72.0638 90.4371L55.1664 136.927C54.7803 137.972 54.3261 138.994 53.781 139.971L29.6842 183.963ZM15.9891 182.827L29.1391 183.032L52.9634 139.516C53.4858 138.585 53.9173 137.586 54.2807 136.587L70.7692 91.232L45.6503 89.7102L36.1796 132.748L36.1569 132.794L15.9891 182.827Z" fill="#193040"/>
<path d="M61.7756 43.4924C61.7756 43.4924 60.4129 50.533 51.7825 44.1738L45.3552 46.2178C43.0613 46.9446 41.1309 48.5344 39.9953 50.6465L31.5693 66.2039L40.6539 71.6546L45.4233 63.9328L40.6539 96.6373C40.6539 96.6373 49.0572 102.769 57.8011 100.975C62.5251 99.9986 75.4025 100.725 75.4025 100.725C74.494 97.3186 73.1767 75.5383 74.9482 69.1564C76.7652 62.5701 74.0398 59.6176 74.0398 59.6176L81.5346 65.2954L85.1684 54.8482L72.9269 45.9226C71.5642 44.9233 69.9744 44.31 68.2938 44.151L61.7756 43.4924Z" fill="#2595DF"/>
<path d="M321.594 194.978H0V195.887H321.594V194.978Z" fill="#193040"/>
</svg>
