<svg width="48" height="48" viewBox="0 0 48 48" fill="none" xmlns="http://www.w3.org/2000/svg">
<path d="M23.9902 34.3844C18.2649 34.3844 13.6064 29.7269 13.6064 24.0007C13.6064 18.2744 18.2649 13.6169 23.9902 13.6169C29.7155 13.6169 34.3739 18.2754 34.3739 24.0007C34.3739 29.726 29.7155 34.3844 23.9902 34.3844ZM23.9902 15.0663C19.0636 15.0663 15.0558 19.0751 15.0558 24.0016C15.0558 28.9282 19.0636 32.936 23.9902 32.936C28.9168 32.936 32.9246 28.9282 32.9246 24.0016C32.9246 19.0751 28.9168 15.0663 23.9902 15.0663Z" fill="#193040"/>
<path d="M23.9902 34.3539C21.0193 34.3539 18.6924 29.8061 18.6924 24.002C18.6924 18.197 21.0193 13.6492 23.9902 13.6492C26.9611 13.6492 29.288 18.197 29.288 24.002C29.288 29.8061 26.9611 34.3539 23.9902 34.3539ZM23.9902 15.0976C22.1696 15.0976 20.1418 18.7548 20.1418 24.002C20.1418 29.2492 22.1696 32.9054 23.9902 32.9054C25.8108 32.9054 27.8386 29.2492 27.8386 24.002C27.8386 18.7548 25.8108 15.0976 23.9902 15.0976Z" fill="#193040"/>
<path d="M23.9893 33.9247C23.589 33.9247 23.2646 33.6003 23.2646 33.2V14.8016C23.2646 14.4013 23.589 14.0769 23.9893 14.0769C24.3896 14.0769 24.714 14.4013 24.714 14.8016V33.2C24.714 33.6003 24.3896 33.9247 23.9893 33.9247Z" fill="#193040"/>
<path d="M24.1131 47.9068C23.8928 47.9068 23.6565 47.8796 23.4212 47.8037C2.89747 41.1137 5.22435 13.5952 5.55716 10.4799C5.58716 10.1959 5.7831 9.95492 6.05591 9.86773C10.3731 8.47836 21.8903 4.09554 23.3181 0.54992C23.4259 0.281795 23.6828 0.10367 23.9715 0.0961699C24.2537 0.0830449 24.5256 0.252732 24.6475 0.515232C26.2131 3.87804 37.765 8.41273 42.084 9.87523C42.3634 9.96992 42.5575 10.2249 42.5753 10.5193C44.1868 38.0677 28.0618 47.1774 24.82 47.8299C24.6268 47.8674 24.3812 47.9068 24.1131 47.9068ZM6.95216 11.0987C6.5331 15.698 5.20279 40.3412 23.8693 46.4255C24.0662 46.4912 24.3418 46.4462 24.5331 46.4077C27.3859 45.834 42.4712 36.8865 41.154 11.0865C38.4156 10.1349 27.3437 6.10929 24.0231 2.17086C20.8393 6.3043 9.68029 10.1949 6.95216 11.0987Z" fill="#193040"/>
<path d="M24.0831 42.4749C23.8984 42.4749 23.6996 42.4515 23.4999 42.3868C7.659 37.224 9.4515 16.0299 9.70744 13.6299C9.73744 13.3459 9.93338 13.1049 10.2062 13.0177C13.4903 11.9612 22.2493 8.63587 23.3181 5.9818C23.4259 5.71368 23.6828 5.53555 23.9715 5.52805C24.2537 5.51493 24.5256 5.68462 24.6474 5.94712C25.8203 8.46805 34.6112 11.9106 37.899 13.0252C38.1784 13.1199 38.3724 13.3749 38.3903 13.6693C39.6296 34.8831 27.1637 41.9068 24.6578 42.4112C24.5012 42.4421 24.3024 42.4749 24.0831 42.4749ZM11.1034 14.2477C10.7762 18.0137 9.92119 36.4374 23.9499 41.0096C24.0737 41.0527 24.2987 41.0059 24.3728 40.9909C26.5309 40.5568 37.9206 33.7834 36.9681 14.2356C34.7359 13.4546 26.7146 10.5034 24.0203 7.54556C21.4215 10.6468 13.329 13.5052 11.1034 14.2477Z" fill="#193040"/>
<path d="M33.6493 24.7265H14.3311C13.9308 24.7265 13.6064 24.4021 13.6064 24.0018C13.6064 23.6015 13.9308 23.2771 14.3311 23.2771H33.6493C34.0496 23.2771 34.3739 23.6015 34.3739 24.0018C34.3739 24.4021 34.0496 24.7265 33.6493 24.7265Z" fill="#193040"/>
</svg>
