<svg width="98" height="92" viewBox="0 0 98 92" fill="none" xmlns="http://www.w3.org/2000/svg">
<path d="M7.86 41.46C7.45 40.24 6.19 39.55 4.65 39.55C4.65 39.55 1.33 39.36 1.33 42.8C1.33 45.95 8.14 45.65 8.14 48.82C8.14 53.48 2.09 53.13 1 50.12" stroke="#1D1D1B" stroke-width="2" stroke-miterlimit="10" stroke-linecap="round"/>
<path d="M96.7201 41.46C96.3101 40.24 95.0501 39.55 93.5101 39.55C93.5101 39.55 90.1901 39.36 90.1901 42.8C90.1901 45.95 97.0001 45.65 97.0001 48.82C97.0001 53.48 90.9501 53.13 89.8601 50.12" stroke="#1D1D1B" stroke-width="2" stroke-miterlimit="10" stroke-linecap="round"/>
<path d="M20.3201 39.86L23.1701 51.96H24.1801L26.9201 39.91H27.7701L30.7301 52.03H31.7201L34.5401 39.96" stroke="#1D1D1B" stroke-width="2" stroke-miterlimit="10" stroke-linecap="round" stroke-linejoin="round"/>
<path d="M47.1201 52L50.8201 39.89H52.1801L55.8601 52" stroke="#1D1D1B" stroke-width="2" stroke-miterlimit="10" stroke-linecap="round" stroke-linejoin="round"/>
<path d="M48.2 48.4301H54.6399" stroke="#1D1D1B" stroke-width="2" stroke-miterlimit="10" stroke-linecap="round" stroke-linejoin="round"/>
<path d="M69.9499 51.88V40.01H73.3899C73.3899 40.01 76.9299 40.21 76.9299 43.69C76.9299 47.17 73.4899 47.31 73.4899 47.31H69.9399" stroke="#1D1D1B" stroke-width="2" stroke-miterlimit="10" stroke-linecap="round" stroke-linejoin="round"/>
<path d="M91.55 60.67C85.47 78.32 68.7199 91 49 91C29.28 91 12.53 78.32 6.44995 60.67" stroke="#1D1D1B" stroke-width="2" stroke-miterlimit="10" stroke-linecap="round" stroke-linejoin="round"/>
<path d="M6.5 31.17C12.63 13.6 29.34 1 49 1C68.66 1 85.37 13.6 91.5 31.17" stroke="#1D1D1B" stroke-width="2" stroke-miterlimit="10" stroke-linecap="round" stroke-linejoin="round"/>
</svg>
