<svg width="288" height="196" viewBox="0 0 288 196" fill="none" xmlns="http://www.w3.org/2000/svg">
<path d="M65.7358 27.1183H63.7255V25.108H62.9214V27.1183H60.9111V27.9224H62.9214V29.9327H63.7255V27.9224H65.7358V27.1183Z" fill="#193040"/>
<path d="M14.6752 63.9059H12.665V61.8956H11.8608V63.9059H9.85059V64.71H11.8608V66.7203H12.665V64.71H14.6752V63.9059Z" fill="#193040"/>
<path d="M242.638 94.2611H240.628V92.2509H239.824V94.2611H237.813V95.0652H239.824V97.0755H240.628V95.0652H242.638V94.2611Z" fill="#193040"/>
<path d="M248.468 86.8228C246.92 86.8228 245.653 85.5564 245.653 84.0085C245.653 82.4606 246.92 81.1941 248.468 81.1941C250.016 81.1941 251.282 82.4606 251.282 84.0085C251.282 85.5564 250.016 86.8228 248.468 86.8228ZM248.468 81.9982C247.362 81.9982 246.457 82.9028 246.457 84.0085C246.457 85.1141 247.362 86.0187 248.468 86.0187C249.573 86.0187 250.478 85.1141 250.478 84.0085C250.478 82.9028 249.573 81.9982 248.468 81.9982Z" fill="#193040"/>
<path d="M0.120635 147.955C0.0402248 147.955 0 147.955 0 147.955L0.0603176 147.151C0.201036 147.151 3.47775 147.312 4.12103 143.754C4.90504 139.432 9.06629 140.135 9.10649 140.135L8.96578 140.919C8.82506 140.899 5.54832 140.356 4.92514 143.894C4.20144 147.754 0.804124 147.955 0.120635 147.955Z" fill="#193040"/>
<path d="M268.651 135.873L267.847 135.793L268.249 135.833L267.847 135.793C267.867 135.652 268.169 132.355 264.611 131.953C260.289 131.471 260.229 127.37 260.229 127.33H261.033C261.033 127.471 261.093 130.747 264.691 131.169C269.074 131.632 268.651 135.833 268.651 135.873Z" fill="#193040"/>
<path d="M114.183 121.379C114.183 121.379 82.3401 137.944 85.9988 157.142C87.8281 166.751 94.844 195.256 94.844 195.256H97.7387C97.7387 195.256 92.311 165.625 118.867 158.228L114.183 121.379Z" fill="#2595DF"/>
<path d="M166.831 121.379C166.831 121.379 198.674 137.944 195.015 157.142C193.186 166.751 186.17 195.256 186.17 195.256H183.275C183.275 195.256 188.703 165.625 162.147 158.228L166.831 121.379Z" fill="#2595DF"/>
<path d="M163.896 160.76C163.072 163.735 162.167 166.731 161.182 169.766C161.001 170.329 160.479 170.711 159.896 170.711H139.572V170.63H120.334C119.751 170.63 119.228 170.249 119.047 169.686C118.082 166.69 117.178 163.735 116.373 160.78C103.166 112.614 111.368 70.017 121.6 41.1898C121.801 40.6471 122.002 40.0842 122.183 39.5615C122.264 39.3605 122.324 39.1595 122.404 38.9584C123.027 37.2698 123.651 35.6415 124.274 34.0735C124.374 33.8323 124.475 33.591 124.555 33.3297C124.756 32.8271 124.957 32.3246 125.158 31.8421C125.319 31.42 125.5 31.0179 125.661 30.6158C125.942 29.9525 126.204 29.3092 126.485 28.686C126.606 28.4247 126.706 28.1633 126.827 27.902C126.867 27.8015 126.907 27.701 126.947 27.6206C127.048 27.3994 127.148 27.1582 127.249 26.9371C128.777 23.4594 130.264 20.3233 131.651 17.5491C131.792 17.2677 131.933 16.9863 132.074 16.7049C132.255 16.343 132.435 16.0013 132.596 15.6796C132.677 15.5188 132.777 15.3379 132.858 15.1771C133.541 13.8503 134.205 12.6039 134.828 11.4782C134.888 11.3777 134.948 11.2772 135.009 11.1566C135.19 10.855 135.35 10.5535 135.511 10.2519C135.652 9.99061 135.813 9.72927 135.953 9.48803C135.953 9.48803 135.953 9.48802 135.953 9.46791C136.094 9.22668 136.235 8.98548 136.355 8.74425C136.416 8.62363 136.496 8.50298 136.556 8.40246C136.657 8.22154 136.757 8.06072 136.858 7.8999C136.959 7.73908 137.059 7.57828 137.14 7.41746C137.26 7.19633 137.381 6.9953 137.501 6.81438C137.562 6.73397 137.602 6.63345 137.662 6.55304C137.662 6.55304 137.662 6.53296 137.682 6.53296C137.763 6.41235 137.823 6.29172 137.903 6.17111C137.944 6.1108 137.984 6.05046 138.024 5.99015C138.084 5.90974 138.124 5.80927 138.185 5.72886C139.089 4.24127 141.22 4.22112 142.165 5.68861C142.326 5.94995 142.507 6.2314 142.688 6.51284C142.788 6.65356 142.869 6.81439 142.969 6.97521C143.532 7.87983 144.175 8.92513 144.859 10.1112C144.899 10.1916 144.959 10.272 145 10.3725C145.201 10.7143 145.402 11.056 145.603 11.4179C145.663 11.4983 145.703 11.5988 145.764 11.6792C145.924 11.9606 146.085 12.2421 146.246 12.5235C146.346 12.7044 146.467 12.9055 146.568 13.1065C146.728 13.408 146.889 13.6895 147.07 14.0111C147.191 14.2121 147.291 14.4131 147.412 14.6343C147.472 14.7348 147.533 14.8353 147.593 14.9559C147.774 15.2776 147.935 15.5992 148.115 15.9209C148.176 16.0214 148.236 16.142 148.296 16.2425C148.357 16.343 148.417 16.4636 148.477 16.5843C148.598 16.8054 148.719 17.0265 148.839 17.2677C149.02 17.6095 149.201 17.9512 149.382 18.3131C149.503 18.5543 149.623 18.7754 149.744 19.0166C149.804 19.1373 149.864 19.2579 149.945 19.3986C150.005 19.5192 150.065 19.6398 150.126 19.7604C151.855 23.198 153.684 27.0979 155.513 31.4401C155.594 31.6411 155.674 31.822 155.754 32.023C156.398 33.5508 157.041 35.1389 157.664 36.7673C157.745 36.9683 157.825 37.1693 157.885 37.3703C157.986 37.6317 158.086 37.893 158.187 38.1744C158.267 38.3956 158.348 38.5966 158.428 38.8178C158.75 39.6822 159.071 40.5466 159.393 41.4311C169.605 69.6954 177.505 111.71 163.896 160.76Z" fill="#F8FCFE"/>
<path d="M159.896 171.113H139.17V171.033H120.334C119.57 171.033 118.886 170.55 118.665 169.826C117.7 166.851 116.796 163.836 115.991 160.901C110.001 139.069 107.91 116.454 109.8 93.718C111.267 76.0277 115.107 58.3173 121.218 41.0693C121.419 40.5265 121.62 39.9637 121.801 39.4209L122.022 38.8178C122.625 37.2096 123.249 35.5611 123.892 33.9127L123.952 33.7519C124.033 33.5509 124.113 33.37 124.173 33.169C124.374 32.6664 124.575 32.1638 124.776 31.6613C124.937 31.2391 125.118 30.837 125.279 30.435C125.56 29.7716 125.822 29.1283 126.103 28.4851L126.445 27.701C126.485 27.6206 126.505 27.5402 126.545 27.4598L126.565 27.3995C126.666 27.1784 126.767 26.9371 126.867 26.716C128.274 23.4996 129.762 20.3435 131.269 17.308L131.692 16.4637C131.873 16.1018 132.054 15.7601 132.214 15.4184C132.295 15.2575 132.395 15.0766 132.476 14.9158C133.139 13.6493 133.802 12.4029 134.446 11.2169L134.506 11.0963C134.546 11.036 134.586 10.9556 134.607 10.8953C134.787 10.5937 134.948 10.2922 135.109 9.99066V9.97054C135.23 9.74941 135.37 9.5082 135.491 9.28707V9.22675L135.571 9.14636C135.712 8.90513 135.833 8.68397 135.953 8.46284L136.014 8.36233C136.054 8.28192 136.114 8.1814 136.154 8.10098C136.215 8.00047 136.255 7.92008 136.315 7.81957L136.737 7.11598C136.838 6.93505 136.938 6.75411 137.039 6.59329L137.099 6.49278C137.139 6.41237 137.2 6.33197 137.24 6.25155L137.26 6.23148C137.26 6.21138 137.28 6.19124 137.28 6.19124C137.361 6.07062 137.421 5.97012 137.481 5.8495C137.521 5.78919 137.562 5.72891 137.602 5.6686L137.763 5.40726C138.265 4.60315 139.13 4.10059 140.074 4.10059C141.019 4.10059 141.904 4.56296 142.426 5.36706C142.587 5.62839 142.768 5.9098 142.949 6.19124C143.05 6.33196 143.13 6.49279 143.231 6.65361C143.854 7.65874 144.497 8.72419 145.14 9.78963L145.181 9.87002C145.221 9.93033 145.241 9.99067 145.281 10.051C145.482 10.3927 145.683 10.7345 145.884 11.0963C145.904 11.1365 145.944 11.1968 145.965 11.2571L146.085 11.4582C146.226 11.6994 146.366 11.9607 146.507 12.222C146.608 12.4029 146.728 12.604 146.829 12.805C146.99 13.1066 147.151 13.4081 147.331 13.7096L147.432 13.8905C147.512 14.0313 147.593 14.1921 147.673 14.3328C147.734 14.4333 147.794 14.5338 147.854 14.6545L147.914 14.7751C148.055 15.0565 148.216 15.338 148.377 15.6194L148.417 15.6998C148.457 15.7802 148.497 15.8606 148.538 15.941L149.08 16.9461C149.261 17.2879 149.442 17.6297 149.623 17.9915L149.985 18.6951C150.045 18.8157 150.106 18.9564 150.186 19.077L150.367 19.4389C152.277 23.1981 154.086 27.1382 155.775 31.1386L155.895 31.42C155.935 31.5205 155.976 31.621 156.016 31.7215C156.679 33.3097 157.322 34.8978 157.926 36.4658L158.207 37.1694C158.287 37.3905 158.388 37.6317 158.468 37.8528C158.549 38.074 158.629 38.275 158.71 38.4962C159.051 39.4209 159.373 40.2853 159.674 41.1095C165.766 58.0158 169.545 75.5452 170.912 93.2154C172.641 115.811 170.409 138.567 164.218 160.841C163.393 163.836 162.469 166.871 161.504 169.847C161.343 170.61 160.659 171.113 159.896 171.113ZM139.974 170.309H159.896C160.318 170.309 160.68 170.048 160.8 169.646C161.765 166.67 162.69 163.655 163.514 160.66C177.325 110.825 168.68 68.3083 158.991 41.411C158.689 40.5868 158.388 39.7224 158.026 38.7977C157.946 38.5766 157.865 38.3755 157.785 38.1544C157.704 37.9332 157.604 37.692 157.524 37.4709L157.242 36.7673C156.639 35.1993 155.996 33.6112 155.332 32.0432C155.292 31.9427 155.252 31.8422 155.212 31.7417L155.091 31.4602C153.402 27.4799 151.593 23.5599 149.704 19.8007L149.523 19.4389C149.462 19.3183 149.402 19.1775 149.322 19.0569L148.96 18.3533C148.779 17.9915 148.598 17.6497 148.417 17.308L148.055 16.6245C148.035 16.5642 147.995 16.5039 147.955 16.4436L147.874 16.2828C147.834 16.2024 147.794 16.1219 147.754 16.0415L147.713 15.9611C147.553 15.6797 147.412 15.3983 147.271 15.1168L147.211 14.9962C147.15 14.8957 147.09 14.7952 147.05 14.6946C146.97 14.5338 146.889 14.3931 146.809 14.2524L146.708 14.0715C146.547 13.77 146.366 13.4684 146.206 13.1669C146.105 12.9659 145.985 12.7849 145.884 12.5839C145.743 12.3225 145.603 12.0813 145.462 11.8401L145.341 11.6391C145.321 11.5989 145.281 11.5386 145.261 11.4984C145.06 11.1365 144.839 10.7747 144.658 10.453C144.618 10.3927 144.598 10.3324 144.557 10.2922L144.517 10.2118C143.894 9.14632 143.251 8.10098 142.627 7.09585C142.527 6.93503 142.426 6.79435 142.346 6.63353C142.165 6.3521 141.984 6.07064 141.823 5.80931C141.461 5.24643 140.858 4.90469 140.195 4.90469H140.175C139.512 4.90469 138.888 5.26656 138.547 5.82943L138.386 6.09072C138.346 6.15103 138.305 6.21134 138.265 6.29175C138.205 6.41237 138.125 6.53299 138.044 6.65361L138.024 6.6938C137.984 6.77421 137.923 6.85466 137.883 6.93507L137.823 7.03559C137.722 7.19641 137.622 7.3773 137.521 7.55822L137.099 8.26182C137.039 8.36233 136.999 8.44277 136.938 8.54328C136.878 8.62369 136.838 8.70406 136.798 8.80458L136.737 8.90509C136.617 9.10611 136.496 9.32728 136.376 9.54841L136.315 9.64892C136.175 9.89016 136.034 10.1515 135.893 10.4128L135.873 10.453C135.712 10.7546 135.551 11.036 135.37 11.3375C135.33 11.3978 135.29 11.4581 135.27 11.5385L135.21 11.6592C134.566 12.8452 133.903 14.0715 133.239 15.3379C133.159 15.4987 133.059 15.6797 132.978 15.8405C132.797 16.1822 132.636 16.524 132.456 16.8657L132.033 17.71C130.526 20.7254 129.038 23.8816 127.651 27.0779C127.55 27.299 127.45 27.5201 127.349 27.7613L127.329 27.8217C127.289 27.9021 127.269 27.9825 127.229 28.0629L126.887 28.8469C126.626 29.4902 126.344 30.1334 126.063 30.7767C125.902 31.1788 125.721 31.5808 125.56 32.003C125.359 32.4854 125.158 32.9881 124.957 33.4906C124.877 33.6716 124.796 33.8725 124.736 34.0535L124.676 34.2142C124.033 35.8426 123.409 37.491 122.806 39.0992L122.585 39.7023C122.384 40.2451 122.183 40.7879 122.002 41.3306C112.232 68.8511 103.407 111.911 116.775 160.68C117.58 163.615 118.484 166.61 119.449 169.565C119.57 169.967 119.952 170.228 120.354 170.228H139.994V170.309H139.974Z" fill="#193040"/>
<path d="M159.374 41.2702C153.805 40.9084 143.613 40.2651 139.392 40.2651C135.673 40.2651 127.069 40.8079 121.581 41.1898C121.782 40.6471 121.983 40.0842 122.164 39.5615C122.244 39.3605 122.305 39.1595 122.385 38.9584C123.008 37.2698 123.632 35.6415 124.255 34.0735C124.355 33.8323 124.456 33.591 124.536 33.3297C124.737 32.8271 124.938 32.3246 125.139 31.8421C125.3 31.42 125.481 31.0179 125.642 30.6158C125.923 29.9525 126.185 29.3092 126.466 28.686C126.587 28.4247 126.687 28.1633 126.808 27.902C126.848 27.8015 126.888 27.701 126.928 27.6206C127.029 27.3994 127.129 27.1582 127.23 26.9371C128.758 23.4594 130.245 20.3233 131.632 17.5491C131.773 17.2677 131.914 16.9863 132.054 16.7049C132.235 16.343 132.416 16.0013 132.577 15.6796C132.658 15.5188 132.758 15.3379 132.838 15.1771C133.522 13.8503 134.185 12.6039 134.809 11.4782C134.869 11.3777 134.929 11.2772 134.989 11.1566C135.15 10.855 135.331 10.5535 135.492 10.2519C135.633 9.99061 135.774 9.72927 135.934 9.48803C135.934 9.48803 135.934 9.48802 135.934 9.46791C136.075 9.22668 136.216 8.98548 136.336 8.74425C136.397 8.62363 136.477 8.50298 136.537 8.40246C136.638 8.22154 136.738 8.06072 136.839 7.8999C136.939 7.73908 137.04 7.57828 137.12 7.41746C137.241 7.19633 137.362 6.9953 137.482 6.81438C137.542 6.73397 137.583 6.63345 137.643 6.55304C137.643 6.55304 137.643 6.53296 137.663 6.53296C137.743 6.41235 137.804 6.29172 137.884 6.17111C137.924 6.1108 137.965 6.05046 138.005 5.99015C138.065 5.90974 138.105 5.80927 138.166 5.72886C139.07 4.24127 141.201 4.22112 142.146 5.68861C142.307 5.94995 142.488 6.2314 142.669 6.51284C142.769 6.65356 142.85 6.81439 142.95 6.97521C143.513 7.87983 144.156 8.92513 144.84 10.1112C144.88 10.1916 144.94 10.272 144.981 10.3725C145.182 10.7143 145.383 11.056 145.584 11.4179C145.644 11.4983 145.684 11.5988 145.744 11.6792C145.905 11.9606 146.066 12.2421 146.227 12.5235C146.327 12.7044 146.448 12.9055 146.548 13.1065C146.709 13.408 146.87 13.6895 147.051 14.0111C147.172 14.2121 147.272 14.4131 147.393 14.6343C147.453 14.7348 147.513 14.8353 147.574 14.9559C147.755 15.2776 147.915 15.5992 148.096 15.9209C148.157 16.0214 148.217 16.142 148.277 16.2425C148.338 16.343 148.398 16.4636 148.458 16.5843C148.579 16.8054 148.699 17.0265 148.82 17.2677C149.001 17.6095 149.182 17.9512 149.363 18.3131C149.483 18.5543 149.604 18.7754 149.725 19.0166C149.785 19.1373 149.845 19.2579 149.926 19.3986C149.986 19.5192 150.046 19.6398 150.107 19.7604C151.835 23.198 153.665 27.0979 155.494 31.4401C155.575 31.6411 155.655 31.822 155.735 32.023C156.379 33.5508 157.022 35.1389 157.645 36.7673C157.726 36.9683 157.806 37.1693 157.866 37.3703C157.967 37.6317 158.067 37.893 158.168 38.1744C158.248 38.3956 158.329 38.5966 158.409 38.8178C158.731 39.5214 159.052 40.3857 159.374 41.2702Z" fill="#2595DF"/>
<path d="M159.957 41.7126L159.354 41.6723C153.685 41.2904 143.553 40.6672 139.412 40.6672C135.834 40.6672 127.772 41.1698 121.641 41.5919L121.038 41.6322L121.239 41.0491C121.44 40.5063 121.641 39.9435 121.822 39.4008L122.043 38.7977C122.646 37.1895 123.269 35.5411 123.913 33.8927L123.973 33.7318C124.053 33.5308 124.134 33.3499 124.194 33.1488C124.395 32.6463 124.596 32.1437 124.797 31.6411C124.958 31.219 125.139 30.8169 125.3 30.4149C125.581 29.7515 125.843 29.1082 126.124 28.4649L126.466 27.6809C126.506 27.6005 126.526 27.5201 126.566 27.4397L126.586 27.3794C126.687 27.1583 126.787 26.917 126.888 26.6959C128.295 23.4795 129.783 20.3234 131.29 17.2879L131.713 16.4435C131.894 16.0817 132.074 15.74 132.235 15.3982C132.316 15.2374 132.416 15.0565 132.497 14.8957C133.16 13.6292 133.823 12.3828 134.467 11.1968L134.527 11.0762C134.567 11.0159 134.607 10.9354 134.627 10.8751C134.788 10.5736 134.969 10.2721 135.13 9.97052L135.15 9.95044C135.271 9.72931 135.411 9.48805 135.532 9.26693V9.20661L135.612 9.12622C135.753 8.88499 135.874 8.66388 135.994 8.44275L136.055 8.34224C136.095 8.26183 136.155 8.1613 136.195 8.08089C136.256 7.98038 136.296 7.89994 136.356 7.79943L136.778 7.09583C136.879 6.91491 136.979 6.73402 137.08 6.5732L137.14 6.47268C137.18 6.39227 137.241 6.31187 137.281 6.23146L137.301 6.21134C137.301 6.19124 137.321 6.17114 137.321 6.17114C137.402 6.05053 137.462 5.95003 137.522 5.82941C137.562 5.7691 137.603 5.70876 137.643 5.64846L137.804 5.38711C138.306 4.58301 139.171 4.08044 140.115 4.08044C141.06 4.08044 141.945 4.54281 142.467 5.34692C142.628 5.60825 142.809 5.88971 142.99 6.17114C143.091 6.31186 143.171 6.47269 143.272 6.63351C143.895 7.63864 144.538 8.70405 145.181 9.76949L145.221 9.84993C145.262 9.91024 145.282 9.97053 145.322 10.0308C145.523 10.3726 145.724 10.7143 145.925 11.0762C145.945 11.1164 145.985 11.1767 146.005 11.237L146.126 11.438C146.267 11.6792 146.408 11.9406 146.548 12.2019L146.87 12.7849C147.031 13.0864 147.212 13.388 147.372 13.6895L147.473 13.8705C147.553 14.0112 147.634 14.172 147.714 14.3127C147.774 14.4132 147.835 14.5137 147.895 14.6343C148.056 14.956 148.237 15.2776 148.418 15.5992L148.458 15.6797C148.498 15.7601 148.538 15.8405 148.579 15.9209L149.121 16.926C149.302 17.2678 149.483 17.6095 149.664 17.9714L150.026 18.675C150.086 18.7956 150.147 18.9363 150.227 19.0569L150.408 19.4187C152.318 23.1779 154.127 27.118 155.816 31.1184L155.936 31.3999C155.976 31.5004 156.017 31.6009 156.057 31.7014C156.72 33.2896 157.363 34.8776 157.967 36.4456L158.248 37.1492C158.328 37.3704 158.429 37.6116 158.509 37.8327C158.59 38.0538 158.67 38.2549 158.751 38.476C159.092 39.4007 159.414 40.2651 159.715 41.0894L159.957 41.7126ZM139.392 39.8631C143.412 39.8631 153.001 40.4461 158.791 40.8281C158.55 40.1848 158.308 39.5013 158.047 38.7977C157.967 38.5765 157.886 38.3755 157.806 38.1544C157.725 37.9332 157.625 37.692 157.544 37.4709L157.263 36.7673C156.66 35.1993 156.017 33.6112 155.353 32.0432C155.313 31.9427 155.273 31.8422 155.233 31.7416L155.112 31.4602C153.423 27.4799 151.614 23.5599 149.724 19.8007L149.544 19.4389C149.483 19.3182 149.423 19.1775 149.343 19.0569L148.981 18.3533C148.8 17.9914 148.619 17.6497 148.438 17.308L148.076 16.6245C148.056 16.5642 148.016 16.5039 147.976 16.4435L147.895 16.2828C147.855 16.2024 147.815 16.1219 147.775 16.0415L147.734 15.9611C147.553 15.6395 147.393 15.3178 147.212 14.9962C147.151 14.8957 147.091 14.7951 147.051 14.6946C146.97 14.5338 146.89 14.3931 146.81 14.2524L146.709 14.0715C146.548 13.7699 146.367 13.4684 146.206 13.1669L145.885 12.5839C145.744 12.3225 145.603 12.0813 145.463 11.8401L145.342 11.639C145.322 11.5988 145.282 11.5385 145.262 11.4983C145.061 11.1365 144.84 10.7747 144.659 10.453C144.618 10.3927 144.598 10.3324 144.558 10.2922L144.518 10.2117C143.895 9.1463 143.251 8.10096 142.628 7.09583C142.528 6.93501 142.427 6.79433 142.347 6.63351C142.166 6.35208 141.985 6.07062 141.824 5.80929C141.462 5.24641 140.859 4.90467 140.196 4.90467H140.176C139.512 4.90467 138.889 5.26654 138.547 5.82941L138.387 6.0907C138.346 6.15101 138.306 6.21132 138.266 6.29173C138.206 6.41235 138.125 6.53297 138.045 6.65359L138.025 6.69378C137.985 6.77419 137.924 6.85464 137.884 6.93505L137.824 7.03557C137.723 7.19639 137.623 7.37728 137.522 7.5582L137.1 8.2618C137.04 8.36231 137 8.44275 136.939 8.54326C136.879 8.62367 136.839 8.70404 136.799 8.80456L136.738 8.90507C136.618 9.10609 136.497 9.32726 136.376 9.54839L136.316 9.6489C136.175 9.89014 136.035 10.1514 135.894 10.4128L135.874 10.4329C135.713 10.7143 135.552 11.0159 135.371 11.3375C135.331 11.3978 135.291 11.4581 135.271 11.5385L135.21 11.6592C134.567 12.8452 133.904 14.0714 133.24 15.3379C133.16 15.4987 133.059 15.6796 132.979 15.8405C132.798 16.1822 132.637 16.524 132.456 16.8657L132.034 17.71C130.526 20.7254 129.039 23.8815 127.652 27.0779C127.551 27.299 127.451 27.5201 127.35 27.7613L127.33 27.8216C127.29 27.902 127.27 27.9824 127.23 28.0629L126.888 28.8469C126.627 29.4902 126.345 30.1334 126.064 30.7767C125.903 31.1788 125.722 31.5808 125.561 32.0029C125.36 32.4854 125.159 32.988 124.958 33.4906C124.878 33.6715 124.817 33.8725 124.737 34.0534L124.677 34.2142C124.033 35.8425 123.41 37.491 122.807 39.0992L122.586 39.7023C122.465 40.044 122.325 40.4058 122.204 40.7677C128.235 40.3254 135.914 39.8631 139.392 39.8631Z" fill="#193040"/>
<path d="M140.477 43.6829C140.921 43.6829 141.281 43.3229 141.281 42.8788C141.281 42.4347 140.921 42.0747 140.477 42.0747C140.033 42.0747 139.673 42.4347 139.673 42.8788C139.673 43.3229 140.033 43.6829 140.477 43.6829Z" fill="#193040"/>
<path d="M146.266 43.6829C146.71 43.6829 147.07 43.3229 147.07 42.8788C147.07 42.4347 146.71 42.0747 146.266 42.0747C145.822 42.0747 145.462 42.4347 145.462 42.8788C145.462 43.3229 145.822 43.6829 146.266 43.6829Z" fill="#193040"/>
<path d="M152.036 44.0447C152.48 44.0447 152.84 43.6847 152.84 43.2406C152.84 42.7965 152.48 42.4365 152.036 42.4365C151.591 42.4365 151.231 42.7965 151.231 43.2406C151.231 43.6847 151.591 44.0447 152.036 44.0447Z" fill="#193040"/>
<path d="M157.826 44.5872C158.27 44.5872 158.63 44.2272 158.63 43.7831C158.63 43.339 158.27 42.979 157.826 42.979C157.381 42.979 157.021 43.339 157.021 43.7831C157.021 44.2272 157.381 44.5872 157.826 44.5872Z" fill="#193040"/>
<path d="M134.869 43.6829C135.313 43.6829 135.673 43.3229 135.673 42.8788C135.673 42.4347 135.313 42.0747 134.869 42.0747C134.424 42.0747 134.064 42.4347 134.064 42.8788C134.064 43.3229 134.424 43.6829 134.869 43.6829Z" fill="#193040"/>
<path d="M129.099 44.0447C129.543 44.0447 129.903 43.6847 129.903 43.2406C129.903 42.7965 129.543 42.4365 129.099 42.4365C128.655 42.4365 128.295 42.7965 128.295 43.2406C128.295 43.6847 128.655 44.0447 129.099 44.0447Z" fill="#193040"/>
<path d="M123.309 44.5872C123.753 44.5872 124.113 44.2272 124.113 43.7831C124.113 43.339 123.753 42.979 123.309 42.979C122.865 42.979 122.505 43.339 122.505 43.7831C122.505 44.2272 122.865 44.5872 123.309 44.5872Z" fill="#193040"/>
<path d="M121.058 169.083V170.631C121.058 172.762 122.786 174.49 124.917 174.49H155.312C157.443 174.49 159.172 172.762 159.172 170.631V169.083H121.058Z" fill="#F8FCFE"/>
<path d="M155.312 174.892H124.917C122.565 174.892 120.655 172.983 120.655 170.631V168.681H159.574V170.631C159.574 172.983 157.664 174.892 155.312 174.892ZM121.459 169.485V170.631C121.459 172.54 123.007 174.088 124.917 174.088H155.312C157.222 174.088 158.77 172.54 158.77 170.631V169.485H121.459Z" fill="#193040"/>
<path d="M163.897 160.76C163.072 163.735 162.168 166.731 161.183 169.766C161.002 170.329 160.479 170.711 159.896 170.711H139.572V170.63H120.334C119.751 170.63 119.229 170.249 119.048 169.686C118.083 166.69 117.178 163.735 116.374 160.78H163.897V160.76Z" fill="#2595DF"/>
<path d="M159.896 171.113H139.171V171.033H120.334C119.571 171.033 118.887 170.55 118.666 169.827C117.701 166.851 116.796 163.836 115.992 160.901L115.852 160.399H164.44L164.299 160.901C163.475 163.896 162.55 166.932 161.585 169.907C161.344 170.611 160.66 171.113 159.896 171.113ZM139.975 170.309H159.896C160.318 170.309 160.68 170.048 160.801 169.646C161.706 166.852 162.57 163.997 163.374 161.183H116.897C117.661 163.957 118.505 166.771 119.43 169.565C119.55 169.967 119.932 170.229 120.334 170.229H139.975V170.309Z" fill="#193040"/>
<path d="M134.808 159.876C134.205 159.876 133.723 159.393 133.723 158.79C133.723 158.187 134.205 157.705 134.808 157.705C135.411 157.705 135.894 158.187 135.894 158.79C135.894 159.373 135.411 159.876 134.808 159.876Z" fill="#193040"/>
<path d="M141.1 195.276H139.11L137.2 126.887C137.16 125.259 138.467 123.912 140.095 123.912C141.723 123.912 143.03 125.259 142.99 126.887L141.1 195.276Z" fill="#F8FCFE"/>
<path d="M141.502 195.679H138.728L138.708 195.297L136.798 126.908C136.778 126.003 137.099 125.159 137.723 124.515C138.346 123.872 139.19 123.51 140.095 123.51C140.999 123.51 141.844 123.872 142.467 124.515C143.09 125.159 143.432 126.003 143.391 126.908L141.502 195.679ZM139.512 194.875H140.718L142.607 126.887C142.627 126.204 142.366 125.561 141.904 125.078C141.421 124.596 140.798 124.314 140.115 124.314C139.431 124.314 138.808 124.576 138.326 125.078C137.843 125.561 137.602 126.204 137.622 126.887L139.512 194.875Z" fill="#193040"/>
<path d="M129.018 159.876C128.415 159.876 127.933 159.393 127.933 158.79C127.933 158.187 128.415 157.705 129.018 157.705C129.621 157.705 130.104 158.187 130.104 158.79C130.104 159.373 129.621 159.876 129.018 159.876Z" fill="#193040"/>
<path d="M123.249 159.876C122.646 159.876 122.163 159.393 122.163 158.79C122.163 158.187 122.646 157.705 123.249 157.705C123.852 157.705 124.334 158.187 124.334 158.79C124.334 159.373 123.832 159.876 123.249 159.876Z" fill="#193040"/>
<path d="M117.64 159.876C117.037 159.876 116.555 159.393 116.555 158.79C116.555 158.187 117.037 157.705 117.64 157.705C118.243 157.705 118.726 158.187 118.726 158.79C118.726 159.373 118.243 159.876 117.64 159.876Z" fill="#193040"/>
<path d="M162.791 159.876C162.188 159.876 161.705 159.393 161.705 158.79C161.705 158.187 162.188 157.705 162.791 157.705C163.394 157.705 163.876 158.187 163.876 158.79C163.876 159.373 163.394 159.876 162.791 159.876Z" fill="#193040"/>
<path d="M157.002 159.876C156.398 159.876 155.916 159.393 155.916 158.79C155.916 158.187 156.398 157.705 157.002 157.705C157.605 157.705 158.087 158.187 158.087 158.79C158.087 159.373 157.605 159.876 157.002 159.876Z" fill="#193040"/>
<path d="M151.232 159.876C150.629 159.876 150.146 159.393 150.146 158.79C150.146 158.187 150.629 157.705 151.232 157.705C151.835 157.705 152.318 158.187 152.318 158.79C152.318 159.373 151.815 159.876 151.232 159.876Z" fill="#193040"/>
<path d="M145.624 159.876C145.021 159.876 144.538 159.393 144.538 158.79C144.538 158.187 145.021 157.705 145.624 157.705C146.227 157.705 146.709 158.187 146.709 158.79C146.709 159.373 146.227 159.876 145.624 159.876Z" fill="#193040"/>
<path d="M140.296 104.975C130.164 104.975 121.942 96.7333 121.942 86.6217C121.942 76.49 130.184 68.2681 140.296 68.2681C150.408 68.2681 158.65 76.5101 158.65 86.6217C158.65 96.7333 150.428 104.975 140.296 104.975ZM140.296 72.2685C132.396 72.2685 125.963 78.7013 125.963 86.6016C125.963 94.5019 132.396 100.935 140.296 100.935C148.196 100.935 154.629 94.5019 154.629 86.6016C154.629 78.7013 148.196 72.2685 140.296 72.2685Z" fill="#2595DF"/>
<path d="M94.7838 48.6282C94.7838 42.6175 89.7179 37.6924 83.7675 37.3908V37.3707C83.667 37.3707 83.5866 37.3707 83.4861 37.3707C83.3856 37.3707 83.3052 37.3707 83.2047 37.3707V37.3908C77.2543 37.7125 72.1885 42.6175 72.1885 48.6282C72.1885 51.5632 73.3946 54.2368 75.3245 56.2269C79.0032 60.4686 79.1439 66.4793 79.1439 66.4793H83.2047H83.7675H87.8283C87.8283 66.4793 87.969 60.4485 91.6477 56.2269C93.5776 54.2368 94.7838 51.5632 94.7838 48.6282Z" fill="#F8FCFE"/>
<path d="M88.23 66.9011H78.7416V66.4991C78.7416 66.4388 78.5406 60.5689 75.0226 56.5082C72.932 54.3371 71.7861 51.5428 71.7861 48.6279C71.7861 42.6574 76.6911 37.5313 82.8023 37.0086V36.9885L83.2044 36.9684C83.3049 36.9684 83.3853 36.9684 83.4858 36.9684C83.5863 36.9684 83.6667 36.9684 83.7673 36.9684H84.1693V37.0086C90.2805 37.5313 95.1855 42.6574 95.1855 48.6279C95.1855 51.5428 94.0397 54.3371 91.949 56.5082C88.4109 60.589 88.23 66.4589 88.23 66.4991V66.9011ZM79.5055 66.097H87.446C87.5466 64.6698 88.1295 59.6843 91.3459 55.9653L91.366 55.9452C93.316 53.9149 94.3814 51.3216 94.3814 48.6078C94.3814 42.9388 89.6171 38.074 83.7472 37.7725L83.526 37.7524H83.5059H83.4858H83.4657C83.4255 37.7524 83.3853 37.7524 83.3652 37.7524L83.2245 37.7725C77.3545 38.074 72.5902 42.9388 72.5902 48.6078C72.5902 51.3015 73.6557 53.9149 75.6056 55.9452L75.6257 55.9653C78.822 59.6843 79.405 64.6698 79.5055 66.097Z" fill="#193040"/>
<path d="M87.5066 65.8158H79.4053V72.2285H80.2898V73.1734C80.2898 74.1584 81.0939 74.9625 82.0789 74.9625H84.9134C85.8984 74.9625 86.7025 74.1584 86.7025 73.1734V72.2285H87.4865V65.8158H87.5066Z" fill="#F8FCFE"/>
<path d="M84.9131 75.3644H82.0786C80.8725 75.3644 79.8874 74.3794 79.8874 73.1732V72.6304H79.0029V65.4136H87.9084V72.6304H87.1244V73.1732C87.1043 74.3794 86.1192 75.3644 84.9131 75.3644ZM79.807 71.8263H80.6915V73.1732C80.6915 73.9371 81.3147 74.5603 82.0786 74.5603H84.9131C85.677 74.5603 86.3002 73.9371 86.3002 73.1732V71.8263H87.0842V66.2177H79.807V71.8263Z" fill="#193040"/>
<path d="M78.6816 66.3181C78.6816 65.8959 79.0234 65.5742 79.4255 65.5742H87.6273C88.0495 65.5742 88.3712 65.916 88.3712 66.3181C88.3712 66.7402 88.0294 67.0619 87.6273 67.0619H79.4255C79.0234 67.0619 78.6816 66.7201 78.6816 66.3181Z" fill="#F8FCFE"/>
<path d="M87.627 67.4641H79.4252C78.7819 67.4641 78.2793 66.9414 78.2793 66.3183C78.2793 65.6951 78.802 65.1724 79.4252 65.1724H87.627C88.2703 65.1724 88.7729 65.6951 88.7729 66.3183C88.7729 66.9414 88.2703 67.4641 87.627 67.4641ZM79.4453 65.9564C79.2442 65.9564 79.1035 66.1172 79.1035 66.2981C79.1035 66.4791 79.2643 66.6399 79.4453 66.6399H87.6472C87.8482 66.6399 87.9889 66.4791 87.9889 66.2981C87.9889 66.0971 87.8281 65.9564 87.6472 65.9564H79.4453Z" fill="#193040"/>
<path d="M78.6816 69.0722C78.6816 68.6501 79.0234 68.3284 79.4255 68.3284H87.6273C88.0495 68.3284 88.3712 68.6702 88.3712 69.0722C88.3712 69.4944 88.0294 69.8159 87.6273 69.8159H79.4255C79.0234 69.8159 78.6816 69.4944 78.6816 69.0722Z" fill="#F8FCFE"/>
<path d="M87.627 70.2182H79.4252C78.7819 70.2182 78.2793 69.6956 78.2793 69.0724C78.2793 68.4492 78.802 67.9265 79.4252 67.9265H87.627C88.2703 67.9265 88.7729 68.4492 88.7729 69.0724C88.7729 69.6956 88.2703 70.2182 87.627 70.2182ZM79.4453 68.7306C79.2442 68.7306 79.1035 68.8915 79.1035 69.0724C79.1035 69.2533 79.2643 69.4141 79.4453 69.4141H87.6472C87.8482 69.4141 87.9889 69.2533 87.9889 69.0724C87.9889 68.8915 87.8281 68.7306 87.6472 68.7306H79.4453Z" fill="#193040"/>
<path d="M78.6816 71.8062C78.6816 71.3841 79.0234 71.0625 79.4255 71.0625H87.6273C88.0495 71.0625 88.3712 71.4042 88.3712 71.8062C88.3712 72.2284 88.0294 72.5501 87.6273 72.5501H79.4255C79.0234 72.5702 78.6816 72.2284 78.6816 71.8062Z" fill="#F8FCFE"/>
<path d="M87.627 72.9722H79.4252C78.7819 72.9722 78.2793 72.4495 78.2793 71.8263C78.2793 71.2032 78.802 70.6805 79.4252 70.6805H87.627C88.2703 70.6805 88.7729 71.2032 88.7729 71.8263C88.7729 72.4495 88.2703 72.9722 87.627 72.9722ZM79.4453 71.4645C79.2442 71.4645 79.1035 71.6253 79.1035 71.8062C79.1035 71.9871 79.2643 72.148 79.4453 72.148H87.6472C87.8482 72.148 87.9889 71.9871 87.9889 71.8062C87.9889 71.6253 87.8281 71.4645 87.6472 71.4645H79.4453Z" fill="#193040"/>
<path d="M235.643 29.9727C235.643 28.9877 235.502 28.0228 235.261 27.1182L237.211 24.9069L235.381 21.791L232.607 22.4946C231.26 21.1276 229.572 20.1225 227.662 19.64L226.757 16.8658H223.139L222.335 19.64C220.425 20.1426 218.736 21.1477 217.389 22.5147L214.555 21.791L212.726 24.9069L214.736 27.1785C214.495 28.063 214.374 29.0078 214.374 29.9527C214.374 30.9578 214.515 31.9227 214.776 32.8474L212.826 34.8778L214.635 38.0138L217.45 37.4308C218.776 38.7776 220.445 39.7627 222.314 40.2653L223.259 43.0997L226.878 43.0796L227.682 40.2854C229.612 39.8029 231.32 38.7977 232.667 37.4308L235.482 38.0138L237.291 34.8778L235.341 32.8474C235.502 31.9428 235.643 30.9779 235.643 29.9727ZM224.948 35.8829C221.671 35.8829 219.018 33.2294 219.018 29.9527C219.018 26.6759 221.671 24.0224 224.948 24.0224C228.225 24.0224 230.878 26.6759 230.878 29.9527C230.878 33.2294 228.225 35.8829 224.948 35.8829Z" fill="#F8FCFE"/>
<path d="M222.898 43.5218L221.933 40.6069C220.184 40.1043 218.576 39.1595 217.269 37.893L214.374 38.4961L212.284 34.8374L214.294 32.7468C214.053 31.8421 213.932 30.9174 213.932 29.9726C213.932 29.068 214.032 28.1633 214.254 27.2989L212.203 24.9671L214.334 21.3486L217.249 22.0924C218.576 20.7857 220.204 19.8409 221.993 19.3383L222.817 16.4838H227.019L227.943 19.3383C229.733 19.8409 231.361 20.7857 232.708 22.0924L235.562 21.3687L237.693 24.9871L235.683 27.2587C235.904 28.1432 236.025 29.068 236.025 29.9927C236.025 30.9375 235.904 31.8623 235.663 32.7669L237.673 34.8575L235.582 38.5162L232.688 37.9132C231.341 39.2198 229.692 40.1646 227.903 40.6672L227.079 43.5218H222.898ZM217.51 37.0085L217.671 37.1693C218.958 38.476 220.586 39.4208 222.355 39.8832L222.556 39.9434L223.481 42.7177L226.496 42.6975L227.28 39.9636L227.501 39.9033C229.31 39.4409 230.979 38.4961 232.306 37.1492L232.467 36.9884L235.221 37.5513L236.728 34.9379L234.819 32.9478L234.879 32.7266C235.14 31.822 235.261 30.8772 235.261 29.9324C235.261 29.0077 235.14 28.0829 234.899 27.1984L234.839 26.9974L236.748 24.8464L235.221 22.2331L232.507 22.9166L232.346 22.7558C231.039 21.4089 229.391 20.4641 227.582 20.0017L227.36 19.9414L226.476 17.2276H223.461L222.677 19.9414L222.455 20.0017C220.646 20.4641 219.018 21.429 217.711 22.7558L217.55 22.9166L214.776 22.213L213.248 24.8263L215.198 27.0577L215.138 27.2587C214.897 28.1231 214.776 29.0278 214.776 29.9324C214.776 30.8772 214.897 31.822 215.158 32.7266L215.219 32.9478L213.309 34.9178L214.816 37.5311L217.51 37.0085ZM224.948 36.2848C221.45 36.2848 218.616 33.4504 218.616 29.9525C218.616 26.4547 221.45 23.6202 224.948 23.6202C228.446 23.6202 231.28 26.4547 231.28 29.9525C231.28 33.4504 228.446 36.2848 224.948 36.2848ZM224.948 24.4042C221.893 24.4042 219.42 26.8768 219.42 29.9324C219.42 32.988 221.893 35.4606 224.948 35.4606C228.004 35.4606 230.476 32.988 230.476 29.9324C230.476 26.8768 228.004 24.4042 224.948 24.4042Z" fill="#193040"/>
<path d="M245.654 49.3721C245.654 48.7489 245.573 48.1257 245.413 47.5427L246.659 46.1356L245.493 44.1454L243.724 44.6077C242.86 43.7433 241.774 43.1 240.548 42.7784L239.965 41.0094H237.653L237.13 42.7985C235.904 43.1202 234.818 43.7635 233.974 44.6279L232.165 44.1655L230.999 46.1557L232.286 47.6231C232.125 48.186 232.044 48.7891 232.044 49.4123C232.044 50.0555 232.125 50.6788 232.306 51.2617L231.059 52.5684L232.205 54.5787L234.014 54.1967C234.859 55.0611 235.924 55.6843 237.11 56.006L237.713 57.8152H240.025L240.528 56.026C241.754 55.7245 242.86 55.0812 243.724 54.1967L245.533 54.5787L246.679 52.5684L245.433 51.2617C245.573 50.6385 245.654 50.0154 245.654 49.3721ZM238.819 53.1514C236.728 53.1514 235.02 51.4628 235.02 49.352C235.02 47.2613 236.708 45.5526 238.819 45.5526C240.93 45.5526 242.618 47.2412 242.618 49.352C242.618 51.4427 240.91 53.1514 238.819 53.1514Z" fill="#F8FCFE"/>
<path d="M237.392 58.1767L236.768 56.2871C235.683 55.9654 234.678 55.3825 233.854 54.5784L231.984 54.9603L230.537 52.4475L231.843 51.1006C231.703 50.5377 231.642 49.9548 231.642 49.3718C231.642 48.8089 231.703 48.246 231.843 47.7032L230.517 46.1955L231.984 43.6827L233.874 44.1652C234.718 43.3611 235.723 42.7781 236.829 42.4564L237.371 40.6071H240.286L240.889 42.4564C241.995 42.7781 243.02 43.3611 243.865 44.1652L245.714 43.6827L247.182 46.1955L245.875 47.6631C246.016 48.226 246.076 48.7888 246.076 49.3718C246.076 49.9548 245.996 50.5377 245.875 51.1006L247.182 52.4475L245.734 54.9603L243.865 54.5784C243.02 55.3825 241.995 55.9856 240.869 56.3072L240.327 58.1566L237.392 58.1767ZM234.115 53.7139L234.276 53.8748C235.08 54.699 236.085 55.282 237.191 55.5835L237.392 55.6438L237.975 57.3927H239.703L240.206 55.684L240.427 55.6236C241.553 55.3422 242.598 54.7392 243.422 53.8949L243.583 53.734L245.312 54.0959L246.176 52.6083L244.97 51.3619L245.031 51.1408C245.191 50.5779 245.272 49.9949 245.272 49.3918C245.272 48.8089 245.191 48.2259 245.031 47.6831L244.97 47.4821L246.176 46.1151L245.312 44.6276L243.603 45.0698L243.443 44.909C242.618 44.0647 241.593 43.4817 240.467 43.1801L240.246 43.1199L239.683 41.4112H237.955L237.452 43.1199L237.231 43.1801C236.105 43.4817 235.08 44.0647 234.256 44.909L234.095 45.0698L232.346 44.6276L231.481 46.1151L232.708 47.5223L232.647 47.7234C232.507 48.2661 232.426 48.829 232.426 49.3918C232.426 49.9748 232.507 50.5779 232.668 51.1408L232.728 51.3619L231.522 52.6083L232.386 54.0959L234.115 53.7139ZM238.819 53.5531C236.507 53.5531 234.618 51.6635 234.618 49.3517C234.618 47.0399 236.507 45.1503 238.819 45.1503C241.131 45.1503 243.02 47.0399 243.02 49.3517C243.02 51.6635 241.131 53.5531 238.819 53.5531ZM238.819 45.9544C236.949 45.9544 235.422 47.4821 235.422 49.3517C235.422 51.2212 236.949 52.749 238.819 52.749C240.688 52.749 242.216 51.2212 242.216 49.3517C242.216 47.4821 240.688 45.9544 238.819 45.9544Z" fill="#193040"/>
<path d="M242.638 195.277H244.448L226.737 133.662H224.747L228.265 145.764H211.077L207.6 133.662H205.609L223.501 195.277H225.31L222.556 185.708H239.864L242.638 195.277ZM235.623 171.073H218.355L215.299 160.419H232.547L235.623 171.073ZM228.848 147.754L231.944 158.408H214.696L211.64 147.754H228.848ZM221.973 183.718L218.917 173.063H236.206L239.301 183.718H221.973Z" fill="#193040"/>
<path d="M148.518 195.277H146.709L164.419 133.662H166.41L162.892 145.764H180.099L183.577 133.662H185.567L167.676 195.277H165.867L168.621 185.708H151.313L148.518 195.277ZM155.554 171.073H172.822L175.878 160.419H158.63L155.554 171.073ZM162.309 147.754L159.213 158.408H176.441L179.496 147.754H162.309ZM169.184 183.718L172.239 173.063H154.951L151.855 183.718H169.184Z" fill="#193040"/>
<path d="M231.622 132.054H158.087V135.311H231.622V132.054Z" fill="#F8FCFE"/>
<path d="M232.024 135.693H157.685V131.652H232.024V135.693ZM158.489 134.889H231.22V132.456H158.489V134.889Z" fill="#193040"/>
<path d="M30.8976 46.7987C37.5035 46.7987 42.8586 41.4435 42.8586 34.8376C42.8586 28.2317 37.5035 22.8766 30.8976 22.8766C24.2917 22.8766 18.9365 28.2317 18.9365 34.8376C18.9365 41.4435 24.2917 46.7987 30.8976 46.7987Z" fill="#F8FCFE"/>
<path d="M30.8973 47.2008C24.0825 47.2008 18.5342 41.6525 18.5342 34.8377C18.5342 28.0229 24.0825 22.4746 30.8973 22.4746C37.7121 22.4746 43.2604 28.0229 43.2604 34.8377C43.2604 41.6525 37.7121 47.2008 30.8973 47.2008ZM30.8973 23.2787C24.5248 23.2787 19.3383 28.4652 19.3383 34.8377C19.3383 41.2102 24.5248 46.3967 30.8973 46.3967C37.2698 46.3967 42.4563 41.2102 42.4563 34.8377C42.4563 28.4652 37.2698 23.2787 30.8973 23.2787Z" fill="#193040"/>
<path d="M30.0128 41.6927V40.0845C28.887 40.0241 27.7814 39.7226 27.1582 39.3607L27.6608 37.3907C28.3644 37.7727 29.3695 38.1345 30.455 38.1345C31.4199 38.1345 32.0632 37.7727 32.0632 37.0892C32.0632 36.4459 31.5205 36.0438 30.2741 35.6216C28.4649 35.0186 27.2386 34.1743 27.2386 32.546C27.2386 31.0584 28.2839 29.9126 30.0932 29.5507V27.9425H31.7416V29.4301C32.8673 29.4904 33.6312 29.7115 34.174 29.993L33.6916 31.9027C33.2493 31.7218 32.4854 31.3398 31.2591 31.3398C30.1736 31.3398 29.8117 31.8022 29.8117 32.2847C29.8117 32.8476 30.3947 33.1892 31.8421 33.732C33.8523 34.4356 34.6564 35.3604 34.6564 36.8882C34.6564 38.3959 33.591 39.6623 31.6612 40.0041V41.7128H30.0128V41.6927Z" fill="#2595DF"/>
<path d="M190.25 122.606L190.371 128.636H196.643L196.522 122.606H190.25Z" fill="#F8FCFE"/>
<path d="M197.065 129.039H189.969L189.828 122.204H196.904L197.065 129.039ZM190.753 128.235H196.221L196.12 123.008H190.652L190.753 128.235Z" fill="#193040"/>
<path d="M196.643 126.666C196.643 126.666 193.225 129.26 190.371 126.666L181.867 131.089C181.485 131.29 181.626 131.853 182.048 131.853H197.085C197.568 131.853 197.909 131.41 197.789 130.948L196.643 126.666Z" fill="#193040"/>
<path d="M208.344 122.606L209.671 128.636H215.943L214.616 122.606H208.344Z" fill="#F8FCFE"/>
<path d="M216.445 129.039H209.349L207.841 122.204H214.937L216.445 129.039ZM209.992 128.235H215.46L214.314 123.008H208.866L209.992 128.235Z" fill="#193040"/>
<path d="M215.942 126.666C215.942 126.666 212.524 129.26 209.67 126.666L201.166 131.089C200.784 131.29 200.925 131.853 201.347 131.853H216.384C216.866 131.853 217.208 131.41 217.087 130.948L215.942 126.666Z" fill="#193040"/>
<path d="M188.461 51.5026L186.833 81.2344L187.758 124.013H197.286L199.236 76.0077L201.206 52.8092L188.461 51.5026Z" fill="#F8FCFE"/>
<path d="M197.668 124.415H187.376V124.013L186.451 81.2142V81.1941L188.1 51.0603L201.649 52.4474L199.659 76.0277L197.668 124.415ZM188.16 123.611H196.905L198.855 75.9875L200.784 53.1711L188.863 51.9448L187.255 81.2343L188.16 123.611Z" fill="#193040"/>
<path d="M192.06 51.5027L195.658 80.2494L206.332 124.013H215.901L209.046 78.9427L207.74 51.5027H192.06Z" fill="#F8FCFE"/>
<path d="M216.364 124.415H206.011L205.931 124.114L195.256 80.3301V80.31L191.598 51.121H208.122L209.449 78.9229L216.364 124.415ZM206.654 123.611H215.439L208.645 78.9832V78.9631L207.358 51.905H192.522L196.06 80.1692L206.654 123.611Z" fill="#193040"/>
<path d="M159.413 25.9122L155.795 23.4999L152.578 18.6752L148.759 17.067L153.764 27.3797L159.413 30.5358V25.9122Z" fill="#F8FCFE"/>
<path d="M159.815 31.2193L153.463 27.6813L147.935 16.2831L152.84 18.3536L156.076 23.2185L159.815 25.7112V31.2193ZM154.066 27.0982L159.011 29.8523V26.1334L155.513 23.8014L152.317 19.017L149.583 17.8712L154.066 27.0982Z" fill="#193040"/>
<path d="M175.354 18.4741C176.963 16.2829 174.108 10.4532 173.766 7.77951C172.641 -0.623376 181.948 0.0600833 181.948 0.0600833C189.406 -0.683713 191.075 5.66874 191.819 8.58362C193.266 14.333 195.819 14.9762 197.889 16.5643C199.96 18.1524 202.996 23.4394 199.638 26.3141C198.111 27.6208 179.435 30.8573 176.319 29.8321C172.741 28.6259 173.726 20.6653 175.354 18.4741Z" fill="#193040"/>
<path d="M189.447 20.0218L186.211 12.8653C186.211 12.8653 188.743 8.02061 185.406 8.48297C185.406 8.48297 178.813 9.40766 177.546 4.78406C177.546 4.78406 173.164 17.3884 181.466 16.3431L181.687 21.6502L189.447 20.0218Z" fill="#F8FCFE"/>
<path d="M181.325 22.1327L181.084 16.7653C179.335 16.8859 178.008 16.4236 177.124 15.338C174.571 12.1618 177.043 4.94501 177.144 4.62337L177.566 3.39709L177.908 4.64345C179.074 8.8851 185.265 8.06092 185.326 8.04082C186.21 7.9202 186.853 8.12123 187.215 8.64389C188.019 9.80984 186.994 12.1417 186.632 12.8453L189.989 20.2833L181.325 22.1327ZM181.868 15.8808L182.089 21.1678L188.884 19.7405L185.768 12.8453L185.868 12.6644C186.391 11.6593 187.054 9.78972 186.592 9.12634C186.411 8.8851 186.049 8.78458 185.486 8.86499C185.426 8.86499 179.636 9.62891 177.626 5.97024C177.043 8.06091 176.058 12.6845 177.787 14.8355C178.531 15.7602 179.777 16.1422 181.446 15.921L181.868 15.8808Z" fill="#193040"/>
<path d="M181.566 31.0181L172.218 37.4912C171.253 38.1546 170.007 38.2752 168.941 37.7928L157.805 32.747L158.609 24.7059L169.303 29.7115L181.526 20.002L181.566 31.0181Z" fill="#2595DF"/>
<path d="M161.624 45.11L158.568 44.0245C158.568 44.0245 159.111 45.6327 160.177 46.5172H153.764C153.764 46.5172 153.06 47.06 153.764 47.9445C153.764 47.9445 153.06 48.6481 153.764 49.3718C153.764 49.3718 153.583 50.2563 154.126 50.6181C154.126 50.6181 154.126 51.3217 155.01 51.5026L158.749 52.0454L163.292 51.6434L164.639 50.799L175.917 47.6229L172.701 42.9993L163.574 46.1554L161.624 45.11Z" fill="#F8FCFE"/>
<path d="M158.73 52.4477L154.91 51.9048C154.106 51.744 153.804 51.2214 153.724 50.8193C153.342 50.4575 153.282 49.8946 153.322 49.4925C153.04 49.1307 152.96 48.6885 153.101 48.2664C153.141 48.1457 153.201 48.0251 153.262 47.9447C153.081 47.6432 153 47.3416 153.04 47.0401C153.101 46.5375 153.463 46.2359 153.503 46.2158L153.603 46.1355H159.232C158.549 45.2308 158.187 44.2256 158.187 44.1653L157.925 43.3814L161.825 44.7684L163.594 45.7334L172.841 42.5371L176.56 47.8643L164.8 51.1812L163.433 52.0456L158.73 52.4477ZM155.071 51.1209L158.75 51.6435L163.152 51.2415L164.459 50.4173L164.519 50.3971L175.254 47.3818L172.54 43.4618L163.534 46.5777L161.463 45.452L159.312 44.688C159.554 45.1705 159.936 45.7736 160.438 46.1957L161.282 46.8993H153.925C153.824 47.04 153.764 47.2813 154.066 47.6633L154.287 47.9447L154.026 48.206C153.905 48.3266 153.644 48.6885 154.026 49.0705L154.186 49.2312L154.146 49.4323C154.106 49.5931 154.086 50.0957 154.327 50.2766L154.508 50.3971V50.6183C154.508 50.6786 154.548 51.0002 155.071 51.1209Z" fill="#193040"/>
<path d="M209.368 52.3872L202.433 34.9582L197.568 21.9519C196.924 20.223 195.698 18.7957 194.11 17.871C190.793 15.9814 187.617 16.0015 187.617 16.0015C185.667 19.037 181.466 19.7808 181.466 19.7808C180.661 22.1931 176.058 33.2495 180.48 36.7876C181.023 37.2098 181.928 38.5566 182.39 39.1597L170.067 43.4013L173.083 51.4424L186.129 46.879C187.416 50.7588 187.275 54.3774 187.275 54.3774C187.275 54.3774 193.989 56.066 199.015 53.2516C201.287 51.9851 209.368 52.3872 209.368 52.3872Z" fill="#2595DF"/>
<path d="M185.125 47.4218L184.823 46.678L192.603 43.4415C193.91 42.8988 194.694 41.5921 194.573 40.1849L193.608 29.3496L194.412 29.2692L195.377 40.1045C195.538 41.8534 194.553 43.5018 192.925 44.1652L185.125 47.4218Z" fill="#193040"/>
<path d="M37.4916 152.257L27.2393 195.477H29.8526L41.5121 152.257H37.4916Z" fill="#F8FCFE"/>
<path d="M30.1538 195.879H26.7363L37.1696 151.855H42.0344L41.8937 152.357L30.1538 195.879ZM27.7415 195.075H29.5306L40.969 152.659H37.7928L27.7415 195.075Z" fill="#193040"/>
<path d="M54.7793 152.257L65.0316 195.477H62.4183L50.7588 152.257H54.7793Z" fill="#F8FCFE"/>
<path d="M65.5344 195.879H62.117L62.0366 195.578L50.2363 151.855H55.1012L55.1816 152.156L65.5344 195.879ZM62.7201 195.075H64.5092L54.4378 152.659H51.2616L62.7201 195.075Z" fill="#193040"/>
<path d="M42.0946 86.1792C42.0946 86.1792 31.0985 84.8324 35.9231 77.113C35.9231 77.113 33.6113 70.7405 40.5467 70.9415C40.5467 70.9415 41.5117 66.1169 45.1703 69.2127C45.1703 69.2127 50.3769 66.6999 50.9599 71.1425C50.9599 71.1425 51.5429 73.6554 48.4471 75.1832L42.0946 86.1792Z" fill="#193040"/>
<path d="M39.3809 95.4865L41.8937 84.8321C41.8937 84.8321 37.2701 81.9373 40.5469 80.0075C40.5469 80.0075 41.7128 80.0074 42.2757 80.7713C42.2757 80.7713 41.5118 76.3287 44.5875 76.1477C47.6632 75.9668 49.0302 74.0168 49.0302 74.0168C49.0302 74.0168 55.9656 85.013 52.3069 86.9429C48.6482 88.8727 48.4472 87.9078 48.4472 87.9078L49.4121 95.8684L39.3809 95.4865Z" fill="#F8FCFE"/>
<path d="M49.8741 96.311L38.8779 95.8888L41.431 85.0334C40.7274 84.5509 38.9383 83.1638 38.9584 81.6561C38.9785 80.8922 39.4207 80.2288 40.3254 79.6861L40.4259 79.6258H40.5264C40.5666 79.6258 41.1697 79.6258 41.7727 79.9273C41.7526 79.0227 41.8531 77.6758 42.5768 76.7712C43.0593 76.1681 43.7227 75.8465 44.5469 75.7862C47.3814 75.6053 48.6277 73.8965 48.688 73.8362L49.0298 73.3538L49.3514 73.8563C49.5725 74.1981 54.5982 82.219 53.6333 85.8375C53.4524 86.5411 53.0503 87.0436 52.4673 87.3452C50.8189 88.2096 49.653 88.6317 48.9092 88.5915L49.8741 96.311ZM39.8831 95.1048L48.9494 95.4465L48.0447 87.9483L48.8287 87.8276C48.8086 87.7472 48.7685 87.707 48.7685 87.707C48.7685 87.707 49.3313 88.0487 52.1055 86.5812C52.4874 86.3802 52.7287 86.0586 52.8694 85.5761C53.6333 82.7617 50.0148 76.4496 48.9695 74.6806C48.3463 75.3037 46.9391 76.3892 44.6072 76.5299C44.0041 76.5701 43.5418 76.7913 43.2201 77.2135C42.2954 78.3996 42.6774 80.6711 42.6774 80.6912L42.9588 82.3397L41.9536 81.0129C41.5918 80.5304 40.9083 80.4299 40.647 80.4098C40.064 80.7716 39.7826 81.1737 39.7625 81.6361C39.7424 82.7618 41.4511 84.0885 42.0943 84.4906L42.3356 84.6515L39.8831 95.1048Z" fill="#193040"/>
<path d="M62.7204 185.828L61.1726 192.442H54.2773L55.8252 185.828H62.7204Z" fill="#F8FCFE"/>
<path d="M61.4938 192.844H53.7744L55.5033 185.426H63.2226L61.4938 192.844ZM54.7795 192.04H60.8505L62.1974 186.23H56.1264L54.7795 192.04Z" fill="#193040"/>
<path d="M54.2762 190.291C54.2762 190.291 58.0153 193.125 61.1714 190.291L70.499 195.156C70.9011 195.377 70.7603 196 70.298 196H53.8138C53.2912 196 52.9092 195.517 53.0499 195.015L54.2762 190.291Z" fill="#193040"/>
<path d="M20.8058 116.876C19.3584 117.358 21.429 120.876 22.816 124.113C24.6253 128.334 26.2335 132.958 26.6355 142.004C26.8567 146.909 29.2489 154.468 42.3156 153.865H70.8613V150.447C70.8613 150.447 49.9545 152.659 38.094 149.844C35.8827 149.322 30.8772 148.236 30.053 140.999C29.5504 136.597 28.0628 128.797 26.0325 123.711C25.2283 121.701 23.2181 116.072 20.8058 116.876Z" fill="#2595DF"/>
<path d="M91.0643 169.022L93.6978 175.997L87.0237 177.646L84.3701 171.494L91.0643 169.022Z" fill="#F8FCFE"/>
<path d="M86.7826 178.129L83.8477 171.274L91.3057 168.519L94.2407 176.279L86.7826 178.129ZM84.9131 171.736L87.245 177.184L93.1551 175.716L90.8232 169.545L84.9131 171.736Z" fill="#193040"/>
<path d="M86.0994 175.656C86.0994 175.656 90.4214 177.506 92.7936 173.988L103.026 176.46C103.468 176.561 103.488 177.204 103.026 177.325L87.0241 181.305C86.5215 181.426 86.0391 181.044 86.0391 180.521L86.0994 175.656Z" fill="#193040"/>
<path d="M49.0497 92.4511C49.0497 92.4511 46.6374 97.4768 39.8025 91.848C39.8025 91.848 35.0583 93.5567 31.2388 95.9288C29.4295 97.0546 28.2234 98.9442 27.942 101.055L24.9668 123.469C24.7255 125.238 26.1126 126.827 27.9018 126.827H33.7717L32.9676 131.651H56.4877L56.8897 113.559L58.4979 123.409L65.9359 121.6L59.0608 98.4216C58.5784 96.8134 57.3722 95.5268 55.8042 94.9438L49.0497 92.4511Z" fill="#F8FCFE"/>
<path d="M56.8898 132.053H32.5053L33.3094 127.229H27.9219C26.957 127.229 26.0323 126.807 25.389 126.083C24.7457 125.359 24.4643 124.374 24.5849 123.429L27.5601 101.015C27.8616 98.7635 29.1281 96.7935 31.0378 95.6074C34.8372 93.2353 39.6216 91.5064 39.6819 91.5064L39.9031 91.426L40.084 91.5668C42.5365 93.5971 44.6674 94.4414 46.3761 94.0595C48.0044 93.6976 48.6879 92.3708 48.708 92.3105L48.8688 91.989L49.2106 92.1095L55.965 94.6023C57.6536 95.2255 58.9603 96.6125 59.4629 98.3413L66.4586 121.922L58.1964 123.932L57.2114 117.961L56.8898 132.053ZM33.4501 131.249H56.0857L56.4877 113.559L57.2918 113.499L58.8397 122.927L65.4535 121.319L58.699 98.5423C58.2567 97.0547 57.131 95.8687 55.6836 95.3259L49.2508 92.9538C48.909 93.4765 48.0647 94.4816 46.557 94.8233C44.6272 95.2455 42.3355 94.4012 39.7422 92.3105C38.7773 92.6724 34.7568 94.2404 31.46 96.2708C29.7513 97.3362 28.6255 99.0852 28.3642 101.116L25.389 123.53C25.2885 124.254 25.5096 124.997 26.0121 125.56C26.4946 126.123 27.1982 126.445 27.942 126.445H34.2743L33.4501 131.249Z" fill="#193040"/>
<path d="M52.8693 186.532L64.9309 186.733C64.9309 186.733 77.897 145.623 77.897 145.221C77.897 144.819 75.0827 138.587 66.4385 140.798C57.7944 143.009 39.6016 150.307 39.6016 150.307C39.6016 150.307 55.8847 153.825 62.1165 152.357L52.8693 186.532Z" fill="#193040"/>
<path d="M33.8722 129.34C33.8722 129.34 27.2384 142.467 33.8722 148.176C40.5061 153.885 58.5984 147.432 67.0415 143.412C67.0415 143.412 71.2631 140.999 74.0774 143.211C76.8918 145.422 75.0825 152.257 75.0825 152.257L81.4149 176.078L92.4713 170.651C92.4713 170.651 86.8225 149.302 81.8169 134.969C80.7917 132.034 77.9572 130.104 74.8413 130.224L48.9492 131.149L33.8722 129.34Z" fill="#193040"/>
<path d="M41.5107 119.489L41.9128 123.108L48.1446 123.51C48.1446 123.51 49.1497 123.711 49.3508 122.706C49.3508 122.706 50.5569 122.304 50.3559 121.499C50.3559 121.499 51.562 121.298 51.16 120.494L52.7682 121.902C52.7682 121.902 53.5723 123.309 54.7785 122.907L52.9692 120.092L50.1549 118.082C50.1549 118.082 46.1343 118.685 44.7272 119.087C43.32 119.489 41.5107 119.489 41.5107 119.489Z" fill="#F8FCFE"/>
<path d="M48.3461 123.932C48.2456 123.932 48.1652 123.932 48.0847 123.912L41.5313 123.49L41.0488 119.087H41.4911C41.5112 119.087 43.2601 119.087 44.607 118.705C46.0142 118.303 49.9141 117.72 50.095 117.68L50.2558 117.66L53.2712 119.811L55.4021 123.128L54.9196 123.289C53.7537 123.671 52.829 122.746 52.4671 122.163L51.5022 121.319C51.3213 121.58 51.0398 121.721 50.7986 121.801C50.7383 122.404 50.1754 122.806 49.7131 123.007C49.4517 123.691 48.8486 123.932 48.3461 123.932ZM42.2751 122.726L48.2254 123.108C48.4064 123.148 48.8486 123.168 48.9492 122.625L48.9894 122.404L49.2105 122.324C49.2105 122.324 50.0548 122.022 49.9543 121.6L49.8538 121.178L50.276 121.097C50.477 121.057 50.7584 120.937 50.8187 120.836C50.8388 120.796 50.8187 120.716 50.7785 120.675L49.8739 118.846L53.0702 121.64L53.1104 121.701C53.1305 121.741 53.4923 122.344 54.0552 122.525L52.6681 120.374L50.0548 118.504C49.2909 118.625 46.0544 119.127 44.8483 119.469C43.823 119.771 42.6169 119.851 41.9736 119.871L42.2751 122.726Z" fill="#193040"/>
<path d="M87.9889 110.504H61.5339C60.8705 110.504 60.2875 110.906 60.0664 111.529L52.749 131.551H82.521L89.4564 112.595C89.8383 111.569 89.0744 110.504 87.9889 110.504Z" fill="#193040"/>
<path d="M57.1311 129.501H38.8779V131.552H57.1311V129.501Z" fill="#193040"/>
<path d="M89.6969 110.504H63.2419C62.5785 110.504 61.9955 110.906 61.7744 111.529L54.457 131.551H84.229L91.1644 112.595C91.5464 111.569 90.7824 110.504 89.6969 110.504Z" fill="#2595DF"/>
<path d="M75.7027 121.897C76.2841 120.686 76.009 119.345 75.0881 118.903C74.1673 118.461 72.9496 119.085 72.3682 120.296C71.7867 121.507 72.0618 122.847 72.9826 123.289C73.9035 123.731 75.1213 123.108 75.7027 121.897Z" fill="#193040"/>
<path d="M35.1796 106.322L34.3755 119.389H42.4166V126.224L33.7725 126.827" fill="#F8FCFE"/>
<path d="M33.7922 127.229L33.752 126.425L42.0141 125.842V119.791H33.953L34.7772 106.302L35.5813 106.342L34.7973 118.987H42.8183V126.605L33.7922 127.229Z" fill="#193040"/>
<path d="M258.257 195.497C258.257 195.497 259.584 189.487 256.247 183.637C256.247 183.637 254.417 177.948 257.413 172.781C260.428 167.595 257.413 161.745 253.895 160.921C250.377 160.076 246.216 162.931 245.21 166.931C244.205 170.932 245.05 173.786 239.019 176.782C233.008 179.797 233.249 195.497 233.249 195.497H258.257Z" fill="#F8FCFE"/>
<path d="M258.579 195.899H232.888V195.497C232.868 194.854 232.707 179.496 238.879 176.42C243.542 174.088 243.904 171.977 244.407 169.062C244.527 168.359 244.648 167.615 244.849 166.831C245.894 162.629 250.277 159.634 254.016 160.519C255.765 160.941 257.413 162.509 258.318 164.62C259.484 167.333 259.283 170.369 257.775 172.962C255.021 177.706 256.488 182.973 256.629 183.456C259.986 189.366 258.72 195.316 258.66 195.558L258.579 195.899ZM233.672 195.095H257.916C258.117 193.809 258.7 188.723 255.905 183.838L255.865 183.757C255.785 183.516 254.016 177.847 257.071 172.58C258.458 170.208 258.639 167.434 257.574 164.961C256.77 163.072 255.323 161.685 253.815 161.323C250.478 160.519 246.558 163.253 245.613 167.052C245.432 167.816 245.291 168.54 245.171 169.223C244.668 172.138 244.246 174.651 239.22 177.164C234.014 179.737 233.692 192.663 233.672 195.095Z" fill="#193040"/>
<path d="M245.593 195.739L244.869 195.397C249.794 184.622 253.493 160.901 253.533 160.66L254.337 160.78C254.257 161.042 250.558 184.883 245.593 195.739Z" fill="#193040"/>
<path d="M271.465 176.682C272.908 176.682 274.078 175.511 274.078 174.068C274.078 172.625 272.908 171.455 271.465 171.455C270.022 171.455 268.852 172.625 268.852 174.068C268.852 175.511 270.022 176.682 271.465 176.682Z" fill="#193040"/>
<path d="M258.258 195.799L257.916 194.854C265.796 191.96 270.44 179.415 270.48 179.275L271.425 179.617C271.224 180.159 266.56 192.744 258.258 195.799Z" fill="#193040"/>
<path d="M247.294 163.421L246.541 163.702L250.813 175.153L251.566 174.872L247.294 163.421Z" fill="#193040"/>
<path d="M245.193 168.992L244.445 169.288L249.386 181.775L250.133 181.479L245.193 168.992Z" fill="#193040"/>
<path d="M275.526 174.772C275.526 174.772 271.465 172.661 267.444 173.927C267.444 173.927 266.339 179.837 270.46 180.28C275.124 180.782 275.526 174.772 275.526 174.772Z" fill="#2595DF"/>
<path d="M281.898 174.591C283.208 174.591 284.271 173.529 284.271 172.219C284.271 170.909 283.208 169.847 281.898 169.847C280.588 169.847 279.526 170.909 279.526 172.219C279.526 173.529 280.588 174.591 281.898 174.591Z" fill="#193040"/>
<path d="M263.103 191.98C263.103 191.98 265.435 188.643 265.113 185.969C264.791 183.295 263.103 182.451 262.439 182.632C261.776 182.813 260.61 183.134 261.113 185.647C261.595 188.14 263.103 191.98 263.103 191.98Z" fill="#193040"/>
<path d="M257.323 186.116L244.927 195.217L245.403 195.865L257.799 186.764L257.323 186.116Z" fill="#193040"/>
<path d="M258.172 189.93L250.854 195.181L251.323 195.834L258.641 190.584L258.172 189.93Z" fill="#193040"/>
<path d="M223.24 170.008C223.24 170.008 224.908 166.49 223.24 161.987C221.571 157.484 220.405 143.432 230.416 144.115C240.447 144.779 241.111 158.147 240.106 165.002C239.1 171.857 240.608 176.521 242.277 180.38C243.945 184.22 249.293 187.055 248.468 195.578H214.555C214.555 195.578 212.887 182.049 223.24 170.008Z" fill="#F8FCFE"/>
<path d="M248.85 195.98H214.213L214.173 195.618C214.153 195.477 213.751 192.12 214.635 187.235C215.439 182.732 217.53 176.058 222.917 169.806C223.098 169.384 224.365 166.168 222.877 162.147C221.691 158.931 220.726 150.749 223.923 146.487C225.43 144.477 227.622 143.552 230.476 143.733C233.311 143.914 235.622 145.1 237.351 147.251C240.97 151.734 241.331 159.654 240.547 165.082C239.562 171.796 240.99 176.34 242.698 180.24C243.181 181.325 243.985 182.37 244.849 183.476C246.94 186.15 249.533 189.487 248.93 195.638L248.85 195.98ZM214.937 195.176H248.126C248.568 189.567 246.237 186.592 244.186 183.938C243.302 182.793 242.457 181.707 241.935 180.521C240.266 176.702 238.718 171.877 239.743 164.921C240.507 159.655 240.186 151.995 236.728 147.714C235.14 145.764 233.029 144.678 230.436 144.497C227.883 144.336 225.913 145.14 224.586 146.93C221.571 150.97 222.515 158.75 223.661 161.846C225.37 166.469 223.722 170.027 223.641 170.168L223.621 170.208L223.581 170.249C214.354 180.963 214.756 192.985 214.937 195.176Z" fill="#193040"/>
<path d="M278.924 181.204C278.924 181.204 284.13 181.627 284.975 180.38C285.799 179.134 283.548 178.028 280.572 179.918C280.15 180.179 278.924 181.204 278.924 181.204Z" fill="#193040"/>
<path d="M277.315 183.858C277.315 183.858 282.321 185.346 283.406 184.3C284.492 183.255 282.502 181.707 279.205 182.934C278.723 183.094 277.315 183.858 277.315 183.858Z" fill="#193040"/>
<path d="M266.238 195.9L265.615 195.095C274.943 187.899 280.954 177.305 281.014 177.204L281.898 177.707C281.858 177.807 275.747 188.562 266.238 195.9Z" fill="#193040"/>
<path d="M230.919 195.558L230.135 195.417C236.548 160.841 230.215 144.336 230.155 144.176L230.899 143.874C230.959 144.035 232.567 148.116 233.371 156.559C234.115 164.338 234.296 177.405 230.919 195.558Z" fill="#193040"/>
<path d="M238.981 151.578L232.839 158.624L233.445 159.153L239.587 152.106L238.981 151.578Z" fill="#193040"/>
<path d="M240.006 156.274L233.146 164.083L233.751 164.613L240.61 156.805L240.006 156.274Z" fill="#193040"/>
<path d="M285.577 172.862C285.577 172.862 282.119 170.852 278.22 172.098C278.22 172.098 277.214 177.466 280.954 177.868C285.215 178.33 285.577 172.862 285.577 172.862Z" fill="#2595DF"/>
<path d="M222.215 171.327L221.584 171.825L231.842 184.83L232.474 184.332L222.215 171.327Z" fill="#193040"/>
<path d="M220.211 174.432L219.585 174.937L231.317 189.468L231.942 188.963L220.211 174.432Z" fill="#193040"/>
<path d="M26.0319 170.867C26.8727 169.862 26.7399 168.366 25.7352 167.525C24.7305 166.684 23.2343 166.817 22.3935 167.822C21.5527 168.827 21.6856 170.323 22.6903 171.164C23.695 172.004 25.1911 171.871 26.0319 170.867Z" fill="#193040"/>
<path d="M20.705 178.169C20.705 178.169 16.4432 175.134 16.604 173.646C16.7649 172.158 19.2173 172.761 20.2828 176.099C20.4235 176.601 20.705 178.169 20.705 178.169Z" fill="#193040"/>
<path d="M20.2429 181.245C20.2429 181.245 15.4384 179.174 15.2977 177.687C15.1569 176.199 17.6697 176.28 19.3986 179.335C19.6398 179.757 20.2429 181.245 20.2429 181.245Z" fill="#193040"/>
<path d="M22.1327 195.638C18.1122 183.155 21.1477 173.887 21.2683 173.505L22.2131 173.827C22.1729 173.927 19.1575 183.195 23.0775 195.337L22.1327 195.638Z" fill="#193040"/>
<path d="M20.9463 167.515C20.9463 167.515 24.8864 168.178 27.0776 171.656C27.0776 171.656 24.404 176.42 21.268 174.329C17.7098 171.937 20.9463 167.515 20.9463 167.515Z" fill="#2595DF"/>
<path d="M41.2497 195.377C41.2497 195.377 42.2549 190.874 39.7421 186.492C39.7421 186.492 38.355 182.23 40.6266 178.35C42.8781 174.47 40.6266 170.088 37.9931 169.465C35.3597 168.842 32.2237 170.972 31.4799 173.968C30.7361 176.983 31.1985 181.205 26.6955 183.456C22.1925 185.708 22.5343 195.377 22.5343 195.377H41.2497Z" fill="#F8FCFE"/>
<path d="M41.5715 195.779H22.1323L22.1121 195.397C22.092 194.995 21.8106 185.446 26.4945 183.114C29.8718 181.426 30.2939 178.652 30.696 175.958C30.7965 175.234 30.9171 174.531 31.0779 173.887C31.882 170.691 35.219 168.399 38.0736 169.083C39.4205 169.405 40.6669 170.611 41.3705 172.219C42.255 174.289 42.1143 176.601 40.9684 178.571C38.938 182.069 40.0035 185.929 40.1241 186.351C42.657 190.814 41.6921 195.297 41.6519 195.498L41.5715 195.779ZM22.9162 194.975H40.9081C41.0689 193.889 41.4107 190.231 39.4004 186.693L39.3602 186.612C39.2999 186.431 37.953 182.129 40.2648 178.149C41.29 176.4 41.4107 174.35 40.6267 172.52C40.0236 171.133 38.9782 170.108 37.8927 169.847C35.4402 169.264 32.5655 171.274 31.8619 174.068C31.7011 174.691 31.6006 175.355 31.5001 176.058C31.0779 178.813 30.6155 181.949 26.8765 183.818C23.1374 185.688 22.9162 193.186 22.9162 194.975Z" fill="#193040"/>
<path d="M31.8418 195.598L31.1182 195.256C34.817 187.195 37.5711 169.425 37.5912 169.244L38.3953 169.364C38.3551 169.565 35.5809 187.457 31.8418 195.598Z" fill="#193040"/>
<path d="M33.1352 171.29L32.3818 171.571L35.5856 180.16L36.339 179.879L33.1352 171.29Z" fill="#193040"/>
<path d="M31.5583 175.457L30.8105 175.753L34.5084 185.1L35.2562 184.804L31.5583 175.457Z" fill="#193040"/>
<path d="M40.4541 188.253L31.1699 195.071L31.6459 195.719L40.93 188.901L40.4541 188.253Z" fill="#193040"/>
<path d="M41.0573 191.077L35.5713 195.017L36.0403 195.67L41.5263 191.73L41.0573 191.077Z" fill="#193040"/>
<path d="M287.87 195.176H3.2168V195.98H287.87V195.176Z" fill="#193040"/>
</svg>
