<svg width="48" height="48" viewBox="0 0 48 48" fill="none" xmlns="http://www.w3.org/2000/svg">
<path fill-rule="evenodd" clip-rule="evenodd" d="M11.25 46.5H42.75C43.9905 46.5 45 45.4905 45 44.25V12.9604C45.0195 12.8936 45.03 12.8229 45.03 12.7498C45.03 12.4783 44.886 12.2398 44.67 12.1078L34.281 1.7188C34.2362 1.67434 34.1867 1.63647 34.1339 1.60542C34.0188 1.53722 33.8865 1.5 33.75 1.5H11.25C10.0095 1.5 9 2.5095 9 3.75V11.25C9 11.664 9.336 12 9.75 12C10.164 12 10.5 11.664 10.5 11.25V3.75C10.5 3.3375 10.836 3 11.25 3H33V11.2498C33 12.4903 34.0095 13.4998 35.25 13.4998H43.5V44.25C43.5 44.6625 43.164 45 42.75 45H11.25C10.836 45 10.5 44.6625 10.5 44.25V42.75C10.5 42.336 10.164 42 9.75 42C9.336 42 9 42.336 9 42.75V44.25C9 45.4905 10.0095 46.5 11.25 46.5ZM34.5 11.2498V4.0605L42.4393 11.9998H35.25C34.836 11.9998 34.5 11.6623 34.5 11.2498ZM9 23.2035C9 23.6175 9.336 23.9535 9.75 23.9535C10.164 23.9535 10.5 23.6175 10.5 23.2035V17.25C10.5 16.836 10.164 16.5 9.75 16.5C9.336 16.5 9 16.836 9 17.25V23.2035ZM4.5 20.25C4.5 16.5285 7.5285 13.5 11.25 13.5C14.9715 13.5 18 16.5285 18 20.25V25.5H18.75C19.164 25.5 19.5 25.836 19.5 26.25V35.25C19.5 38.145 17.145 40.5 14.25 40.5H8.25C5.355 40.5 3 38.145 3 35.25V26.25C3 25.836 3.336 25.5 3.75 25.5H4.5V20.25ZM16.5 20.25V25.5H14.25C13.836 25.5 13.5 25.836 13.5 26.25C13.5 26.664 13.836 27 14.25 27H16.5H18V35.25C18 37.3185 16.3185 39 14.25 39H8.25C6.1815 39 4.5 37.3185 4.5 35.25V27H6H11.25C11.664 27 12 26.664 12 26.25C12 25.836 11.664 25.5 11.25 25.5H6V20.25C6 17.355 8.355 15 11.25 15C14.145 15 16.5 17.355 16.5 20.25ZM12 33.5493C12.4484 33.29 12.75 32.8052 12.75 32.25C12.75 31.4216 12.0784 30.75 11.25 30.75C10.4216 30.75 9.75 31.4216 9.75 32.25C9.75 32.8052 10.0516 33.29 10.5 33.5493V35.25C10.5 35.664 10.836 36 11.25 36C11.664 36 12 35.664 12 35.25V33.5493ZM36.75 42.75C34.269 42.75 32.25 40.731 32.25 38.25C32.25 35.769 34.269 33.75 36.75 33.75C39.231 33.75 41.25 35.769 41.25 38.25C41.25 40.731 39.231 42.75 36.75 42.75ZM36.75 35.25C35.0955 35.25 33.75 36.5955 33.75 38.25C33.75 39.9045 35.0955 41.25 36.75 41.25C38.4045 41.25 39.75 39.9045 39.75 38.25C39.75 36.5955 38.4045 35.25 36.75 35.25ZM29.25 39H21.75C21.336 39 21 38.664 21 38.25C21 37.836 21.336 37.5 21.75 37.5H29.25C29.664 37.5 30 37.836 30 38.25C30 38.664 29.664 39 29.25 39ZM21.75 36H29.25C29.664 36 30 35.664 30 35.25C30 34.836 29.664 34.5 29.25 34.5H21.75C21.336 34.5 21 34.836 21 35.25C21 35.664 21.336 36 21.75 36ZM30 25.5H21.75C21.336 25.5 21 25.164 21 24.75C21 24.336 21.336 24 21.75 24H30C30.414 24 30.75 24.336 30.75 24.75C30.75 25.164 30.414 25.5 30 25.5ZM21.75 22.5H36.75C37.164 22.5 37.5 22.164 37.5 21.75C37.5 21.336 37.164 21 36.75 21H21.75C21.336 21 21 21.336 21 21.75C21 22.164 21.336 22.5 21.75 22.5ZM36.75 19.5H21.75C21.336 19.5 21 19.164 21 18.75C21 18.336 21.336 18 21.75 18H36.75C37.164 18 37.5 18.336 37.5 18.75C37.5 19.164 37.164 19.5 36.75 19.5ZM16.5 10.5H30.75C31.164 10.5 31.5 10.164 31.5 9.75C31.5 9.336 31.164 9 30.75 9H16.5C16.086 9 15.75 9.336 15.75 9.75C15.75 10.164 16.086 10.5 16.5 10.5Z" fill="#193040"/>
</svg>
