<svg width="546" height="344" viewBox="0 0 546 344" fill="none" xmlns="http://www.w3.org/2000/svg">
<path d="M44.2011 157.971H40.3576V154.127H38.8201V157.971H34.9766V159.508H38.8201V163.352H40.3576V159.508H44.2011V157.971Z" fill="#193040"/>
<path d="M522.727 3.84358H518.883V0H517.346V3.84358H513.502V5.38101H517.346V9.22458H518.883V5.38101H522.727V3.84358Z" fill="#193040"/>
<path d="M55.3478 146.056C52.3883 146.056 49.9668 143.635 49.9668 140.675C49.9668 137.715 52.3883 135.294 55.3478 135.294C58.3074 135.294 60.7288 137.715 60.7288 140.675C60.7288 143.635 58.3074 146.056 55.3478 146.056ZM55.3478 136.831C53.2338 136.831 51.5042 138.561 51.5042 140.675C51.5042 142.789 53.2338 144.519 55.3478 144.519C57.4618 144.519 59.1914 142.789 59.1914 140.675C59.1914 138.561 57.4618 136.831 55.3478 136.831Z" fill="#193040"/>
<path d="M518.114 250.217C515.155 250.217 512.733 247.795 512.733 244.836C512.733 241.876 515.155 239.455 518.114 239.455C521.074 239.455 523.495 241.876 523.495 244.836C523.495 247.795 521.074 250.217 518.114 250.217ZM518.114 240.992C516 240.992 514.271 242.722 514.271 244.836C514.271 246.95 516 248.679 518.114 248.679C520.228 248.679 521.958 246.95 521.958 244.836C521.958 242.722 520.228 240.992 518.114 240.992Z" fill="#193040"/>
<path d="M249.064 93.0146C246.104 93.0146 243.683 90.5931 243.683 87.6336C243.683 84.674 246.104 82.2526 249.064 82.2526C252.023 82.2526 254.445 84.674 254.445 87.6336C254.445 90.5931 252.023 93.0146 249.064 93.0146ZM249.064 83.79C246.95 83.79 245.22 85.5196 245.22 87.6336C245.22 89.7475 246.95 91.4771 249.064 91.4771C251.178 91.4771 252.907 89.7475 252.907 87.6336C252.907 85.5196 251.178 83.79 249.064 83.79Z" fill="#193040"/>
<path d="M545.365 216.701C543.75 216.701 537.639 216.201 536.217 209.129C534.833 202.403 528.607 203.556 528.338 203.633L528.03 202.134C528.107 202.134 536.025 200.596 537.716 208.821C539.1 215.663 545.365 215.163 545.634 215.163L545.788 216.701C545.749 216.701 545.595 216.701 545.365 216.701Z" fill="#193040"/>
<path d="M105.429 42.6253C105.429 42.3562 105.083 36.0528 98.2414 36.245C98.0877 36.245 97.9723 36.245 97.8186 36.245C89.9008 36.245 88.6709 28.75 88.6709 28.6732L90.2083 28.4425C90.2468 28.7116 91.2845 34.8997 98.203 34.6691C106.62 34.4 106.966 42.4332 106.966 42.51L105.429 42.6253Z" fill="#193040"/>
<path d="M393.606 240.531C392.513 240.531 391.341 240.396 390.174 240.018C288.346 206.738 299.891 69.8439 301.542 54.3464C301.691 52.9333 302.663 51.7347 304.017 51.301C325.436 44.3893 382.578 22.5865 389.662 4.94828C390.197 3.61445 391.471 2.72835 392.904 2.69104C394.304 2.62574 395.653 3.46988 396.258 4.77572C404.025 21.5045 461.339 44.0629 482.768 51.3383C484.154 51.8093 485.117 53.0778 485.206 54.5422C493.201 191.586 413.198 236.903 397.113 240.149C396.155 240.335 394.937 240.531 393.606 240.531Z" fill="white"/>
<path d="M393.606 240.531C392.513 240.531 391.341 240.396 390.174 240.018C288.346 206.738 299.891 69.8439 301.542 54.3464C301.691 52.9333 302.663 51.7347 304.017 51.301C325.436 44.3893 382.578 22.5865 389.662 4.94828C390.197 3.61445 391.471 2.72835 392.904 2.69104C394.304 2.62574 395.653 3.46988 396.258 4.77572C404.025 21.5045 461.339 44.0629 482.768 51.3383C484.154 51.8093 485.117 53.0778 485.206 54.5422C493.201 191.586 413.198 236.903 397.113 240.149C396.155 240.335 394.937 240.531 393.606 240.531ZM308.463 57.4244C306.384 80.3046 299.784 202.895 392.397 233.163C393.374 233.489 394.741 233.265 395.69 233.074C409.844 230.22 484.689 185.709 478.154 57.3638C464.567 52.6301 409.635 32.6041 393.16 13.0118C377.364 33.5742 321.999 52.9286 308.463 57.4244Z" fill="#193040"/>
<path d="M460.538 111.118C453.389 113.462 447.469 111.156 445.24 110.042C440.205 107.505 433.978 104.353 421.525 115.922C411.57 125.185 406.343 125.493 401.154 122.956C394.851 119.919 383.09 114.231 372.328 126.185C361.258 138.484 353.494 137.946 339.465 136.985L338.389 136.908C324.244 135.947 302.221 161.469 302.221 161.469C303.066 160.354 323.322 133.833 338.543 134.871L339.619 134.948C353.456 135.909 360.412 136.37 370.829 124.801C382.59 111.733 395.735 118.075 402.077 121.111C405.844 122.918 410.071 123.802 420.18 114.385C432.633 102.816 439.59 104.853 446.201 108.158C449.314 109.734 461.076 113.155 471.607 101.24L483.061 90.1703L473.029 102.085C468.724 107.159 464.458 109.849 460.538 111.118Z" fill="#2595DF"/>
<path d="M323.283 100.087L321.361 98.3956C322.86 96.7044 357.837 57.4231 375.133 56.9234C375.671 56.9234 376.401 57.1924 376.863 57.9612C377.593 59.268 377.785 62.1891 371.174 72.6821C370.713 73.6045 363.794 87.0186 362.564 91.8615C362.411 92.5149 362.641 93.0914 362.757 93.1683C362.872 93.2451 363.794 93.0914 365.486 91.2081C365.678 91.0159 384.434 70.7603 390.046 70.7603C391.122 70.7603 392.083 71.2214 392.775 72.0286C395.235 74.9497 394.12 82.56 393.89 83.9053C393.928 84.3281 394.082 84.8277 394.197 84.9046C394.197 84.9046 394.543 84.9431 395.465 84.2897C396.004 83.9053 396.695 83.4056 397.503 82.7906C404.575 77.5249 411.186 72.8743 414.53 73.8351C418.873 75.0651 418.219 82.0219 418.027 83.3288C418.027 83.4441 418.104 83.7131 418.296 83.8668C418.412 83.9437 418.95 84.1744 420.41 83.6363C422.14 82.9829 423.37 81.8297 424.484 80.792C425.868 79.4851 427.29 78.1784 429.251 78.4474C430.634 78.6396 431.826 79.3698 432.633 80.4845C434.17 82.5984 434.286 85.8271 433.901 88.1332C433.747 89.0557 433.94 89.6322 434.055 89.709C434.055 89.709 435.4 89.7091 440.358 84.059C449.583 73.566 482.292 56.9618 485.79 56.3853C485.79 56.3853 451.12 76.1413 442.357 85.6349C437.822 90.5547 435.17 93.0146 433.017 92.0537C431.672 91.4387 431.019 89.7859 431.364 87.7104C431.672 85.8655 431.557 83.3672 430.557 81.9835C430.135 81.407 429.596 81.061 428.866 80.9841C428.136 80.8688 427.406 81.5607 426.214 82.6754C424.984 83.8284 423.485 85.2505 421.294 86.0576C419.411 86.7495 417.912 86.7495 416.836 85.9808C415.491 85.0583 415.452 83.4825 415.452 83.2903V83.0981C415.721 81.0994 415.683 76.8331 413.799 76.295C411.378 75.6032 402.384 82.3294 399.002 84.8277C398.194 85.4427 397.464 85.9808 396.926 86.3651C395.389 87.4414 394.082 87.7104 393.006 87.1723C391.353 86.3268 391.314 84.059 391.314 83.79V83.5593C391.814 80.5613 392.16 75.2573 390.776 73.643C390.546 73.3739 390.315 73.2586 390.008 73.2586C386.51 73.2586 370.674 89.0941 367.369 92.8609C364.563 96.0126 362.641 95.9741 361.527 95.3976C360.066 94.6288 359.643 92.7071 360.028 91.1696C361.335 85.9039 368.56 71.9902 368.868 71.3752L368.906 71.2983C374.018 63.1884 374.556 60.3058 374.595 59.4217C358.26 60.8054 323.629 99.6639 323.283 100.087Z" fill="#2595DF"/>
<path d="M377.834 160.585C377.834 160.585 376.066 163.198 378.718 164.966C378.718 164.966 393.824 154.243 413.58 162.122C413.58 162.122 427.609 168.156 429.377 177.035C430.145 180.917 430.261 186.221 424.111 191.948C424.111 191.948 412.273 202.018 392.555 201.595C392.555 201.595 379.218 201.903 365.381 195.907C362.345 194.6 354.427 190.641 354.004 183.646C353.658 178.15 354.888 170.078 364.958 163.044C370.954 158.893 377.219 155.588 391.71 156.049C391.71 156.049 395.207 153.435 388.635 151.245C388.635 151.245 379.872 149.477 364.958 159.124C364.958 159.124 351.391 167.464 351.391 180.148C351.391 183.684 351.391 196.368 370.685 201.634C370.685 201.634 393.478 208.629 413.195 202.057C413.195 202.057 435.104 194.177 433.797 179.687C433.797 179.687 433.374 165.235 414.963 159.085C414.848 159.047 395.592 149.861 377.834 160.585Z" fill="#2595DF"/>
<path d="M377.104 173.653C377.104 173.653 380.487 173.384 381.025 175.613L381.294 189.065C381.294 189.065 394.477 173.076 411.005 166.35L412.119 167.733C412.119 167.733 392.517 180.917 381.294 194.062C381.294 194.062 379.603 193.486 378.219 192.102C378.219 192.179 378.219 176.189 377.104 173.653Z" fill="#2595DF"/>
<path d="M68.3391 342.309C68.3391 342.309 65.8024 330.817 72.1827 319.632C72.1827 319.632 75.6803 308.754 69.9534 298.876C64.1881 288.96 69.9534 277.775 76.6797 276.199C83.4059 274.585 91.3621 280.043 93.2839 287.692C95.2057 295.34 93.5914 300.798 105.122 306.525C116.614 312.291 116.153 342.309 116.153 342.309H68.3391Z" fill="#F8FCFE"/>
<path d="M116.845 343.078H67.7242L67.6089 342.463C67.4936 342.001 65.0721 330.586 71.4909 319.324C71.76 318.402 74.5658 308.332 69.3001 299.261C66.4174 294.303 66.033 288.499 68.2623 283.31C69.9919 279.274 73.1436 276.238 76.4876 275.469C83.675 273.778 92.0156 279.505 94.0143 287.538C94.3986 289.037 94.6292 290.459 94.8598 291.804C95.8207 297.377 96.5126 301.413 105.43 305.872C117.229 311.752 116.884 341.117 116.884 342.347L116.845 343.078ZM68.9541 341.54H115.308C115.269 336.889 114.654 312.175 104.699 307.217C95.0905 302.413 94.2449 297.608 93.3224 292.035C93.0918 290.69 92.8612 289.344 92.4768 287.884C90.6703 280.62 83.1754 275.431 76.795 276.93C73.9124 277.622 71.1834 280.274 69.6076 283.887C67.5705 288.614 67.9164 293.918 70.5684 298.454C76.4107 308.524 73.0283 319.401 72.8746 319.824L72.7977 319.978C67.4551 329.356 68.5698 339.042 68.9541 341.54Z" fill="#193040"/>
<path d="M92.5532 342.77C83.0211 321.976 75.9489 276.43 75.8721 275.969L77.4095 275.738C77.4864 276.199 84.5201 321.553 93.9753 342.155L92.5532 342.77Z" fill="#193040"/>
<path d="M43.0484 306.333C45.808 306.333 48.0451 304.096 48.0451 301.336C48.0451 298.577 45.808 296.34 43.0484 296.34C40.2888 296.34 38.0518 298.577 38.0518 301.336C38.0518 304.096 40.2888 306.333 43.0484 306.333Z" fill="#193040"/>
<path d="M68.3004 342.885C52.4265 337.043 43.5094 312.982 43.125 311.983L44.9315 311.33C45.0083 311.56 53.9254 335.583 68.9538 341.117L68.3004 342.885Z" fill="#193040"/>
<path d="M89.204 281.132L81.0342 303.027L82.4746 303.564L90.6444 281.67L89.204 281.132Z" fill="#193040"/>
<path d="M93.4495 291.614L84.0088 315.492L85.4386 316.058L94.8793 292.18L93.4495 291.614Z" fill="#193040"/>
<path d="M35.2842 302.682C35.2842 302.682 43.0482 298.646 50.7354 301.067C50.7354 301.067 52.8493 312.367 44.97 313.213C36.0529 314.174 35.2842 302.682 35.2842 302.682Z" fill="#2595DF"/>
<path d="M23.1389 302.336C25.6438 302.336 27.6744 300.305 27.6744 297.8C27.6744 295.295 25.6438 293.265 23.1389 293.265C20.6341 293.265 18.6035 295.295 18.6035 297.8C18.6035 300.305 20.6341 302.336 23.1389 302.336Z" fill="#193040"/>
<path d="M59.0756 335.583C59.0756 335.583 54.6171 329.202 55.2321 324.09C55.8855 318.978 59.0756 317.364 60.344 317.71C61.6124 318.018 63.8417 318.671 62.8808 323.475C61.9199 328.241 59.0756 335.583 59.0756 335.583Z" fill="#193040"/>
<path d="M70.1397 324.382L69.2295 325.621L92.9256 343.028L93.8358 341.789L70.1397 324.382Z" fill="#193040"/>
<path d="M68.5167 331.562L67.6201 332.811L81.6072 342.853L82.5039 341.604L68.5167 331.562Z" fill="#193040"/>
<path d="M135.255 293.572C135.255 293.572 132.065 286.846 135.255 278.236C138.445 269.627 140.675 242.76 121.534 244.067C102.393 245.374 101.086 270.895 103.008 284.002C104.93 297.108 102.047 306.025 98.8567 313.405C95.6665 320.746 85.4426 326.166 87.0184 342.463H151.86C151.86 342.463 155.05 316.595 135.255 293.572Z" fill="#F8FCFE"/>
<path d="M152.551 343.231H86.3266L86.2497 342.539C85.0967 330.778 90.0549 324.398 94.0522 319.286C95.7049 317.172 97.2424 315.173 98.1648 313.098C101.393 305.641 104.161 296.993 102.277 284.117C100.778 273.739 101.432 258.596 108.389 250.025C111.694 245.95 116.114 243.683 121.534 243.298C126.953 242.952 131.181 244.72 134.064 248.564C140.175 256.751 138.33 272.356 136.062 278.506C133.218 286.231 135.64 292.381 135.986 293.149C146.286 305.141 150.284 317.902 151.821 326.512C153.512 335.852 152.744 342.27 152.705 342.539L152.551 343.231ZM87.7103 341.694H151.168C151.475 337.504 152.244 314.52 134.679 294.072L134.602 293.995L134.563 293.918C134.41 293.649 131.258 286.808 134.525 278.006C136.716 272.125 138.484 257.212 132.757 249.487C130.22 246.066 126.454 244.528 121.572 244.836C116.614 245.182 112.54 247.219 109.542 250.985C102.931 259.172 102.277 273.816 103.776 283.887C105.737 297.147 102.739 306.41 99.5869 313.713C98.5876 315.98 97.0117 318.056 95.2821 320.247C91.3233 325.282 86.8647 330.97 87.7103 341.694Z" fill="#193040"/>
<path d="M28.7882 314.981C28.7882 314.981 18.8334 315.788 17.2191 313.405C15.6432 311.022 19.948 308.908 25.6365 312.521C26.4437 313.021 28.7882 314.981 28.7882 314.981Z" fill="#193040"/>
<path d="M31.9016 320.055C31.9016 320.055 22.3311 322.899 20.2556 320.9C18.2185 318.901 21.9852 315.942 28.2886 318.287C29.2111 318.594 31.9016 320.055 31.9016 320.055Z" fill="#193040"/>
<path d="M53.4264 343.846C35.2847 329.817 23.2159 308.486 23.1006 308.293L24.7918 307.371C24.9071 307.563 36.7837 328.587 54.6179 342.347L53.4264 343.846Z" fill="#193040"/>
<path d="M120.612 342.424C114.155 307.678 114.501 282.695 115.923 267.859C117.46 251.716 120.535 243.952 120.65 243.606L122.072 244.182C122.034 244.259 118.959 252.139 117.46 268.128C116.038 282.849 115.731 307.64 122.149 342.155L120.612 342.424Z" fill="#193040"/>
<path d="M105.159 258.339L104 259.349L115.744 272.821L116.903 271.811L105.159 258.339Z" fill="#193040"/>
<path d="M16.0664 299.03C16.0664 299.03 22.6774 295.187 30.1339 297.57C30.1339 297.57 32.0557 307.832 24.9066 308.601C16.7582 309.485 16.0664 299.03 16.0664 299.03Z" fill="#2595DF"/>
<path d="M103.28 267.379L102.125 268.394L115.24 283.323L116.395 282.308L103.28 267.379Z" fill="#193040"/>
<path d="M137.073 296.153L117.462 321.021L118.669 321.973L138.28 297.105L137.073 296.153Z" fill="#193040"/>
<path d="M141.187 301.934L118.752 329.714L119.948 330.68L142.383 302.9L141.187 301.934Z" fill="#193040"/>
<path d="M488.017 342.309C488.017 342.309 490.554 330.817 484.174 319.632C484.174 319.632 480.676 308.755 486.403 298.877C492.168 288.961 486.403 277.776 479.677 276.2C472.951 274.586 464.994 280.043 463.073 287.692C461.151 295.341 462.765 300.799 451.234 306.526C439.704 312.253 440.203 342.309 440.203 342.309H488.017Z" fill="#F8FCFE"/>
<path d="M488.633 343.078H439.512V342.309C439.474 341.079 439.166 311.714 450.966 305.834C459.883 301.375 460.575 297.339 461.536 291.766C461.766 290.421 461.997 288.999 462.381 287.5C464.38 279.467 472.759 273.74 479.908 275.431C483.252 276.238 486.404 279.236 488.133 283.272C490.362 288.461 489.978 294.264 487.095 299.223C481.83 308.294 484.636 318.364 484.905 319.286C491.323 330.586 488.902 341.963 488.787 342.424L488.633 343.078ZM441.011 341.541H487.364C487.749 339.081 488.863 329.356 483.521 320.016L483.444 319.863C483.29 319.401 479.908 308.563 485.75 298.492C488.402 293.957 488.748 288.653 486.711 283.925C485.174 280.312 482.406 277.66 479.524 276.968C473.143 275.431 465.648 280.658 463.842 287.923C463.496 289.383 463.227 290.767 462.996 292.074C462.035 297.647 461.228 302.451 451.619 307.256C441.664 312.176 441.049 336.89 441.011 341.541Z" fill="#193040"/>
<path d="M463.804 342.77L462.42 342.117C471.837 321.515 478.909 276.161 478.986 275.7L480.523 275.931C480.369 276.43 473.297 322.015 463.804 342.77Z" fill="#193040"/>
<path d="M513.271 306.333C516.031 306.333 518.268 304.096 518.268 301.336C518.268 298.577 516.031 296.34 513.271 296.34C510.511 296.34 508.274 298.577 508.274 301.336C508.274 304.096 510.511 306.333 513.271 306.333Z" fill="#193040"/>
<path d="M488.019 342.886L487.365 341.079C502.432 335.544 511.311 311.56 511.388 311.291L513.194 311.945C512.81 312.983 503.893 337.043 488.019 342.886Z" fill="#193040"/>
<path d="M467.11 280.991L465.67 281.529L473.837 303.423L475.278 302.886L467.11 280.991Z" fill="#193040"/>
<path d="M463.004 291.638L461.574 292.203L471.02 316.079L472.45 315.513L463.004 291.638Z" fill="#193040"/>
<path d="M521.035 302.682C521.035 302.682 513.271 298.646 505.584 301.068C505.584 301.068 503.47 312.368 511.349 313.213C520.266 314.174 521.035 302.682 521.035 302.682Z" fill="#2595DF"/>
<path d="M497.281 335.583C497.281 335.583 501.74 329.203 501.125 324.091C500.471 318.979 497.281 317.364 496.013 317.71C494.744 318.018 492.515 318.671 493.476 323.476C494.399 328.242 497.281 335.583 497.281 335.583Z" fill="#193040"/>
<path d="M486.152 324.474L462.453 341.878L463.363 343.117L487.062 325.713L486.152 324.474Z" fill="#193040"/>
<path d="M421.063 293.573C421.063 293.573 424.253 286.846 421.063 278.237C417.873 269.627 415.644 242.76 434.785 244.067C453.926 245.374 455.233 270.895 453.311 284.002C451.389 297.109 454.272 306.026 457.462 313.405C460.652 320.747 470.876 326.166 469.3 342.463H404.459C404.459 342.463 401.269 316.596 421.063 293.573Z" fill="#F8FCFE"/>
<path d="M470.031 343.231H403.806L403.729 342.54C403.69 342.27 402.922 335.852 404.613 326.512C406.15 317.902 410.148 305.142 420.448 293.188C420.794 292.381 423.216 286.231 420.371 278.544C418.104 272.394 416.259 256.751 422.37 248.603C425.253 244.759 429.442 242.991 434.9 243.337C440.32 243.683 444.74 245.951 448.045 250.063C454.964 258.634 455.656 273.778 454.157 284.156C452.273 296.993 455.002 305.68 458.269 313.136C459.192 315.212 460.729 317.21 462.382 319.324C466.379 324.436 471.337 330.817 470.184 342.578L470.031 343.231ZM405.189 341.694H468.647C469.492 330.97 465.034 325.282 461.113 320.208C459.422 318.018 457.808 315.942 456.809 313.674C453.657 306.372 450.659 297.147 452.619 283.848C454.08 273.778 453.465 259.134 446.854 250.947C443.817 247.219 439.782 245.143 434.823 244.797C429.942 244.49 426.175 246.027 423.639 249.448C417.873 257.174 419.68 272.048 421.87 277.967C425.138 286.808 421.986 293.611 421.832 293.88L421.794 293.957L421.717 294.034C404.075 314.52 404.843 337.504 405.189 341.694Z" fill="#193040"/>
<path d="M435.746 342.424L434.247 342.155C440.666 307.64 440.32 282.849 438.936 268.128C437.399 252.177 434.324 244.259 434.324 244.182L435.746 243.606C435.861 243.913 438.936 251.716 440.474 267.859C441.857 282.734 442.203 307.717 435.746 342.424Z" fill="#193040"/>
<path d="M451.181 258.364L439.437 271.837L440.595 272.847L452.34 259.375L451.181 258.364Z" fill="#193040"/>
<path d="M453.095 267.311L439.978 282.239L441.132 283.253L454.25 268.326L453.095 267.311Z" fill="#193040"/>
<path d="M419.165 296.11L417.958 297.062L437.572 321.927L438.779 320.975L419.165 296.11Z" fill="#193040"/>
<path d="M415.214 302.031L414.018 302.997L436.449 330.78L437.645 329.814L415.214 302.031Z" fill="#193040"/>
<path d="M118.344 320.747L113.347 335.122L99.7412 332.277L103.354 320.747H118.344Z" fill="#F8FCFE"/>
<path d="M113.847 336.006L98.7803 332.854L102.816 319.978H119.459L113.847 336.006ZM100.74 331.701L112.848 334.238L117.268 321.515H103.931L100.74 331.701Z" fill="#193040"/>
<path d="M99.5101 330.432C99.5101 330.432 107.659 336.621 114.5 330.432L134.794 341.002C135.678 341.463 135.371 342.809 134.333 342.809H98.4724C97.3577 342.809 96.5121 341.732 96.8196 340.656L99.5101 330.432Z" fill="#193040"/>
<path d="M190.987 320.747L191.371 335.122L176.996 334.968L175.997 320.747H190.987Z" fill="#F8FCFE"/>
<path d="M192.14 335.89L176.266 335.736L175.151 319.978H191.717L192.14 335.89ZM177.727 334.199L190.564 334.353L190.218 321.515H176.804L177.727 334.199Z" fill="#193040"/>
<path d="M176.766 330.432C176.766 330.432 184.914 336.621 191.756 330.432L212.05 341.002C212.934 341.463 212.627 342.809 211.589 342.809H175.728C174.614 342.809 173.768 341.732 174.075 340.656L176.766 330.432Z" fill="#193040"/>
<path d="M179.302 107.889C175.536 102.777 182.185 89.1711 183.031 82.9061C185.644 63.3038 163.928 64.8797 163.928 64.8797C146.517 63.1501 142.635 77.9479 140.905 84.751C137.561 98.1651 131.604 99.6641 126.722 103.392C121.841 107.121 114.807 119.42 122.61 126.146C126.184 129.221 169.77 136.755 177.035 134.333C185.375 131.604 183.069 113.001 179.302 107.889Z" fill="#193040"/>
<path d="M146.401 111.541L153.935 94.8212C153.935 94.8212 148.016 83.4827 155.818 84.5589C155.818 84.5589 171.192 86.7114 174.152 75.9493C174.152 75.9493 184.414 105.353 164.966 102.931L164.428 115.346L146.401 111.541Z" fill="#F8FCFE"/>
<path d="M165.196 116.268L145.325 112.117L153.128 94.8597C152.359 93.3222 149.861 87.8259 151.744 85.1354C152.551 83.9823 153.973 83.5596 155.972 83.8286C156.126 83.8671 170.693 85.7504 173.46 75.7571L174.114 73.374L174.921 75.7186C175.151 76.4489 180.917 93.2069 174.998 100.548C172.961 103.047 169.886 104.123 165.735 103.777L165.196 116.268ZM147.478 110.964L163.736 114.347L164.274 102.009L165.12 102.124C169.079 102.624 172 101.74 173.806 99.5103C178.034 94.2831 175.459 82.983 174.114 78.2554C169.693 87.1341 155.895 85.2891 155.741 85.2891C154.358 85.0969 153.435 85.3276 152.974 85.981C151.667 87.8259 153.781 92.8225 154.627 94.4368L154.819 94.7828L147.478 110.964Z" fill="#193040"/>
<path d="M164.774 137.177L183.031 149.9L230.346 163.698L240.762 154.051L193.447 134.102L164.89 111.464L164.774 137.177Z" fill="#2595DF"/>
<path d="M142.98 181.648C143.326 182.685 175.843 231.268 186.528 247.219C188.757 250.524 190.18 254.291 190.679 258.25L199.058 323.245H174.113L158.739 259.288L117.228 202.019C117.228 202.019 108.504 189.565 123.878 173.768L142.98 181.648Z" fill="#193040"/>
<path d="M109.657 170.732C109.657 170.732 92.7458 194.946 101.048 212.819L121.803 253.945L94.8213 323.322H118.921L149.938 265.437C152.167 261.248 152.936 256.405 152.052 251.754L139.676 185.453L109.657 170.732Z" fill="#193040"/>
<path d="M165.005 110.926C165.005 110.926 155.242 109.158 150.668 102.124C150.668 102.124 139.676 99.8563 126.377 112.31L101.086 141.598C97.7809 145.403 98.7033 151.245 102.97 153.897L115.577 161.738L106.006 176.267L146.287 191.218C146.287 191.218 155.665 159.893 167.273 150.592C177.612 142.366 166.85 116.537 165.005 110.926Z" fill="#2595DF"/>
<path d="M373.403 110.118L381.552 107.428L406.766 110.234L423.293 112.079C425.099 112.271 425.868 114.539 424.523 115.769L412.377 127.107L393.851 144.442L385.703 147.132L373.403 110.118Z" fill="#F8FCFE"/>
<path d="M385.242 148.131L372.442 109.619L381.475 106.621L423.37 111.272C424.523 111.387 425.445 112.156 425.83 113.232C426.176 114.308 425.907 115.5 425.061 116.268L394.274 145.095L385.242 148.131ZM374.403 110.58L386.241 146.171L393.505 143.75L424.023 115.154C424.408 114.769 424.561 114.231 424.369 113.731C424.177 113.193 423.754 112.847 423.216 112.809L381.667 108.197L374.403 110.58Z" fill="#193040"/>
<path d="M52.8486 216.624L381.551 107.39L381.667 107.697C379.053 109.196 377.746 112.348 378.745 115.307C379.745 118.267 382.666 120.035 385.664 119.651L385.741 119.881C383.127 121.38 381.82 124.532 382.82 127.492C383.819 130.451 386.74 132.219 389.738 131.835L389.815 132.065C387.201 133.564 385.894 136.716 386.894 139.676C387.893 142.635 390.814 144.403 393.812 144.019L393.928 144.326L65.1481 253.676L52.8486 216.624Z" fill="#F8FCFE"/>
<path d="M64.6868 254.637L51.8877 216.124L52.618 215.894L382.051 106.429L382.589 108.081L382.051 108.389C379.706 109.696 378.63 112.54 379.476 115.115C380.321 117.69 382.896 119.305 385.548 118.959L386.163 118.882L386.625 120.304L386.087 120.612C383.742 121.918 382.666 124.763 383.511 127.338C384.357 129.913 386.932 131.527 389.584 131.181L390.199 131.105L390.66 132.527L390.122 132.834C387.778 134.141 386.702 136.985 387.547 139.56C388.393 142.136 390.968 143.75 393.62 143.404L394.235 143.327L394.773 144.98L394.043 145.21L64.6868 254.637ZM53.8095 217.124L65.6477 252.715L390.853 144.672C388.662 144.019 386.855 142.328 386.125 140.06C385.241 137.446 385.971 134.602 387.855 132.68C385.203 132.296 382.935 130.451 382.051 127.838C381.167 125.224 381.897 122.38 383.78 120.458C381.128 120.073 378.861 118.229 377.977 115.615C377.208 113.347 377.669 110.926 379.014 109.081L53.8095 217.124Z" fill="#193040"/>
<path d="M406.804 110.196L423.331 112.04C425.138 112.233 425.906 114.5 424.561 115.73L412.415 127.069L406.804 110.196Z" fill="#193040"/>
<path d="M67.6468 251.293L54.7709 255.559C50.1201 257.097 45.1235 254.599 43.5861 249.948L37.8976 232.882C36.3601 228.232 38.8585 223.235 43.5092 221.698L56.3852 217.431L67.6468 251.293Z" fill="#F8FCFE"/>
<path d="M52.0035 256.789C47.9677 256.789 44.201 254.214 42.8558 250.178L37.1673 233.113C36.3601 230.653 36.5523 228.078 37.7054 225.772C38.8585 223.466 40.8187 221.774 43.2786 220.967L56.8848 216.432L68.6462 251.793L55.0399 256.328C54.0406 256.636 53.0028 256.789 52.0035 256.789ZM55.9239 218.392L43.7782 222.428C41.7411 223.12 40.05 224.542 39.0891 226.464C38.1282 228.385 37.9744 230.576 38.6278 232.652L44.3163 249.717C45.7385 253.945 50.3123 256.251 54.5402 254.829L66.6859 250.793L55.9239 218.392Z" fill="#193040"/>
<path d="M70.7858 210.655L52.8398 216.617L65.1526 253.677L83.0985 247.714L70.7858 210.655Z" fill="#193040"/>
<path d="M389.283 131.383L78.6943 234.574L79.1791 236.033L389.768 132.842L389.283 131.383Z" fill="#193040"/>
<path d="M385.245 119.153L74.6562 222.345L75.141 223.804L385.73 120.612L385.245 119.153Z" fill="#193040"/>
<path d="M234.343 151.745L245.989 154.666L250.985 158.394C250.985 158.394 245.374 160.277 240.8 156.511L227.501 158.586L234.343 151.745Z" fill="#F8FCFE"/>
<path d="M225.271 159.739L234.112 150.899L246.296 153.935L252.561 158.663L251.177 159.124C250.947 159.201 245.335 161.007 240.53 157.356L225.271 159.739ZM240.992 155.742L241.261 155.972C244.028 158.24 247.257 158.279 249.14 158.01L245.642 155.396L234.573 152.629L229.692 157.51L240.992 155.742Z" fill="#193040"/>
<path d="M156.51 164.621L175.343 175.459L179.11 188.643C179.11 188.643 177.227 189.604 175.343 186.298L176.304 191.026C176.304 191.026 173.46 190.065 172.538 187.259V190.104C172.538 190.104 171.115 191.064 169.693 185.876L169.232 188.22C169.232 188.22 167.81 187.759 167.81 184.453L166.849 181.148C166.849 181.148 163.082 179.726 161.66 176.92L151.782 172.192L156.51 164.621Z" fill="#F8FCFE"/>
<path d="M177.304 192.14L176.036 191.718C175.959 191.679 174.537 191.18 173.268 189.911V190.449L172.922 190.68C172.653 190.872 172.192 190.987 171.654 190.757C171 190.526 170.386 189.834 169.847 188.681L169.771 189.143L168.963 188.873C168.771 188.797 167.042 188.143 167.042 184.492L166.234 181.648C165.235 181.225 162.468 179.841 161.122 177.42L150.668 172.461L156.241 163.583L175.997 174.921L180.033 189.027L179.456 189.296C179.379 189.335 178.15 189.911 176.651 188.912L177.304 192.14ZM171.731 182.493L173.23 186.99C173.653 188.22 174.46 189.066 175.19 189.565L173.653 181.801L175.997 185.914C176.804 187.374 177.573 187.836 178.111 187.951L174.69 175.959L156.779 165.658L152.936 171.846L162.276 176.305L162.391 176.536C163.659 179.034 167.118 180.379 167.157 180.379L167.503 180.533L168.579 184.3V184.415C168.579 185.261 168.694 185.875 168.81 186.337L169.578 182.493L170.424 185.645C170.924 187.49 171.385 188.412 171.731 188.912V182.493Z" fill="#193040"/>
<path d="M149.707 177.035L114.653 162.237L115.23 160.815L149.092 175.075L156.279 162.968L126.607 142.097L135.985 132.719L137.061 133.833L128.99 141.905L158.316 162.545L149.707 177.035Z" fill="#193040"/>
<path d="M426.253 324.167L440.628 324.206L440.051 338.542L425.83 339.119L426.253 324.167Z" fill="#F8FCFE"/>
<path d="M425.023 339.926L425.523 323.36L441.435 323.398L440.821 339.272L425.023 339.926ZM427.022 324.936L426.638 338.35L439.36 337.812L439.86 324.974L427.022 324.936Z" fill="#193040"/>
<path d="M435.516 338.658C435.516 338.658 441.934 330.701 435.938 323.668L447.085 303.681C447.584 302.797 448.93 303.181 448.891 304.181L447.853 340.003C447.815 341.118 446.739 341.925 445.663 341.617L435.516 338.658Z" fill="#193040"/>
<path d="M297.071 310.33L364.757 313.213L426.638 323.206V341.886H297.263L297.071 310.33Z" fill="#F8FCFE"/>
<path d="M427.406 342.655H296.494L296.264 309.523L364.872 312.483L427.406 322.553V342.655ZM298.032 341.117H425.869V323.86L364.679 314.02L297.84 311.137L298.032 341.117Z" fill="#193040"/>
<path d="M398.542 319.209L404.691 333.584L390.316 333.43L383.552 319.209H398.542Z" fill="#F8FCFE"/>
<path d="M405.844 334.353L389.816 334.161L382.321 318.402H399.041L405.844 334.353ZM390.816 332.662L403.538 332.815L398.042 319.978H384.781L390.816 332.662Z" fill="#193040"/>
<path d="M388.163 328.895C388.163 328.895 396.312 335.083 403.153 328.895L423.447 339.465C424.331 339.926 424.024 341.271 422.986 341.271H387.126C386.011 341.271 385.165 340.195 385.473 339.119L388.163 328.895Z" fill="#193040"/>
<path d="M254.291 304.911C254.291 304.911 239.763 334.391 258.442 341.886H307.448L362.757 306.833L385.511 328.626L404.767 322.092L373.327 274.816C369.291 267.859 360.336 265.514 353.417 269.665L299.53 301.99L254.291 304.911Z" fill="#F8FCFE"/>
<path d="M307.678 342.655H258.288L258.135 342.616C253.907 340.925 250.986 338.004 249.41 333.968C244.951 322.322 253.215 305.334 253.561 304.604L253.753 304.219L299.299 301.298L353.032 269.05C356.569 266.937 360.681 266.36 364.64 267.359C368.599 268.397 371.904 270.895 373.98 274.431L405.959 322.515L385.319 329.51L362.68 307.832L307.678 342.655ZM258.596 341.118H307.217L362.872 305.872L385.703 327.742L403.537 321.669L372.635 275.2C370.79 272.01 367.792 269.742 364.256 268.82C360.681 267.897 356.991 268.436 353.801 270.319L299.799 302.759L254.791 305.641C253.561 308.255 247.027 323.322 250.87 333.392C252.254 337.005 254.829 339.58 258.596 341.118Z" fill="#193040"/>
<path d="M248.256 244.375L236.226 246.873L237.456 201.173L250.755 192.025L242.03 194.524L244.528 186.222L244.105 180.418C244.105 180.418 241.607 180.841 241.607 184.992L239.339 188.528L240.185 183.954L238.801 176.613C238.763 176.42 238.571 176.305 238.378 176.382C237.61 176.689 235.803 177.535 235.803 179.188C235.803 181.263 235.803 182.493 235.803 182.493L235.611 184.761L234.765 180.61L234.035 177.343C233.997 177.074 233.689 176.997 233.459 177.151C232.921 177.573 232.113 178.573 231.844 181.033L231.229 187.452L229.999 182.07C229.999 182.07 227.501 182.916 227.924 186.222L227.309 194.754C227.309 194.754 227.732 197.675 228.155 199.751L218.392 253.945C218.392 253.945 216.124 261.21 227.309 262.055C227.309 262.055 238.724 262.247 247.872 261.44L248.256 244.375Z" fill="#F8FCFE"/>
<path d="M230.5 262.824C228.539 262.824 227.271 262.785 227.271 262.785H227.233C222.928 262.478 219.968 261.171 218.469 258.942C216.893 256.636 217.508 254.137 217.624 253.715L227.348 199.712C226.925 197.637 226.541 194.869 226.541 194.831V194.754L227.156 186.221C226.81 183.147 228.693 181.686 229.769 181.34L230.577 181.071L230.961 182.685L231.115 180.956C231.422 178.304 232.306 177.074 233.036 176.536C233.344 176.305 233.728 176.228 234.113 176.343C234.458 176.459 234.728 176.766 234.843 177.151L235.15 178.534C235.496 176.843 237.341 175.959 238.148 175.613C238.456 175.498 238.763 175.536 239.071 175.69C239.34 175.844 239.532 176.113 239.609 176.42L240.993 183.762C241.454 180.11 243.952 179.649 244.067 179.611L244.913 179.457L245.413 186.26L243.299 193.371L255.175 189.988L238.341 201.557L237.149 245.874L249.179 243.375L248.718 262.055L248.026 262.132C241.8 262.709 234.574 262.824 230.5 262.824ZM227.309 261.248C227.848 261.248 238.379 261.402 247.065 260.671L247.45 245.297L235.419 247.796L236.688 200.75L246.412 194.062L240.877 195.638L243.722 186.106L243.414 181.609C242.914 182.109 242.376 183.07 242.376 184.915V185.145L237.879 192.102L239.378 183.877L238.11 177.266C237.456 177.612 236.534 178.227 236.534 179.111V182.493L235.842 190.065L233.959 180.725L233.421 178.265C233.113 178.765 232.729 179.611 232.575 181.071L231.499 192.179L229.423 183.223C228.924 183.685 228.424 184.569 228.616 186.068V186.145L228.001 194.639C228.078 195.139 228.463 197.675 228.808 199.482L228.847 199.636L219.084 254.176C219.084 254.176 218.469 256.29 219.738 258.135C220.968 259.903 223.504 260.979 227.309 261.248ZM240.839 184.377L240.762 184.876L240.839 184.761C240.839 184.646 240.839 184.492 240.839 184.377Z" fill="#193040"/>
<path d="M287.499 245.605C287.499 245.182 286.654 229 286.654 229C286.654 229 300.76 234.804 294.149 204.901C294.149 204.901 278.121 196.753 273.163 208.437C267.974 220.698 270.472 245.605 270.472 245.605H287.499Z" fill="#F8FCFE"/>
<path d="M288.269 246.373H269.781L269.704 245.682C269.589 244.644 267.244 220.429 272.471 208.13C273.74 205.17 275.777 203.133 278.583 202.134C285.386 199.635 294.149 204.056 294.534 204.209L294.841 204.363L294.918 204.709C297.762 217.431 297.224 225.503 293.419 228.731C291.343 230.461 288.922 230.307 287.538 230C287.73 233.805 288.307 245.182 288.307 245.566V246.373H288.269ZM271.165 244.836H286.693C286.577 242.107 286.078 232.882 285.885 229.039L285.809 227.809L286.923 228.27C287.039 228.309 290.075 229.5 292.381 227.578C294.649 225.657 296.686 220.237 293.457 205.439C291.843 204.709 284.54 201.557 279.044 203.594C276.661 204.44 274.931 206.208 273.855 208.745C269.32 219.545 270.819 240.762 271.165 244.836Z" fill="#193040"/>
<path d="M317.595 232.114L329.626 229.615L320.055 177.266L304.258 173.96L309.447 172.077L304.873 167.08L302.452 161.584C302.221 161.007 302.644 160.392 303.259 160.469C304.604 160.585 306.564 161.084 307.371 162.929L313.598 167.926L307.371 159.624L305.719 155.05C305.488 154.396 306.064 153.782 306.718 153.935C307.833 154.166 309.332 154.858 310.254 156.741L318.979 165.889L313.175 156.741L311.907 152.974C311.715 152.359 312.253 151.744 312.906 151.898C313.867 152.167 315.174 152.859 316.096 154.666L321.093 160.892L319.017 156.318L318.402 153.82C318.326 153.474 318.671 153.205 318.979 153.397C319.671 153.782 320.632 154.512 321.131 155.511L325.705 162.16L331.086 172.115L331.932 176.689L344.961 234.727C345.692 238.033 343.924 241.377 340.772 242.607L320.901 250.409L317.595 232.114Z" fill="#F8FCFE"/>
<path d="M320.363 251.447L316.75 231.499L328.78 229L319.44 177.919L301.529 174.153L308.179 171.77L304.297 167.542L301.837 161.93C301.606 161.43 301.683 160.815 301.991 160.393C302.336 159.931 302.836 159.701 303.413 159.739C305.642 159.931 307.295 160.931 308.063 162.507L309.409 163.583L306.757 160.008L305.065 155.319C304.873 154.743 304.989 154.166 305.373 153.705C305.757 153.243 306.372 153.051 306.949 153.167C308.179 153.436 309.87 154.166 310.984 156.28L314.213 159.662L312.56 157.049L311.254 153.167C311.061 152.59 311.215 151.975 311.599 151.552C311.984 151.13 312.599 150.937 313.175 151.091C314.252 151.36 315.751 152.129 316.788 154.204L318.172 155.934L317.672 153.974C317.557 153.513 317.711 153.051 318.095 152.782C318.479 152.513 318.979 152.475 319.363 152.705C320.132 153.167 321.17 153.935 321.785 155.088L326.359 161.776L331.817 171.846L332.662 176.536L345.692 234.535C346.538 238.225 344.577 241.915 341.041 243.299L320.363 251.447ZM318.518 232.729L321.554 249.333L340.58 241.838C343.386 240.723 344.962 237.802 344.27 234.843L331.24 176.805L330.433 172.308L325.129 162.468L320.517 155.78C320.286 155.281 319.902 154.896 319.479 154.55L319.825 156.011L324.437 166.119L315.52 154.935C314.713 153.359 313.637 152.744 312.829 152.552H312.791C312.753 152.59 312.753 152.629 312.791 152.629L314.021 156.318L319.786 165.389L318.595 166.35L309.793 157.126L309.755 157.01C308.947 155.357 307.641 154.819 306.718 154.589C306.718 154.589 306.641 154.589 306.603 154.627C306.564 154.666 306.564 154.704 306.603 154.704L308.217 159.201L318.018 172.269L306.91 163.391L306.833 163.198C306.218 161.738 304.604 161.277 303.374 161.2L302.644 161.546L303.336 161.238L305.68 166.619L310.946 172.346L307.218 173.691L320.862 176.574L330.548 230.23L318.518 232.729Z" fill="#193040"/>
<path d="M283.348 226.118C283.348 226.118 273.778 233.997 267.167 226.118C267.167 226.118 256.366 206.169 274.239 200.788C274.239 200.788 282.964 198.098 288.768 194.831C291.151 193.524 293.918 193.101 296.57 193.755C300.606 194.793 305.065 197.406 301.682 204.094C295.878 215.509 286.308 215.74 286.308 215.74C286.308 215.74 280.927 213.242 280.927 216.97C280.927 220.698 284.232 222.351 284.232 222.351L283.348 226.118Z" fill="#193040"/>
<path d="M287.923 238.148L305.372 233.997L324.052 229.423L327.78 248.948L309.716 256.636L300.991 304.796C300.991 304.796 279.659 306.564 273.855 310.33C253.638 323.475 246.181 315.98 246.181 315.98L252.831 265.745H242.03L242.453 244.144L269.435 239.993C269.435 240.031 275.469 248.949 287.923 238.148Z" fill="#2595DF"/>
<path d="M544.25 342.463H0V344H544.25V342.463Z" fill="#193040"/>
</svg>
